if (_typeface_js && _typeface_js.loadFace) _typeface_js.loadFace({"glyphs":{"0":{"ha":739,"x_min":74,"x_max":665,"o":"m 369 869 q 531 810 465 869 q 631 651 597 750 q 665 433 665 551 q 631 216 665 315 q 530 56 596 117 q 369 -4 464 -4 q 211 56 278 -4 q 109 216 144 117 q 74 433 74 315 q 108 651 74 551 q 210 810 143 750 q 369 869 276 869 m 376 819 q 278 767 319 819 q 215 628 238 715 q 193 433 193 540 q 215 240 193 328 q 276 99 238 151 q 364 46 314 46 q 465 100 425 46 q 526 244 506 154 q 546 440 546 335 q 524 633 546 547 q 465 769 503 718 q 376 819 426 819 z "},"1":{"ha":739,"x_min":199,"x_max":542,"o":"m 335 157 l 335 706 q 328 746 335 735 q 307 757 322 757 q 260 747 292 757 q 211 729 228 736 q 199 753 199 739 q 199 754 199 753 q 201 761 199 760 q 310 812 257 786 q 399 854 364 838 q 436 871 435 871 l 439 871 q 449 863 446 871 q 453 849 451 854 q 447 815 453 849 q 442 718 442 781 l 442 157 q 442 100 442 126 q 449 57 443 74 q 469 44 451 50 q 508 37 488 39 q 536 35 528 35 q 541 15 540 29 q 536 -4 542 1 q 460 1 494 -1 q 385 3 425 3 q 314 1 346 3 q 240 -4 282 -1 q 235 15 235 1 q 240 35 236 29 q 269 37 249 35 q 307 44 289 39 q 326 57 325 50 q 333 100 332 74 q 335 157 335 126 z "},"2":{"ha":739,"x_min":92,"x_max":649,"o":"m 649 203 q 619 127 635 169 q 592 49 604 85 q 575 0 579 13 l 106 0 q 97 9 101 3 q 92 19 92 15 q 208 153 149 83 q 322 290 268 222 q 415 415 376 358 q 469 522 457 476 q 481 618 481 568 q 438 735 481 688 q 331 782 396 782 q 236 758 276 782 q 171 707 196 735 q 138 665 146 679 q 120 674 129 665 q 111 688 111 683 q 134 730 115 700 q 186 792 153 760 q 263 848 219 825 q 361 871 307 871 q 480 838 426 871 q 565 754 533 806 q 596 644 596 703 q 575 535 596 586 q 518 439 554 483 q 413 315 471 381 q 304 191 356 249 q 222 99 253 133 l 492 99 q 558 124 532 99 q 606 203 583 150 q 621 211 608 211 q 635 208 625 211 q 649 203 644 206 z "},"3":{"ha":739,"x_min":114,"x_max":624,"o":"m 382 871 q 458 851 417 871 q 530 792 500 831 q 560 697 560 753 q 538 618 560 654 q 487 556 517 582 q 433 514 457 529 q 517 482 472 508 q 592 409 561 456 q 624 296 624 363 q 594 170 624 226 q 515 74 564 114 q 404 14 465 35 q 279 -7 343 -7 q 213 1 253 -7 q 142 25 174 8 q 125 44 136 29 q 114 76 114 60 q 131 124 114 106 q 171 142 149 142 q 215 120 199 142 q 247 82 231 99 q 294 55 267 63 q 347 47 321 47 q 420 67 383 47 q 482 134 457 88 q 507 258 507 181 q 482 356 507 314 q 417 424 457 399 q 333 449 378 449 q 288 442 311 449 q 253 432 265 435 q 244 458 244 443 q 247 472 244 468 q 350 510 301 485 q 428 574 399 535 q 458 672 458 614 q 421 763 458 726 q 325 799 383 799 q 250 778 282 799 q 199 737 218 758 q 174 710 181 715 q 163 719 168 710 q 157 739 157 729 q 210 801 178 771 q 286 851 243 831 q 382 871 329 871 z "},"4":{"ha":739,"x_min":68,"x_max":669,"o":"m 550 874 q 566 865 561 874 q 571 849 571 857 l 571 314 l 651 314 q 664 297 658 314 q 669 258 669 281 q 665 236 669 243 l 571 236 l 571 -1 q 562 -5 571 -1 q 513 -8 553 -8 q 464 3 464 -8 l 464 236 l 82 236 q 72 248 75 240 q 68 261 68 256 l 510 839 q 529 860 517 847 q 550 874 542 874 m 464 711 l 160 314 l 464 314 l 464 711 z "},"5":{"ha":739,"x_min":114,"x_max":624,"o":"m 369 536 q 506 500 450 536 q 593 409 563 464 q 624 296 624 354 q 594 170 624 226 q 515 74 564 114 q 404 14 465 35 q 279 -7 343 -7 q 213 1 253 -7 q 142 25 174 8 q 125 44 136 29 q 114 76 114 60 q 131 124 114 106 q 171 142 149 142 q 215 120 199 142 q 247 82 231 99 q 294 55 267 63 q 347 47 321 47 q 420 67 383 47 q 482 134 457 88 q 507 258 507 181 q 485 348 507 301 q 417 427 464 394 q 290 460 369 460 q 231 453 268 460 q 176 439 193 447 q 169 445 172 439 q 165 458 165 451 q 196 611 181 535 q 224 753 211 688 q 244 861 238 819 l 444 861 q 501 864 472 861 q 550 870 531 867 q 569 874 569 874 q 581 867 576 869 q 586 858 586 864 q 581 837 586 854 q 567 799 576 819 q 546 763 558 778 q 479 757 518 760 q 388 754 440 754 l 274 754 q 249 630 261 693 q 225 510 238 567 q 298 528 253 521 q 369 536 343 536 z "},"6":{"ha":739,"x_min":99,"x_max":640,"o":"m 392 536 q 510 510 463 536 q 587 442 558 483 q 628 356 615 401 q 640 275 640 311 q 603 135 640 200 q 505 31 567 71 q 365 -8 443 -8 q 255 19 304 -8 q 171 90 206 46 q 117 190 136 135 q 99 299 99 244 q 132 496 99 403 q 229 658 165 589 q 341 756 278 711 q 470 832 404 800 q 593 878 536 864 q 606 862 603 878 q 608 839 608 846 q 510 800 565 825 q 400 733 456 775 q 300 628 344 692 q 232 475 256 565 q 313 520 268 504 q 392 536 357 536 m 221 415 q 217 369 218 393 q 215 322 215 346 q 225 226 215 276 q 255 133 235 176 q 306 63 275 90 q 376 36 336 36 q 483 97 442 36 q 525 250 525 158 q 508 358 525 308 q 453 439 490 408 q 354 469 415 469 q 290 460 325 469 q 221 415 254 451 z "},"7":{"ha":739,"x_min":85,"x_max":654,"o":"m 553 858 q 610 860 579 858 q 646 863 640 863 q 654 850 654 863 q 642 812 654 836 q 615 760 629 788 l 258 -3 q 244 -7 254 -7 q 207 1 229 -7 q 185 18 185 8 q 261 146 219 71 q 347 304 303 221 q 430 468 390 388 q 501 615 469 549 q 551 720 532 681 q 569 760 569 760 l 225 760 q 164 735 185 760 q 128 656 143 710 q 111 647 126 647 q 98 650 107 647 q 85 656 89 653 q 119 769 103 711 q 142 858 135 826 l 553 858 z "},"8":{"ha":739,"x_min":114,"x_max":625,"o":"m 376 872 q 488 849 438 872 q 569 781 539 825 q 600 672 600 736 q 575 581 600 619 q 515 514 550 542 q 447 467 479 486 q 447 458 438 464 q 530 400 489 436 q 598 319 571 364 q 625 226 625 275 q 589 104 625 158 q 494 19 553 50 q 367 -12 435 -12 q 235 15 293 -12 q 146 93 178 43 q 114 208 114 143 q 133 289 114 253 q 182 353 153 325 q 241 400 211 381 q 290 432 271 419 q 290 439 296 436 q 230 487 263 456 q 174 560 197 518 q 151 651 151 601 q 183 760 151 710 q 265 841 214 810 q 376 872 317 872 m 369 36 q 476 78 436 36 q 515 188 515 119 q 492 266 515 229 q 436 331 468 303 q 376 378 404 360 q 342 400 349 396 q 333 403 336 403 q 328 401 329 403 q 247 322 272 367 q 221 213 221 278 q 243 117 221 157 q 299 57 265 78 q 369 36 333 36 m 369 825 q 287 781 321 825 q 253 675 253 736 q 277 588 253 624 q 335 531 301 553 q 393 493 368 508 q 401 492 396 492 q 403 492 403 492 q 410 493 407 492 q 476 563 451 521 q 501 660 501 604 q 485 738 501 700 q 440 800 469 775 q 369 825 411 825 z "},"9":{"ha":739,"x_min":100,"x_max":640,"o":"m 131 31 q 228 69 174 44 q 339 136 283 94 q 440 241 394 178 q 507 394 485 304 q 427 349 472 365 q 347 333 382 333 q 228 360 276 333 q 152 427 181 386 q 112 513 124 468 q 100 594 100 558 q 137 735 100 671 q 236 838 174 799 q 375 878 299 878 q 485 851 436 878 q 569 779 535 824 q 622 680 604 735 q 640 571 640 625 q 608 374 640 467 q 510 211 575 281 q 399 114 463 158 q 269 38 335 69 q 146 -8 203 7 q 133 8 136 -8 q 131 31 131 25 m 518 454 q 522 500 521 476 q 524 547 524 524 q 514 643 524 593 q 485 736 504 693 q 435 806 465 779 q 364 833 404 833 q 258 772 300 833 q 215 619 215 711 q 232 512 215 563 q 286 431 249 461 q 385 400 324 400 q 449 409 414 400 q 518 454 485 418 z "}," ":{"ha":406,"x_min":0,"x_max":0,"o":""},"!":{"ha":326,"x_min":89,"x_max":238,"o":"m 169 925 q 214 900 200 925 q 229 846 229 874 q 217 621 229 774 q 182 233 206 468 q 160 215 174 217 q 143 231 147 222 q 101 846 101 700 q 121 900 101 874 q 169 925 140 925 m 89 61 q 111 113 89 92 q 164 135 136 135 q 217 113 194 135 q 238 61 238 92 q 217 8 238 32 q 164 -15 196 -15 q 111 8 135 -15 q 89 61 89 31 z "},"(":{"ha":636,"x_min":203,"x_max":576,"o":"m 306 231 q 393 -240 306 -17 q 576 -512 461 -412 l 556 -536 q 253 -94 340 -367 q 203 231 203 60 q 408 849 203 594 q 478 926 442 889 q 556 996 515 964 l 576 967 q 356 592 428 847 q 306 231 306 417 z "},")":{"ha":636,"x_min":61,"x_max":433,"o":"m 331 231 q 281 592 331 417 q 61 967 208 849 l 81 996 q 229 849 161 932 q 433 231 433 597 q 383 -94 433 60 q 81 -536 296 -367 l 61 -512 q 243 -240 174 -414 q 331 231 331 -17 z "},".":{"ha":440,"x_min":94,"x_max":349,"o":"m 167 289 q 206 294 176 315 l 328 210 q 332 154 349 196 l 278 25 q 225 18 263 -11 l 121 97 q 104 140 94 118 l 167 289 z "},"/":{"ha":478,"x_min":21,"x_max":436,"o":"m 419 975 q 436 963 432 975 l 99 -228 q 81 -247 97 -235 q 46 -258 65 -258 q 31 -256 39 -258 q 22 -251 25 -253 l 21 -249 l 365 956 q 372 963 365 958 q 392 971 378 967 q 419 975 404 975 z "},"[":{"ha":501,"x_min":203,"x_max":440,"o":"m 229 986 l 436 994 l 440 986 l 440 982 q 429 961 440 967 q 428 960 428 961 q 428 960 428 960 q 361 944 401 951 q 268 929 321 936 l 268 -471 l 360 -485 q 428 -501 407 -493 q 440 -524 440 -508 q 439 -531 440 -529 l 438 -535 l 436 -536 l 315 -529 q 272 -528 293 -528 q 229 -528 250 -528 q 203 -496 207 -526 l 203 956 q 217 983 203 974 q 229 986 221 986 z "},"\\":{"ha":478,"x_min":42,"x_max":458,"o":"m 60 975 q 88 971 75 975 q 107 963 101 967 q 114 956 114 958 l 458 -249 l 456 -251 q 449 -256 453 -254 q 433 -258 440 -258 q 399 -247 414 -258 q 381 -228 382 -235 l 42 963 q 60 975 46 975 z "},"]":{"ha":501,"x_min":61,"x_max":299,"o":"m 272 986 q 286 983 282 986 q 299 956 299 975 l 299 -496 q 272 -528 294 -526 q 231 -528 251 -528 q 188 -529 210 -528 l 65 -536 l 64 -535 l 63 -531 q 61 -524 61 -529 q 75 -501 61 -510 q 143 -485 96 -493 l 233 -471 l 233 929 q 141 944 181 936 q 75 960 101 951 q 74 960 75 960 q 72 961 74 961 q 61 982 61 967 l 61 986 l 65 994 l 272 986 z "},"{":{"ha":551,"x_min":197,"x_max":375,"o":"m 264 -312 q 353 -515 258 -410 q 350 -547 365 -532 q 318 -549 335 -562 q 207 -279 210 -457 q 246 -92 204 -196 q 290 53 285 13 q 197 208 303 144 l 197 253 q 290 408 303 317 q 276 466 288 431 q 246 553 265 501 q 207 740 207 660 q 318 1008 211 918 q 350 1008 335 1024 q 351 975 364 992 q 264 772 257 871 q 307 653 268 718 q 356 411 375 540 q 253 231 338 289 q 356 50 338 169 q 307 -192 375 -79 q 264 -312 268 -257 z "},"|":{"ha":278,"x_min":104,"x_max":174,"o":"m 174 -512 q 117 -535 174 -524 l 113 -535 q 104 -531 104 -535 l 104 -528 q 105 -525 104 -526 q 106 -524 106 -524 l 106 972 l 107 981 q 110 982 108 982 q 113 983 111 982 q 163 993 142 993 q 174 985 174 993 l 174 -512 z "},"}":{"ha":551,"x_min":188,"x_max":356,"o":"m 289 -312 q 244 -192 285 -260 q 199 -74 210 -135 q 197 50 188 -14 q 300 231 215 169 q 197 411 215 289 q 199 535 188 475 q 244 653 210 596 q 289 772 285 721 q 200 975 294 869 q 201 1008 188 992 q 233 1008 217 1024 q 346 740 342 917 q 306 553 346 663 q 276 466 288 501 q 261 408 264 431 q 356 253 249 318 l 356 208 q 261 53 249 143 q 306 -92 267 13 q 346 -279 349 -200 q 233 -549 344 -456 q 201 -547 217 -562 q 200 -515 188 -533 q 289 -312 294 -410 z "}," ":{"ha":406,"x_min":0,"x_max":0,"o":""},"¦":{"ha":278,"x_min":99,"x_max":172,"o":"m 101 142 q 108 151 100 149 q 161 158 133 158 q 169 157 168 158 q 172 153 172 154 l 172 -512 q 143 -526 172 -519 q 121 -531 129 -529 q 108 -533 113 -533 q 106 -533 107 -533 q 103 -532 104 -532 q 101 -531 101 -532 q 101 -531 101 -531 l 101 142 m 172 346 q 143 332 172 339 q 121 327 129 329 q 108 325 113 325 q 106 326 107 325 q 103 326 104 326 q 101 328 101 326 q 101 329 101 329 l 101 979 q 108 990 99 988 q 161 997 133 997 q 169 994 167 997 q 172 990 172 992 l 172 346 z "},"«":{"ha":576,"x_min":68,"x_max":511,"o":"m 378 231 q 501 -18 378 89 q 506 -39 511 -26 q 482 -44 497 -51 q 356 71 400 -3 q 311 231 311 143 q 322 314 311 274 q 356 390 333 354 q 482 506 401 465 q 506 500 499 514 q 501 479 511 488 q 378 231 378 381 m 135 231 q 258 -18 135 89 q 263 -39 268 -26 q 239 -44 254 -51 q 114 71 160 -4 q 68 231 68 146 q 114 390 68 318 q 239 506 160 467 q 263 500 256 514 q 258 479 268 488 q 135 231 135 381 z "},"»":{"ha":576,"x_min":65,"x_max":508,"o":"m 199 231 q 75 479 199 381 q 71 500 65 488 q 94 506 78 514 q 221 390 175 465 q 255 314 244 354 q 265 231 265 274 q 221 71 265 143 q 94 -44 176 -3 q 71 -39 79 -51 q 75 -18 65 -26 q 199 231 199 89 m 442 231 q 318 479 442 381 q 314 500 308 488 q 338 506 321 514 q 463 390 417 467 q 508 231 508 318 q 463 71 508 146 q 338 -44 417 -4 q 314 -39 322 -51 q 318 -18 308 -26 q 442 231 442 89 z "},"؀":{"ha":1575,"x_min":40,"x_max":1538,"o":"m 1314 -92 q 1292 -8 1293 -53 q 1303 72 1290 35 q 1444 225 1351 211 q 1526 194 1492 232 q 1535 174 1538 183 q 1510 113 1524 133 q 1497 111 1504 106 q 1390 128 1444 157 q 1329 68 1339 100 q 1325 24 1321 39 q 1379 -65 1342 -42 l 1472 -99 q 1488 -124 1488 -107 q 1479 -199 1485 -174 q 1465 -206 1476 -211 q 1356 -160 1382 -160 q 1289 -178 1326 -160 q 785 -228 1185 -228 q 143 -196 226 -228 q 93 -161 121 -187 l 49 -118 q 40 -106 40 -110 q 64 -103 40 -99 q 352 -129 190 -121 q 713 -137 514 -137 q 1033 -134 911 -137 q 1201 -124 1156 -131 q 1275 -108 1247 -117 q 1314 -92 1303 -100 z "},"؁":{"ha":2475,"x_min":40,"x_max":2435,"o":"m 2390 -49 q 2435 -79 2435 -49 q 2433 -101 2435 -87 q 2425 -131 2431 -114 q 2392 -189 2415 -164 q 2360 -224 2381 -201 q 2307 -279 2339 -246 q 2251 -344 2276 -312 q 2204 -404 2225 -375 q 2185 -417 2190 -422 q 2188 -394 2179 -411 q 2238 -317 2214 -351 q 2286 -257 2263 -283 q 2333 -207 2310 -231 q 2381 -161 2357 -183 q 2346 -140 2372 -140 q 2278 -157 2319 -140 q 2055 -246 2154 -208 q 1879 -307 1956 -283 q 1563 -383 1721 -358 q 1249 -407 1406 -407 q 910 -368 1036 -407 q 790 -317 846 -349 q 685 -247 733 -286 q 667 -251 675 -239 q 579 -343 631 -314 q 550 -356 564 -351 q 521 -361 536 -361 q 418 -306 469 -361 q 406 -292 414 -301 q 386 -268 397 -282 q 338 -237 363 -237 q 281 -278 310 -237 q 257 -312 267 -297 q 243 -337 247 -328 q 233 -362 239 -347 q 218 -401 226 -378 q 202 -442 210 -424 q 185 -471 194 -460 q 142 -494 165 -494 q 65 -432 90 -494 q 40 -203 40 -369 q 50 -186 40 -189 q 61 -193 60 -183 q 64 -216 63 -199 q 65 -265 65 -233 q 135 -417 67 -407 l 138 -417 q 193 -357 164 -417 q 214 -312 200 -344 q 361 -142 285 -142 q 424 -186 386 -142 q 485 -246 461 -231 q 540 -261 508 -261 q 681 -158 617 -261 q 715 -126 700 -126 q 740 -150 725 -126 q 933 -268 788 -226 q 1103 -299 1007 -289 q 1319 -308 1200 -308 q 1968 -187 1606 -308 q 2043 -160 1992 -179 q 2171 -110 2094 -140 q 2303 -63 2249 -78 q 2390 -49 2358 -49 z "},"؂":{"ha":1128,"x_min":57,"x_max":1072,"o":"m 124 -189 q 99 -172 110 -182 q 76 -151 88 -162 q 57 -96 57 -131 q 107 33 57 -25 q 171 72 142 72 q 225 58 203 72 q 263 -56 263 38 q 258 -131 263 -89 q 536 -143 344 -143 q 1042 -101 813 -140 q 1072 -101 1072 -96 q 1057 -117 1072 -106 l 999 -157 q 942 -182 974 -174 q 746 -214 860 -203 q 488 -225 632 -225 q 124 -189 200 -225 m 153 -1 q 104 -54 104 -1 q 150 -108 104 -92 q 182 -116 161 -112 q 231 -125 203 -119 q 153 -1 231 -1 z "},"؃":{"ha":1540,"x_min":40,"x_max":1500,"o":"m 1115 -283 q 1099 -262 1099 -283 q 1118 -194 1099 -242 q 1075 -181 1096 -190 q 1035 -156 1054 -171 q 558 -226 913 -226 q 343 -214 444 -226 q 153 -178 242 -201 q 93 -147 108 -164 l 49 -97 q 40 -83 40 -89 q 64 -82 40 -78 q 349 -128 217 -112 q 596 -143 482 -143 q 876 -126 761 -143 q 1058 -75 990 -108 q 1078 -89 1064 -74 q 1167 -128 1106 -121 q 1404 58 1294 58 q 1463 35 1428 58 q 1500 -28 1500 10 q 1475 -111 1500 -65 q 1453 -147 1463 -133 q 1440 -162 1444 -160 q 1240 -218 1368 -218 q 1147 -206 1192 -218 q 1125 -274 1138 -219 q 1115 -283 1124 -283 m 1440 -94 q 1340 -29 1401 -29 q 1201 -136 1279 -29 q 1254 -140 1222 -140 q 1354 -132 1286 -140 q 1440 -103 1424 -124 q 1442 -100 1442 -101 q 1440 -94 1442 -96 z "},"؄":{"ha":3032,"x_min":40,"x_max":3015,"o":"m 153 -208 q 126 -189 140 -201 q 93 -161 111 -176 l 49 -118 q 40 -107 40 -111 q 64 -103 40 -100 q 515 -126 232 -118 q 1196 -135 797 -135 q 1872 -127 1594 -135 q 2303 -104 2149 -119 q 2382 -90 2349 -100 q 2436 -67 2415 -81 q 2418 106 2389 19 q 2563 236 2465 232 q 2617 192 2592 238 q 2682 144 2642 146 q 2833 268 2756 140 q 2851 274 2844 283 q 2850 243 2861 263 q 2840 219 2840 225 q 2858 196 2840 203 q 2951 181 2919 171 q 2933 219 2964 183 q 2932 221 2933 219 q 2932 226 2931 224 l 2972 290 q 2979 290 2975 294 q 2988 154 3015 249 q 2972 113 2981 129 q 2956 88 2964 97 q 2906 74 2939 69 q 2790 114 2836 83 q 2783 113 2785 117 q 2646 40 2726 32 q 2569 107 2603 44 q 2538 132 2560 128 q 2447 106 2481 143 q 2472 17 2447 57 q 2526 -39 2497 -22 q 2574 -56 2538 -46 q 2631 -76 2613 -67 q 2649 -106 2649 -86 q 2645 -158 2647 -135 q 2639 -199 2643 -182 q 2621 -207 2635 -215 q 2486 -150 2518 -150 q 2448 -156 2469 -150 q 2399 -175 2426 -161 q 2161 -219 2343 -203 q 1256 -236 1981 -236 q 617 -229 893 -236 q 153 -208 342 -222 z "},"؆":{"ha":699,"x_min":38,"x_max":715,"o":"m 686 228 l 560 299 l 319 -228 q 307 -235 317 -235 q 261 -207 285 -235 q 249 -141 257 -185 q 231 -33 242 -97 l 38 1072 l 88 1072 l 281 -42 l 439 300 q 460 355 451 332 q 474 393 469 378 q 481 400 476 399 q 508 394 494 406 q 517 389 511 393 q 529 379 522 385 q 612 324 574 349 q 683 279 650 299 q 715 253 715 263 q 686 228 711 240 m 627 1048 q 640 1063 628 1063 q 652 1039 653 1063 q 647 985 652 1013 q 634 926 642 956 q 533 869 612 844 q 491 891 509 876 q 402 851 451 847 q 430 541 455 640 q 421 531 427 533 q 409 531 413 528 q 403 546 405 535 q 291 915 389 769 q 277 956 273 939 l 298 1040 q 327 1037 306 1070 q 387 960 376 966 q 446 950 410 946 q 512 1041 495 955 q 525 1056 517 1057 q 537 1045 535 1056 q 534 1002 540 1033 q 573 958 527 971 q 627 1048 621 946 z "},"؇":{"ha":699,"x_min":38,"x_max":715,"o":"m 686 228 l 560 299 l 319 -228 q 307 -235 317 -235 q 261 -207 285 -235 q 249 -141 257 -185 q 231 -33 242 -97 l 38 1072 l 88 1072 l 281 -42 l 439 300 q 460 355 451 332 q 474 393 469 378 q 481 400 476 399 q 508 394 494 406 q 517 389 511 393 q 529 379 522 385 q 612 324 574 349 q 683 279 650 299 q 715 253 715 263 q 686 228 711 240 m 464 1056 q 477 1061 469 1061 q 491 1056 487 1061 q 494 1042 496 1050 l 479 979 q 467 968 477 972 q 409 932 419 952 q 417 907 402 917 q 522 860 475 872 q 532 830 542 855 l 517 797 q 494 769 507 777 q 418 704 447 737 q 422 670 401 683 q 493 635 457 648 q 567 617 529 621 q 581 592 590 614 l 557 534 q 537 523 552 522 q 366 585 439 533 q 358 627 350 597 l 377 697 q 450 784 386 727 q 405 804 427 792 q 360 832 383 816 q 355 888 337 847 l 382 945 q 464 1056 407 998 z "},"؈":{"ha":1194,"x_min":60,"x_max":1143,"o":"m 926 128 q 1063 172 1025 126 q 1064 181 1065 175 q 1026 261 1056 219 q 1022 296 1014 278 l 1061 382 q 1088 382 1072 407 q 1107 139 1143 279 q 924 1 1072 0 q 916 -29 922 -10 q 903 -76 910 -49 q 857 -181 885 -144 q 532 -354 747 -326 q 325 -319 413 -368 q 232 -203 254 -278 q 260 43 199 -89 q 79 -46 175 -33 q 61 -26 60 -49 l 64 22 q 79 47 67 47 q 318 158 208 53 q 347 169 338 178 q 350 146 360 160 q 308 -149 229 -28 q 471 -229 351 -215 q 708 -197 592 -244 q 874 -58 833 -147 q 876 -37 876 -51 q 869 0 876 -22 q 700 42 742 4 q 724 215 654 83 q 810 310 774 310 q 926 128 894 310 m 832 135 q 767 203 814 203 q 747 176 736 203 q 832 135 761 146 z "},"؉":{"ha":1203,"x_min":56,"x_max":1147,"o":"m 1026 100 l 1124 51 q 1135 15 1147 40 l 1089 -78 q 1053 -89 1078 -101 l 956 -40 q 943 -4 931 -28 l 989 88 q 1026 100 1001 113 m 742 100 l 839 51 q 850 15 863 40 l 804 -78 q 768 -89 793 -101 l 671 -40 q 658 -4 646 -28 l 704 88 q 742 100 717 113 m 151 779 l 249 731 q 260 694 272 719 l 214 601 q 178 590 203 578 l 81 639 q 68 675 56 651 l 114 767 q 151 779 126 792 m 636 975 q 653 963 649 975 l 315 -228 q 297 -247 314 -235 q 263 -258 282 -258 q 247 -256 256 -258 q 239 -251 242 -253 l 238 -249 l 582 956 q 589 963 582 958 q 608 971 594 967 q 636 975 621 975 z "},"؊":{"ha":1488,"x_min":56,"x_max":1432,"o":"m 1311 100 l 1408 51 q 1419 15 1432 40 l 1374 -78 q 1338 -89 1363 -101 l 1240 -40 q 1228 -4 1215 -28 l 1274 88 q 1311 100 1286 113 m 1026 100 l 1124 51 q 1135 15 1147 40 l 1089 -78 q 1053 -89 1078 -101 l 956 -40 q 943 -4 931 -28 l 989 88 q 1026 100 1001 113 m 742 100 l 839 51 q 850 15 863 40 l 804 -78 q 768 -89 793 -101 l 671 -40 q 658 -4 646 -28 l 704 88 q 742 100 717 113 m 151 779 l 249 731 q 260 694 272 719 l 214 601 q 178 590 203 578 l 81 639 q 68 675 56 651 l 114 767 q 151 779 126 792 m 636 975 q 653 963 649 975 l 315 -228 q 297 -247 314 -235 q 263 -258 282 -258 q 247 -256 256 -258 q 239 -251 242 -253 l 238 -249 l 582 956 q 589 963 582 958 q 608 971 594 967 q 636 975 621 975 z "},"؋":{"ha":694,"x_min":54,"x_max":638,"o":"m 472 568 q 518 546 492 568 q 609 422 581 492 q 635 271 638 353 q 592 132 631 193 q 110 7 489 -28 q 76 31 81 10 l 63 97 q 103 132 54 139 q 574 225 442 94 q 561 279 569 268 q 546 292 551 293 q 538 286 539 289 q 465 214 514 225 q 325 332 313 181 q 381 488 331 404 q 472 568 428 568 m 326 -89 q 351 -90 333 -68 q 442 -462 483 -237 q 428 -478 440 -475 q 414 -462 417 -479 q 307 -208 394 -317 q 300 -178 296 -196 l 326 -89 m 399 861 q 410 864 401 865 q 508 806 465 844 q 510 794 514 800 l 444 689 q 431 690 440 682 q 401 710 425 694 q 333 751 378 725 q 331 760 326 756 l 399 861 m 389 356 q 485 369 463 342 q 426 418 453 421 q 389 356 392 417 z "},"،":{"ha":513,"x_min":125,"x_max":404,"o":"m 286 551 q 324 550 310 567 q 318 515 338 535 q 201 188 147 338 q 217 182 207 172 q 299 221 247 221 q 374 189 342 221 q 404 115 404 158 q 371 40 404 72 q 293 10 336 8 q 210 35 242 13 q 139 285 125 101 q 157 367 143 326 q 196 446 171 407 q 286 551 246 524 z "},"؍":{"ha":439,"x_min":47,"x_max":406,"o":"m 372 639 l 351 594 q 296 567 326 540 q 210 544 261 596 q 153 479 183 518 q 92 389 124 440 q 63 369 76 364 q 61 411 47 378 q 109 503 81 454 q 176 610 138 553 q 354 721 267 738 q 372 639 406 711 z "},"؎":{"ha":932,"x_min":54,"x_max":879,"o":"m 121 119 q 74 156 96 131 q 54 211 54 176 q 106 342 54 282 q 169 379 139 379 q 224 365 201 379 q 261 253 261 344 q 260 217 261 236 q 256 176 258 197 q 351 167 300 171 q 460 165 401 164 q 636 176 539 167 q 847 206 733 186 q 879 206 879 213 q 864 190 879 201 l 806 151 q 778 136 793 143 q 749 125 764 129 q 408 83 585 83 q 121 119 197 83 m 151 307 q 101 254 101 307 q 149 200 101 217 q 180 192 160 196 q 228 182 200 188 q 151 307 228 307 z "},"؏":{"ha":1124,"x_min":58,"x_max":1096,"o":"m 229 -246 q 414 222 225 24 q 271 314 307 265 q 258 357 257 332 q 293 476 265 424 q 442 638 361 599 q 539 624 482 656 q 621 556 597 590 q 603 542 635 536 q 307 422 422 578 q 310 404 300 414 q 539 329 401 313 q 604 357 558 331 q 731 434 686 406 q 786 468 776 463 q 800 444 814 483 q 751 347 768 354 q 475 178 619 285 q 268 -208 285 38 q 543 -3 426 -60 q 921 46 774 108 q 1051 -90 1021 3 q 981 -412 1096 -233 q 592 -662 819 -662 q 232 -318 269 -662 q 158 -396 196 -354 q 82 -483 121 -437 q 63 -499 68 -500 q 63 -483 58 -499 l 86 -399 q 229 -246 92 -379 m 275 -279 q 638 -539 343 -539 q 988 -306 911 -539 q 925 -85 1029 -181 q 581 -76 821 11 q 275 -279 453 -122 z "},"ؐ":{"ha":0,"x_min":-1,"x_max":435,"o":"m 57 1360 q 138 1340 88 1342 q 199 1398 168 1372 q 260 1446 229 1424 q 356 1489 319 1489 q 431 1428 407 1490 q 421 1381 435 1411 q 396 1339 407 1350 q 208 1274 347 1286 q 75 1279 136 1267 q 51 1139 79 1211 q 33 1126 44 1124 q 26 1143 22 1129 q 4 1331 50 1250 q 0 1343 -1 1342 l 22 1400 q 38 1397 26 1413 q 57 1360 47 1383 m 389 1388 q 299 1414 346 1426 q 171 1340 251 1401 q 389 1388 314 1332 z "},"ؑ":{"ha":0,"x_min":-1,"x_max":404,"o":"m 75 1279 q 51 1139 79 1211 q 33 1126 44 1124 q 26 1143 22 1129 q 4 1331 50 1250 q 0 1343 -1 1342 l 22 1400 q 57 1360 32 1424 q 172 1340 103 1339 q 149 1403 150 1368 q 183 1510 142 1471 q 267 1558 226 1550 q 374 1508 307 1567 q 376 1492 382 1500 q 361 1486 369 1483 q 221 1488 292 1513 q 185 1461 190 1478 q 206 1403 179 1444 q 251 1358 233 1360 q 368 1393 299 1350 q 399 1404 394 1408 q 401 1394 404 1399 l 375 1338 q 371 1330 374 1332 q 365 1325 368 1328 q 229 1274 301 1286 q 75 1279 157 1263 z "},"ؒ":{"ha":0,"x_min":0,"x_max":543,"o":"m 0 1139 q 176 1417 0 1338 q 35 1411 96 1436 q 24 1415 24 1407 q 97 1488 25 1483 q 183 1478 128 1490 q 237 1469 213 1472 q 282 1467 261 1467 q 327 1469 303 1467 q 382 1478 351 1472 q 396 1465 404 1482 l 378 1428 q 371 1421 376 1424 q 228 1393 286 1408 q 139 1357 171 1378 q 24 1139 24 1282 q 11 1128 22 1128 q 0 1139 1 1128 m 476 1465 q 479 1468 476 1467 q 489 1463 482 1469 q 529 1389 515 1435 q 539 1296 543 1340 q 490 1183 531 1235 q 385 1114 450 1131 q 351 1115 368 1108 q 286 1138 311 1128 q 251 1156 261 1149 q 249 1160 249 1157 q 250 1164 249 1163 q 257 1165 253 1167 q 339 1156 303 1150 q 418 1188 374 1160 q 514 1288 483 1231 q 515 1299 517 1292 q 461 1390 504 1336 q 460 1396 458 1393 l 476 1465 z "},"ؓ":{"ha":0,"x_min":-1,"x_max":594,"o":"m 528 1465 q 530 1468 528 1467 q 540 1463 533 1469 q 581 1388 567 1435 q 590 1295 594 1340 q 542 1183 582 1234 q 436 1114 501 1131 q 403 1115 419 1109 q 337 1139 363 1128 q 302 1155 312 1149 q 299 1159 299 1157 q 301 1164 299 1162 q 308 1165 303 1166 q 352 1155 332 1158 q 390 1155 372 1153 q 427 1165 407 1157 q 469 1188 447 1173 q 565 1288 535 1230 q 567 1299 568 1292 q 513 1390 556 1335 q 511 1395 510 1393 l 528 1465 m 57 1360 q 138 1340 88 1342 q 199 1398 168 1372 q 260 1446 229 1424 q 356 1489 319 1489 q 431 1428 407 1490 q 421 1381 435 1411 q 396 1339 407 1350 q 208 1274 347 1286 q 75 1279 136 1267 q 51 1139 79 1211 q 33 1126 44 1124 q 26 1143 22 1129 q 4 1331 50 1250 q 0 1343 -1 1342 l 22 1400 q 38 1397 26 1413 q 57 1360 47 1383 m 389 1388 q 299 1414 346 1426 q 171 1340 251 1401 q 389 1388 314 1332 m 275 1633 q 281 1634 276 1635 q 330 1605 308 1624 q 331 1599 333 1602 l 298 1547 q 291 1547 296 1543 q 276 1557 288 1549 q 242 1578 265 1565 q 241 1582 239 1580 l 275 1633 z "},"ؔ":{"ha":0,"x_min":-36,"x_max":590,"o":"m 394 1228 q -12 1189 201 1150 q -33 1211 -36 1193 q -8 1224 -31 1226 q 418 1311 313 1211 q 436 1318 431 1322 q 440 1299 446 1313 l 435 1285 q 553 1244 494 1240 q 542 1274 553 1256 q 542 1301 535 1288 l 564 1347 q 582 1339 572 1363 q 590 1299 589 1321 q 586 1250 590 1278 q 544 1178 574 1182 q 394 1228 472 1169 z "},"ؕ":{"ha":0,"x_min":-7,"x_max":557,"o":"m 243 2422 q 267 2169 263 2275 q 265 1997 272 2063 q 506 2113 422 2165 q 553 2053 549 2086 q 533 1972 557 2018 q 494 1915 508 1925 q 124 1821 383 1839 q 46 1850 76 1829 q 4 1892 15 1871 q 7 1911 -7 1913 q 78 1907 38 1907 q 167 1910 118 1907 l 221 1963 q 213 2170 221 2068 q 190 2374 206 2272 q 194 2413 186 2400 l 215 2446 q 243 2422 235 2476 m 367 2028 q 215 1915 328 2015 q 489 1989 385 1933 q 367 2028 451 2054 z "},"ؖ":{"ha":0,"x_min":71,"x_max":614,"o":"m 204 1608 q 213 1375 228 1457 q 107 1240 199 1296 q 299 1232 176 1231 q 594 1249 421 1233 q 603 1235 614 1251 l 578 1199 q 564 1188 571 1190 q 478 1178 533 1182 q 342 1172 422 1175 q 203 1172 261 1169 q 104 1179 144 1174 q 75 1201 79 1183 q 89 1261 71 1229 q 126 1304 106 1289 q 186 1400 189 1347 q 177 1492 181 1450 q 168 1567 174 1533 q 171 1593 165 1586 l 183 1614 q 204 1608 200 1639 m 368 1614 q 385 1376 389 1443 q 371 1282 381 1310 q 354 1251 360 1251 q 347 1269 344 1251 q 331 1551 351 1338 q 332 1578 328 1572 l 349 1611 q 368 1614 364 1643 z "},"ؗ":{"ha":0,"x_min":110,"x_max":465,"o":"m 385 2232 q 400 2231 388 2243 q 449 2142 432 2199 q 457 2021 465 2086 q 401 1894 449 1956 q 346 1844 378 1864 q 275 1813 314 1824 q 235 1813 254 1806 q 110 1865 110 1857 q 119 1872 110 1875 q 172 1860 147 1864 q 218 1860 197 1857 q 429 2021 356 1879 q 431 2033 433 2026 q 365 2143 419 2075 q 364 2144 365 2143 q 364 2149 363 2147 l 385 2232 m 299 2458 q 321 2454 300 2461 q 365 2425 340 2447 q 367 2417 369 2421 l 326 2354 q 318 2356 325 2351 q 301 2367 315 2358 q 260 2392 286 2376 q 258 2397 256 2394 l 299 2458 z "},"ؘ":{"ha":0,"x_min":181,"x_max":456,"o":"m 199 1211 l 436 1317 q 453 1307 456 1325 l 449 1269 q 439 1254 446 1258 l 206 1172 q 183 1182 181 1164 l 186 1197 q 199 1211 188 1207 z "},"ؙ":{"ha":0,"x_min":214,"x_max":428,"o":"m 374 1464 q 403 1454 393 1468 q 410 1438 408 1447 q 413 1415 411 1428 q 392 1336 415 1389 q 408 1326 401 1331 q 419 1319 415 1322 q 422 1301 428 1315 l 408 1274 q 364 1285 403 1263 q 250 1176 303 1204 q 221 1174 226 1164 q 242 1204 214 1185 q 294 1247 269 1224 q 340 1300 318 1271 q 296 1386 271 1333 q 374 1464 328 1451 m 367 1389 q 338 1396 358 1404 q 322 1381 315 1388 q 367 1350 335 1367 q 367 1389 375 1375 z "},"ؚ":{"ha":0,"x_min":228,"x_max":503,"o":"m 246 -572 l 483 -467 q 500 -476 503 -458 l 496 -514 q 486 -529 493 -525 l 253 -611 q 231 -601 228 -619 l 233 -586 q 246 -572 235 -576 z "},"؛":{"ha":513,"x_min":125,"x_max":404,"o":"m 369 -140 q 350 -186 369 -167 q 304 -206 331 -206 q 258 -186 278 -206 q 239 -140 239 -167 q 258 -93 239 -112 q 304 -74 278 -74 q 350 -93 331 -74 q 369 -140 369 -112 m 286 551 q 324 550 310 567 q 318 515 338 535 q 201 188 147 338 q 217 182 207 172 q 299 221 247 221 q 374 189 342 221 q 404 115 404 158 q 371 40 404 72 q 293 10 336 8 q 210 35 242 13 q 139 285 125 101 q 157 367 143 326 q 196 446 171 407 q 286 551 246 524 z "},"؜":{"ha":0,"x_min":0,"x_max":0,"o":""},"؝":{"ha":936,"x_min":100,"x_max":838,"o":"m 525 214 q 542 160 531 194 q 576 99 554 126 q 632 72 599 72 q 657 76 643 72 q 647 132 647 106 q 673 203 647 175 q 742 231 699 231 q 812 194 786 231 q 838 111 838 157 q 815 29 838 68 q 756 -35 793 -10 q 678 -60 719 -60 q 581 -21 621 -60 q 522 65 542 18 q 473 172 494 126 q 426 260 451 218 q 364 347 401 301 q 277 435 328 396 q 182 514 226 474 q 124 601 149 543 q 100 718 100 658 q 106 767 100 744 q 121 810 111 790 q 166 881 136 840 q 238 962 196 922 q 331 1027 279 1001 q 440 1053 382 1053 q 549 1005 514 1053 q 583 882 583 957 q 564 760 583 818 q 517 661 544 703 l 496 675 q 529 804 529 757 q 501 884 529 858 q 422 910 472 910 q 319 876 369 910 q 231 797 269 843 q 171 713 192 751 q 165 694 167 707 q 169 674 164 681 q 282 574 210 632 q 408 457 369 503 q 480 338 453 401 q 525 214 507 275 z "},"؞":{"ha":517,"x_min":100,"x_max":418,"o":"m 303 176 q 314 179 306 181 q 366 156 342 169 q 413 122 390 142 q 414 110 418 117 l 347 4 q 335 7 344 0 q 313 21 331 10 q 265 50 296 32 l 217 -28 q 203 -25 213 -33 q 174 -6 197 -21 q 106 36 150 10 q 104 44 100 40 l 172 144 q 183 147 175 149 q 222 131 203 140 q 257 110 240 122 l 303 176 m 207 321 q 218 324 210 325 q 270 300 246 314 q 317 267 294 286 q 319 254 324 260 l 253 149 q 239 151 249 143 q 210 171 233 156 q 142 213 186 186 q 139 221 135 217 l 207 321 z "},"؟":{"ha":574,"x_min":15,"x_max":496,"o":"m 447 721 q 383 861 453 815 q 288 889 342 889 q 200 853 228 886 q 206 661 135 779 q 277 506 253 585 q 304 350 301 428 q 304 286 306 315 q 297 233 303 257 q 279 217 293 217 q 264 238 263 217 q 265 265 265 251 q 265 292 265 279 q 225 399 265 363 q 58 594 81 522 q 90 835 15 729 q 292 929 158 926 q 403 899 350 929 q 485 792 461 865 q 492 708 496 757 q 478 636 488 657 q 394 576 451 576 q 332 604 356 576 q 311 661 311 632 q 329 717 311 693 q 386 743 347 740 q 447 721 424 744 m 204 61 q 226 113 204 92 q 279 135 251 135 q 332 113 310 135 q 353 61 353 92 q 332 8 353 32 q 279 -15 311 -15 q 226 8 250 -15 q 204 61 204 31 z "},"ؠ":{"ha":1061,"x_min":75,"x_max":1006,"o":"m 932 400 q 721 374 847 444 q 606 235 638 325 q 608 199 600 218 q 786 124 638 132 q 942 61 936 115 q 879 -108 956 -46 q 425 -279 679 -268 q 89 -54 121 -292 q 142 201 75 54 q 183 276 161 242 q 229 342 204 311 q 251 344 243 358 q 250 319 258 332 q 161 6 113 126 q 439 -147 224 -151 q 867 -12 703 -143 q 868 7 881 -3 q 711 35 844 26 q 554 104 575 43 q 557 242 532 167 q 753 496 607 392 q 821 538 789 524 q 879 553 853 551 q 968 424 1006 561 q 932 400 957 385 m 590 -458 q 585 -515 590 -497 q 479 -582 567 -586 q 406 -485 397 -581 q 460 -357 417 -390 q 553 -365 506 -322 q 590 -458 588 -394 m 563 -493 q 493 -408 544 -411 q 447 -429 464 -407 q 436 -481 432 -451 q 486 -517 440 -512 q 557 -501 531 -521 q 563 -493 563 -497 z "},"ء":{"ha":529,"x_min":78,"x_max":450,"o":"m 428 174 q 410 146 421 153 q 294 93 358 128 q 151 6 229 58 q 129 6 138 -3 q 126 10 126 8 q 192 101 114 35 q 88 211 78 143 q 174 360 93 267 q 256 414 222 414 q 319 336 326 414 q 301 283 318 311 q 267 276 286 257 q 176 297 204 336 q 226 217 147 254 q 338 206 275 193 q 381 224 357 210 q 404 235 393 231 q 424 242 415 240 q 439 210 450 246 l 428 174 z "},"ﺀ":{"ha":529,"x_min":78,"x_max":450,"o":"m 428 174 q 410 146 421 153 q 294 93 358 128 q 151 6 229 58 q 129 6 138 -3 q 126 10 126 8 q 192 101 114 35 q 88 211 78 143 q 174 360 93 267 q 256 414 222 414 q 319 336 326 414 q 301 283 318 311 q 267 276 286 257 q 176 297 204 336 q 226 217 147 254 q 338 206 275 193 q 381 224 357 210 q 404 235 393 231 q 424 242 415 240 q 439 210 450 246 l 428 174 z "},"آ":{"ha":301,"x_min":-208,"x_max":426,"o":"m 124 931 q 161 933 153 999 l 193 593 q 181 10 246 133 q 165 1 171 -7 q 160 25 160 8 q 143 288 163 142 q 114 551 143 293 l 83 803 q 89 850 81 831 l 124 931 m 385 1260 q 418 1244 410 1265 q 406 1210 426 1224 q -79 1122 256 1113 q -104 1081 -92 1096 q -124 1075 -115 1067 l -189 1142 q -146 1231 -208 1158 q -107 1239 -133 1243 q 385 1260 140 1199 z "},"ﺁ":{"ha":301,"x_min":-208,"x_max":426,"o":"m 124 931 q 161 933 153 999 l 193 593 q 181 10 246 133 q 165 1 171 -7 q 160 25 160 8 q 143 288 163 142 q 114 551 143 293 l 83 803 q 89 850 81 831 l 124 931 m 385 1260 q 418 1244 410 1265 q 406 1210 426 1224 q -79 1122 256 1113 q -104 1081 -92 1096 q -124 1075 -115 1067 l -189 1142 q -146 1231 -208 1158 q -107 1239 -133 1243 q 385 1260 140 1199 z "},"أ":{"ha":325,"x_min":0,"x_max":318,"o":"m 140 931 q 178 933 169 999 l 210 593 q 197 10 263 133 q 182 1 188 -7 q 176 25 176 8 q 160 288 179 142 q 131 551 160 293 l 100 803 q 106 850 97 831 l 140 931 m 267 1128 q 202 1115 229 1121 q 160 1104 175 1110 q 115 1087 144 1099 q 43 1056 86 1075 q 17 1061 25 1047 q 71 1129 0 1086 q 13 1188 19 1154 q 60 1325 1 1246 q 183 1399 118 1404 q 221 1351 225 1394 q 196 1279 217 1308 q 163 1272 176 1251 q 121 1299 147 1297 q 78 1282 93 1301 q 79 1246 61 1261 q 215 1200 125 1203 q 233 1202 222 1200 q 257 1207 243 1204 q 282 1212 272 1210 q 297 1214 292 1214 q 314 1204 310 1214 q 315 1189 318 1196 q 267 1128 288 1132 z "},"ﺃ":{"ha":325,"x_min":0,"x_max":318,"o":"m 140 931 q 178 933 169 999 l 210 593 q 197 10 263 133 q 182 1 188 -7 q 176 25 176 8 q 160 288 179 142 q 131 551 160 293 l 100 803 q 106 850 97 831 l 140 931 m 267 1128 q 202 1115 229 1121 q 160 1104 175 1110 q 115 1087 144 1099 q 43 1056 86 1075 q 17 1061 25 1047 q 71 1129 0 1086 q 13 1188 19 1154 q 60 1325 1 1246 q 183 1399 118 1404 q 221 1351 225 1394 q 196 1279 217 1308 q 163 1272 176 1251 q 121 1299 147 1297 q 78 1282 93 1301 q 79 1246 61 1261 q 215 1200 125 1203 q 233 1202 222 1200 q 257 1207 243 1204 q 282 1212 272 1210 q 297 1214 292 1214 q 314 1204 310 1214 q 315 1189 318 1196 q 267 1128 288 1132 z "},"ؤ":{"ha":556,"x_min":-117,"x_max":478,"o":"m 235 269 q 349 403 283 404 q 424 347 389 403 q 451 289 442 319 q 467 224 461 258 q 446 31 478 154 q 324 -196 414 -93 q 178 -306 232 -300 q 31 -297 122 -311 q -48 -281 -15 -290 q -101 -264 -81 -272 q -115 -247 -117 -257 q -97 -239 -112 -236 q 110 -231 11 -254 q 181 -196 139 -224 q 279 -119 224 -168 q 368 -31 335 -71 q 411 43 401 10 q 394 107 404 101 q 260 67 342 25 q 235 269 178 108 m 361 218 q 275 224 321 283 q 361 218 310 185 m 381 633 q 316 621 343 626 q 274 610 289 615 q 229 592 258 604 q 157 561 200 581 q 131 567 139 553 q 185 635 114 592 q 126 693 133 660 q 174 831 115 751 q 297 904 232 910 q 335 857 339 900 q 310 785 331 814 q 276 778 290 757 q 235 804 261 803 q 192 788 207 807 q 193 751 175 767 q 329 706 239 708 q 347 708 336 706 q 371 713 357 710 q 396 717 386 715 q 411 719 406 719 q 428 710 424 719 q 429 694 432 701 q 381 633 401 638 z "},"ﺅ":{"ha":556,"x_min":-117,"x_max":478,"o":"m 235 269 q 349 403 283 404 q 424 347 389 403 q 451 289 442 319 q 467 224 461 258 q 446 31 478 154 q 324 -196 414 -93 q 178 -306 232 -300 q 31 -297 122 -311 q -48 -281 -15 -290 q -101 -264 -81 -272 q -115 -247 -117 -257 q -97 -239 -112 -236 q 110 -231 11 -254 q 181 -196 139 -224 q 279 -119 224 -168 q 368 -31 335 -71 q 411 43 401 10 q 394 107 404 101 q 260 67 342 25 q 235 269 178 108 m 361 218 q 275 224 321 283 q 361 218 310 185 m 381 633 q 316 621 343 626 q 274 610 289 615 q 229 592 258 604 q 157 561 200 581 q 131 567 139 553 q 185 635 114 592 q 126 693 133 660 q 174 831 115 751 q 297 904 232 910 q 335 857 339 900 q 310 785 331 814 q 276 778 290 757 q 235 804 261 803 q 192 788 207 807 q 193 751 175 767 q 329 706 239 708 q 347 708 336 706 q 371 713 357 710 q 396 717 386 715 q 411 719 406 719 q 428 710 424 719 q 429 694 432 701 q 381 633 401 638 z "},"إ":{"ha":301,"x_min":60,"x_max":378,"o":"m 124 931 q 161 933 153 999 l 193 593 q 181 10 246 133 q 165 1 171 -7 q 160 25 160 8 q 143 288 163 142 q 114 551 143 293 l 83 803 q 89 850 81 831 l 124 931 m 326 -326 q 262 -339 289 -333 q 219 -350 235 -344 q 175 -367 204 -356 q 103 -399 146 -379 q 76 -393 85 -407 q 131 -325 60 -368 q 72 -267 79 -300 q 119 -129 61 -208 q 243 -56 178 -50 q 281 -103 285 -60 q 256 -175 276 -146 q 222 -182 236 -203 q 181 -156 207 -157 q 138 -172 153 -153 q 139 -208 121 -193 q 275 -254 185 -251 q 292 -252 282 -254 q 317 -247 303 -250 q 342 -242 332 -244 q 357 -240 351 -240 q 374 -250 369 -240 q 375 -265 378 -258 q 326 -326 347 -322 z "},"ﺇ":{"ha":301,"x_min":60,"x_max":378,"o":"m 124 931 q 161 933 153 999 l 193 593 q 181 10 246 133 q 165 1 171 -7 q 160 25 160 8 q 143 288 163 142 q 114 551 143 293 l 83 803 q 89 850 81 831 l 124 931 m 326 -326 q 262 -339 289 -333 q 219 -350 235 -344 q 175 -367 204 -356 q 103 -399 146 -379 q 76 -393 85 -407 q 131 -325 60 -368 q 72 -267 79 -300 q 119 -129 61 -208 q 243 -56 178 -50 q 281 -103 285 -60 q 256 -175 276 -146 q 222 -182 236 -203 q 181 -156 207 -157 q 138 -172 153 -153 q 139 -208 121 -193 q 275 -254 185 -251 q 292 -252 282 -254 q 317 -247 303 -250 q 342 -242 332 -244 q 357 -240 351 -240 q 374 -250 369 -240 q 375 -265 378 -258 q 326 -326 347 -322 z "},"ئ":{"ha":1061,"x_min":75,"x_max":1006,"o":"m 932 400 q 721 374 847 444 q 606 235 638 325 q 608 199 600 218 q 786 124 638 132 q 942 61 936 115 q 879 -108 956 -46 q 425 -279 679 -268 q 89 -54 121 -292 q 142 201 75 54 q 183 276 161 242 q 229 342 204 311 q 251 344 243 358 q 250 319 258 332 q 161 6 113 126 q 439 -147 224 -151 q 867 -12 703 -143 q 868 7 881 -3 q 711 35 844 26 q 554 104 575 43 q 557 242 532 167 q 753 496 607 392 q 821 538 789 524 q 879 553 853 551 q 968 424 1006 561 q 932 400 957 385 m 364 583 q 299 571 326 576 q 257 560 272 565 q 213 542 242 554 q 140 511 183 531 q 114 517 122 503 q 168 585 97 542 q 110 643 117 610 q 157 781 99 701 q 281 854 215 860 q 318 807 322 850 q 293 735 314 764 q 260 728 274 707 q 218 754 244 753 q 175 738 190 757 q 176 701 158 717 q 313 656 222 658 q 330 658 319 656 q 354 663 340 660 q 379 667 369 665 q 394 669 389 669 q 411 660 407 669 q 413 644 415 651 q 364 583 385 588 z "},"ﺉ":{"ha":1061,"x_min":75,"x_max":1006,"o":"m 932 400 q 721 374 847 444 q 606 235 638 325 q 608 199 600 218 q 786 124 638 132 q 942 61 936 115 q 879 -108 956 -46 q 425 -279 679 -268 q 89 -54 121 -292 q 142 201 75 54 q 183 276 161 242 q 229 342 204 311 q 251 344 243 358 q 250 319 258 332 q 161 6 113 126 q 439 -147 224 -151 q 867 -12 703 -143 q 868 7 881 -3 q 711 35 844 26 q 554 104 575 43 q 557 242 532 167 q 753 496 607 392 q 821 538 789 524 q 879 553 853 551 q 968 424 1006 561 q 932 400 957 385 m 364 583 q 299 571 326 576 q 257 560 272 565 q 213 542 242 554 q 140 511 183 531 q 114 517 122 503 q 168 585 97 542 q 110 643 117 610 q 157 781 99 701 q 281 854 215 860 q 318 807 322 850 q 293 735 314 764 q 260 728 274 707 q 218 754 244 753 q 175 738 190 757 q 176 701 158 717 q 313 656 222 658 q 330 658 319 656 q 354 663 340 660 q 379 667 369 665 q 394 669 389 669 q 411 660 407 669 q 413 644 415 651 q 364 583 385 588 z "},"ا":{"ha":301,"x_min":81,"x_max":246,"o":"m 124 931 q 161 933 153 999 l 193 593 q 181 10 246 133 q 165 1 171 -7 q 160 25 160 8 q 143 288 163 142 q 114 551 143 293 l 83 803 q 89 850 81 831 l 124 931 z "},"ﺍ":{"ha":301,"x_min":81,"x_max":246,"o":"m 124 931 q 161 933 153 999 l 193 593 q 181 10 246 133 q 165 1 171 -7 q 160 25 160 8 q 143 288 163 142 q 114 551 143 293 l 83 803 q 89 850 81 831 l 124 931 z "},"ب":{"ha":1286,"x_min":58,"x_max":1207,"o":"m 1140 517 q 1173 463 1160 494 q 1193 390 1186 431 q 1190 235 1207 311 q 1135 138 1174 160 q 885 36 1024 74 q 579 -10 746 -1 q 132 115 246 -26 q 110 328 58 207 q 140 380 121 353 q 185 436 158 407 q 203 443 193 446 q 213 432 210 442 q 208 417 215 424 q 168 357 183 389 q 161 300 154 326 q 564 126 210 119 q 887 163 742 129 q 1146 263 1032 197 q 1079 396 1142 317 q 1082 429 1076 400 q 1083 433 1083 432 q 1114 517 1090 467 q 1140 517 1122 536 m 656 -190 q 667 -187 658 -186 q 765 -246 722 -207 q 767 -257 771 -251 l 701 -362 q 688 -361 697 -369 q 658 -342 682 -357 q 590 -300 635 -326 q 588 -292 583 -296 l 656 -190 z "},"ﺏ":{"ha":1286,"x_min":58,"x_max":1207,"o":"m 1140 517 q 1173 463 1160 494 q 1193 390 1186 431 q 1190 235 1207 311 q 1135 138 1174 160 q 885 36 1024 74 q 579 -10 746 -1 q 132 115 246 -26 q 110 328 58 207 q 140 380 121 353 q 185 436 158 407 q 203 443 193 446 q 213 432 210 442 q 208 417 215 424 q 168 357 183 389 q 161 300 154 326 q 564 126 210 119 q 887 163 742 129 q 1146 263 1032 197 q 1079 396 1142 317 q 1082 429 1076 400 q 1083 433 1083 432 q 1114 517 1090 467 q 1140 517 1122 536 m 656 -190 q 667 -187 658 -186 q 765 -246 722 -207 q 767 -257 771 -251 l 701 -362 q 688 -361 697 -369 q 658 -342 682 -357 q 590 -300 635 -326 q 588 -292 583 -296 l 656 -190 z "},"ة":{"ha":513,"x_min":74,"x_max":440,"o":"m 219 453 q 276 449 242 468 q 403 315 365 397 q 421 147 440 235 q 350 15 403 64 q 229 -33 297 -33 q 104 33 135 -36 q 103 213 74 101 q 210 415 132 325 q 213 433 213 418 q 219 453 213 450 m 351 154 q 344 196 368 167 q 221 274 279 276 q 171 233 192 274 q 156 171 150 193 q 236 119 168 119 q 351 154 307 119 m 297 851 q 308 854 300 856 q 360 831 336 844 q 407 797 385 817 q 408 785 413 792 l 342 679 q 329 682 339 675 q 306 698 325 686 q 250 731 286 710 l 197 649 q 183 650 193 642 q 154 669 178 654 q 86 711 131 685 q 85 719 81 715 l 153 821 q 164 824 156 825 q 208 805 188 817 q 247 778 229 793 l 297 851 z "},"ﺓ":{"ha":513,"x_min":74,"x_max":440,"o":"m 219 453 q 276 449 242 468 q 403 315 365 397 q 421 147 440 235 q 350 15 403 64 q 229 -33 297 -33 q 104 33 135 -36 q 103 213 74 101 q 210 415 132 325 q 213 433 213 418 q 219 453 213 450 m 351 154 q 344 196 368 167 q 221 274 279 276 q 171 233 192 274 q 156 171 150 193 q 236 119 168 119 q 351 154 307 119 m 297 851 q 308 854 300 856 q 360 831 336 844 q 407 797 385 817 q 408 785 413 792 l 342 679 q 329 682 339 675 q 306 698 325 686 q 250 731 286 710 l 197 649 q 183 650 193 642 q 154 669 178 654 q 86 711 131 685 q 85 719 81 715 l 153 821 q 164 824 156 825 q 208 805 188 817 q 247 778 229 793 l 297 851 z "},"ت":{"ha":1286,"x_min":58,"x_max":1207,"o":"m 1140 517 q 1173 463 1160 494 q 1193 390 1186 431 q 1190 235 1207 311 q 1135 138 1174 160 q 885 36 1024 74 q 579 -10 746 -1 q 132 115 246 -26 q 110 328 58 207 q 140 380 121 353 q 185 436 158 407 q 203 443 193 446 q 213 432 210 442 q 208 417 215 424 q 168 357 183 389 q 161 300 154 326 q 564 126 210 119 q 887 163 742 129 q 1146 263 1032 197 q 1079 396 1142 317 q 1082 429 1076 400 q 1083 433 1083 432 q 1114 517 1090 467 q 1140 517 1122 536 m 688 701 q 699 704 690 706 q 751 681 726 694 q 797 647 775 667 q 799 635 803 642 l 732 529 q 719 532 729 525 q 696 548 715 536 q 640 581 676 560 l 588 499 q 574 500 583 492 q 544 519 568 504 q 476 561 521 535 q 475 569 471 565 l 543 671 q 554 674 546 675 q 599 655 578 667 q 638 628 619 643 l 688 701 z "},"ﺕ":{"ha":1286,"x_min":58,"x_max":1207,"o":"m 1140 517 q 1173 463 1160 494 q 1193 390 1186 431 q 1190 235 1207 311 q 1135 138 1174 160 q 885 36 1024 74 q 579 -10 746 -1 q 132 115 246 -26 q 110 328 58 207 q 140 380 121 353 q 185 436 158 407 q 203 443 193 446 q 213 432 210 442 q 208 417 215 424 q 168 357 183 389 q 161 300 154 326 q 564 126 210 119 q 887 163 742 129 q 1146 263 1032 197 q 1079 396 1142 317 q 1082 429 1076 400 q 1083 433 1083 432 q 1114 517 1090 467 q 1140 517 1122 536 m 688 701 q 699 704 690 706 q 751 681 726 694 q 797 647 775 667 q 799 635 803 642 l 732 529 q 719 532 729 525 q 696 548 715 536 q 640 581 676 560 l 588 499 q 574 500 583 492 q 544 519 568 504 q 476 561 521 535 q 475 569 471 565 l 543 671 q 554 674 546 675 q 599 655 578 667 q 638 628 619 643 l 688 701 z "},"ث":{"ha":1286,"x_min":58,"x_max":1207,"o":"m 1140 517 q 1173 463 1160 494 q 1193 390 1186 431 q 1190 235 1207 311 q 1135 138 1174 160 q 885 36 1024 74 q 579 -10 746 -1 q 132 115 246 -26 q 110 328 58 207 q 140 380 121 353 q 185 436 158 407 q 203 443 193 446 q 213 432 210 442 q 208 417 215 424 q 168 357 183 389 q 161 300 154 326 q 564 126 210 119 q 887 163 742 129 q 1146 263 1032 197 q 1079 396 1142 317 q 1082 429 1076 400 q 1083 433 1083 432 q 1114 517 1090 467 q 1140 517 1122 536 m 682 701 q 693 704 685 706 q 745 681 721 694 q 792 647 769 667 q 793 635 797 642 l 726 529 q 714 532 724 525 q 692 546 710 535 q 644 575 675 557 l 596 497 q 582 500 592 492 q 553 519 576 504 q 485 561 529 535 q 483 569 479 565 l 551 669 q 563 672 554 674 q 601 656 582 665 q 636 635 619 647 l 682 701 m 586 846 q 597 849 589 850 q 649 825 625 839 q 696 792 674 811 q 699 779 703 785 l 632 674 q 618 676 628 668 q 589 696 613 681 q 521 738 565 711 q 518 746 514 742 l 586 846 z "},"ﺙ":{"ha":1286,"x_min":58,"x_max":1207,"o":"m 1140 517 q 1173 463 1160 494 q 1193 390 1186 431 q 1190 235 1207 311 q 1135 138 1174 160 q 885 36 1024 74 q 579 -10 746 -1 q 132 115 246 -26 q 110 328 58 207 q 140 380 121 353 q 185 436 158 407 q 203 443 193 446 q 213 432 210 442 q 208 417 215 424 q 168 357 183 389 q 161 300 154 326 q 564 126 210 119 q 887 163 742 129 q 1146 263 1032 197 q 1079 396 1142 317 q 1082 429 1076 400 q 1083 433 1083 432 q 1114 517 1090 467 q 1140 517 1122 536 m 682 701 q 693 704 685 706 q 745 681 721 694 q 792 647 769 667 q 793 635 797 642 l 726 529 q 714 532 724 525 q 692 546 710 535 q 644 575 675 557 l 596 497 q 582 500 592 492 q 553 519 576 504 q 485 561 529 535 q 483 569 479 565 l 551 669 q 563 672 554 674 q 601 656 582 665 q 636 635 619 647 l 682 701 m 586 846 q 597 849 589 850 q 649 825 625 839 q 696 792 674 811 q 699 779 703 785 l 632 674 q 618 676 628 668 q 589 696 613 681 q 521 738 565 711 q 518 746 514 742 l 586 846 z "},"ج":{"ha":918,"x_min":39,"x_max":1054,"o":"m 879 314 l 846 239 q 831 226 840 228 q 365 96 497 183 q 161 -317 106 -75 q 361 -525 193 -450 q 651 -578 454 -565 q 843 -582 750 -583 q 1021 -574 936 -581 q 1049 -579 1043 -571 q 1049 -597 1054 -587 q 1041 -605 1046 -603 q 1031 -610 1036 -607 q 899 -664 946 -635 q 841 -696 864 -686 q 810 -707 818 -706 q 221 -611 401 -742 q 104 -197 39 -479 q 440 215 169 88 q 160 206 256 261 q 143 203 150 201 q 136 213 136 204 q 150 281 139 247 q 283 360 175 354 q 454 339 338 363 q 653 318 571 315 q 743 324 693 319 q 853 339 793 329 q 879 314 893 344 m 521 -136 q 532 -133 524 -132 q 631 -192 588 -153 q 632 -203 636 -197 l 567 -308 q 553 -307 563 -315 q 524 -287 547 -303 q 456 -246 500 -272 q 453 -237 449 -242 l 521 -136 z "},"ﺝ":{"ha":918,"x_min":39,"x_max":1054,"o":"m 879 314 l 846 239 q 831 226 840 228 q 365 96 497 183 q 161 -317 106 -75 q 361 -525 193 -450 q 651 -578 454 -565 q 843 -582 750 -583 q 1021 -574 936 -581 q 1049 -579 1043 -571 q 1049 -597 1054 -587 q 1041 -605 1046 -603 q 1031 -610 1036 -607 q 899 -664 946 -635 q 841 -696 864 -686 q 810 -707 818 -706 q 221 -611 401 -742 q 104 -197 39 -479 q 440 215 169 88 q 160 206 256 261 q 143 203 150 201 q 136 213 136 204 q 150 281 139 247 q 283 360 175 354 q 454 339 338 363 q 653 318 571 315 q 743 324 693 319 q 853 339 793 329 q 879 314 893 344 m 521 -136 q 532 -133 524 -132 q 631 -192 588 -153 q 632 -203 636 -197 l 567 -308 q 553 -307 563 -315 q 524 -287 547 -303 q 456 -246 500 -272 q 453 -237 449 -242 l 521 -136 z "},"ح":{"ha":918,"x_min":39,"x_max":1054,"o":"m 879 314 l 846 239 q 831 226 840 228 q 365 96 497 183 q 161 -317 106 -75 q 361 -525 193 -450 q 651 -578 454 -565 q 843 -582 750 -583 q 1021 -574 936 -581 q 1049 -579 1043 -571 q 1049 -597 1054 -587 q 1041 -605 1046 -603 q 1031 -610 1036 -607 q 899 -664 946 -635 q 841 -696 864 -686 q 810 -707 818 -706 q 221 -611 401 -742 q 104 -197 39 -479 q 440 215 169 88 q 160 206 256 261 q 143 203 150 201 q 136 213 136 204 q 150 281 139 247 q 283 360 175 354 q 454 339 338 363 q 653 318 571 315 q 743 324 693 319 q 853 339 793 329 q 879 314 893 344 z "},"ﺡ":{"ha":918,"x_min":39,"x_max":1054,"o":"m 879 314 l 846 239 q 831 226 840 228 q 365 96 497 183 q 161 -317 106 -75 q 361 -525 193 -450 q 651 -578 454 -565 q 843 -582 750 -583 q 1021 -574 936 -581 q 1049 -579 1043 -571 q 1049 -597 1054 -587 q 1041 -605 1046 -603 q 1031 -610 1036 -607 q 899 -664 946 -635 q 841 -696 864 -686 q 810 -707 818 -706 q 221 -611 401 -742 q 104 -197 39 -479 q 440 215 169 88 q 160 206 256 261 q 143 203 150 201 q 136 213 136 204 q 150 281 139 247 q 283 360 175 354 q 454 339 338 363 q 653 318 571 315 q 743 324 693 319 q 853 339 793 329 q 879 314 893 344 z "},"خ":{"ha":918,"x_min":39,"x_max":1054,"o":"m 879 314 l 846 239 q 831 226 840 228 q 365 96 497 183 q 161 -317 106 -75 q 361 -525 193 -450 q 651 -578 454 -565 q 843 -582 750 -583 q 1021 -574 936 -581 q 1049 -579 1043 -571 q 1049 -597 1054 -587 q 1041 -605 1046 -603 q 1031 -610 1036 -607 q 899 -664 946 -635 q 841 -696 864 -686 q 810 -707 818 -706 q 221 -611 401 -742 q 104 -197 39 -479 q 440 215 169 88 q 160 206 256 261 q 143 203 150 201 q 136 213 136 204 q 150 281 139 247 q 283 360 175 354 q 454 339 338 363 q 653 318 571 315 q 743 324 693 319 q 853 339 793 329 q 879 314 893 344 m 453 692 q 464 694 456 696 q 563 636 519 675 q 564 625 568 631 l 499 519 q 485 521 494 513 q 456 540 479 525 q 388 582 432 556 q 385 590 381 586 l 453 692 z "},"ﺥ":{"ha":918,"x_min":39,"x_max":1054,"o":"m 879 314 l 846 239 q 831 226 840 228 q 365 96 497 183 q 161 -317 106 -75 q 361 -525 193 -450 q 651 -578 454 -565 q 843 -582 750 -583 q 1021 -574 936 -581 q 1049 -579 1043 -571 q 1049 -597 1054 -587 q 1041 -605 1046 -603 q 1031 -610 1036 -607 q 899 -664 946 -635 q 841 -696 864 -686 q 810 -707 818 -706 q 221 -611 401 -742 q 104 -197 39 -479 q 440 215 169 88 q 160 206 256 261 q 143 203 150 201 q 136 213 136 204 q 150 281 139 247 q 283 360 175 354 q 454 339 338 363 q 653 318 571 315 q 743 324 693 319 q 853 339 793 329 q 879 314 893 344 m 453 692 q 464 694 456 696 q 563 636 519 675 q 564 625 568 631 l 499 519 q 485 521 494 513 q 456 540 479 525 q 388 582 432 556 q 385 590 381 586 l 453 692 z "},"د":{"ha":625,"x_min":85,"x_max":532,"o":"m 236 447 q 258 503 247 482 q 276 535 268 525 q 308 538 289 549 q 524 264 492 436 q 531 174 532 217 q 517 94 529 131 q 488 61 508 74 q 349 10 422 26 q 196 -8 275 -7 q 118 133 85 -11 q 135 151 122 149 q 156 142 144 151 q 260 129 183 119 q 481 182 426 150 q 483 199 485 185 q 257 415 458 338 q 236 447 229 426 z "},"ﺩ":{"ha":625,"x_min":85,"x_max":532,"o":"m 236 447 q 258 503 247 482 q 276 535 268 525 q 308 538 289 549 q 524 264 492 436 q 531 174 532 217 q 517 94 529 131 q 488 61 508 74 q 349 10 422 26 q 196 -8 275 -7 q 118 133 85 -11 q 135 151 122 149 q 156 142 144 151 q 260 129 183 119 q 481 182 426 150 q 483 199 485 185 q 257 415 458 338 q 236 447 229 426 z "},"ذ":{"ha":625,"x_min":85,"x_max":532,"o":"m 236 447 q 258 503 247 482 q 276 535 268 525 q 308 538 289 549 q 524 264 492 436 q 531 174 532 217 q 517 94 529 131 q 488 61 508 74 q 349 10 422 26 q 196 -8 275 -7 q 118 133 85 -11 q 135 151 122 149 q 156 142 144 151 q 260 129 183 119 q 481 182 426 150 q 483 199 485 185 q 257 415 458 338 q 236 447 229 426 m 263 896 q 274 899 265 900 q 372 840 329 879 q 374 829 378 835 l 308 724 q 294 725 304 717 q 265 744 289 729 q 197 786 242 760 q 194 794 190 790 l 263 896 z "},"ﺫ":{"ha":625,"x_min":85,"x_max":532,"o":"m 236 447 q 258 503 247 482 q 276 535 268 525 q 308 538 289 549 q 524 264 492 436 q 531 174 532 217 q 517 94 529 131 q 488 61 508 74 q 349 10 422 26 q 196 -8 275 -7 q 118 133 85 -11 q 135 151 122 149 q 156 142 144 151 q 260 129 183 119 q 481 182 426 150 q 483 199 485 185 q 257 415 458 338 q 236 447 229 426 m 263 896 q 274 899 265 900 q 372 840 329 879 q 374 829 378 835 l 308 724 q 294 725 304 717 q 265 744 289 729 q 197 786 242 760 q 194 794 190 790 l 263 896 z "},"ر":{"ha":554,"x_min":-115,"x_max":475,"o":"m 342 388 q 346 394 343 393 q 367 383 353 397 q 447 235 421 328 q 467 49 475 139 q 369 -176 450 -74 q 158 -314 289 -281 q 92 -312 125 -324 q -40 -265 11 -285 q -110 -232 -90 -244 q -115 -224 -115 -228 q -111 -214 -115 -218 q -99 -212 -107 -210 q -10 -231 -50 -226 q 65 -232 31 -236 q 140 -212 100 -228 q 224 -167 179 -196 q 417 33 356 -82 q 419 56 422 42 q 311 238 399 129 q 308 249 307 244 l 342 388 z "},"ﺭ":{"ha":554,"x_min":-115,"x_max":475,"o":"m 342 388 q 346 394 343 393 q 367 383 353 397 q 447 235 421 328 q 467 49 475 139 q 369 -176 450 -74 q 158 -314 289 -281 q 92 -312 125 -324 q -40 -265 11 -285 q -110 -232 -90 -244 q -115 -224 -115 -228 q -111 -214 -115 -218 q -99 -212 -107 -210 q -10 -231 -50 -226 q 65 -232 31 -236 q 140 -212 100 -228 q 224 -167 179 -196 q 417 33 356 -82 q 419 56 422 42 q 311 238 399 129 q 308 249 307 244 l 342 388 z "},"ز":{"ha":554,"x_min":-115,"x_max":475,"o":"m 342 388 q 346 394 343 393 q 367 383 353 397 q 447 235 421 328 q 467 49 475 139 q 369 -176 450 -74 q 158 -314 289 -281 q 92 -312 125 -324 q -40 -265 11 -285 q -110 -232 -90 -244 q -115 -224 -115 -228 q -111 -214 -115 -218 q -99 -212 -107 -210 q -10 -231 -50 -226 q 65 -232 31 -236 q 140 -212 100 -228 q 224 -167 179 -196 q 417 33 356 -82 q 419 56 422 42 q 311 238 399 129 q 308 249 307 244 l 342 388 m 200 819 q 211 822 203 824 q 310 764 267 803 q 311 753 315 758 l 246 647 q 232 649 242 640 q 203 668 226 653 q 135 710 179 683 q 132 718 128 714 l 200 819 z "},"ﺯ":{"ha":554,"x_min":-115,"x_max":475,"o":"m 342 388 q 346 394 343 393 q 367 383 353 397 q 447 235 421 328 q 467 49 475 139 q 369 -176 450 -74 q 158 -314 289 -281 q 92 -312 125 -324 q -40 -265 11 -285 q -110 -232 -90 -244 q -115 -224 -115 -228 q -111 -214 -115 -218 q -99 -212 -107 -210 q -10 -231 -50 -226 q 65 -232 31 -236 q 140 -212 100 -228 q 224 -167 179 -196 q 417 33 356 -82 q 419 56 422 42 q 311 238 399 129 q 308 249 307 244 l 342 388 m 200 819 q 211 822 203 824 q 310 764 267 803 q 311 753 315 758 l 246 647 q 232 649 242 640 q 203 668 226 653 q 135 710 179 683 q 132 718 128 714 l 200 819 z "},"س":{"ha":1378,"x_min":79,"x_max":1290,"o":"m 1240 504 q 1254 518 1244 518 q 1272 507 1267 518 q 1290 413 1290 476 q 1242 232 1290 313 q 1208 206 1228 210 q 1057 246 1143 193 q 878 150 993 133 q 866 40 875 90 q 842 -56 857 -11 q 739 -200 814 -140 q 388 -319 582 -324 q 94 -121 151 -314 q 100 35 79 -65 q 185 254 121 136 q 197 263 189 263 q 210 257 206 263 q 210 242 214 250 q 140 15 122 74 q 401 -172 190 -165 q 813 14 689 -181 q 758 256 821 122 q 754 278 750 269 q 782 334 769 310 q 804 372 794 358 q 817 374 810 381 q 828 360 819 371 q 847 329 836 349 q 881 288 871 289 q 1025 331 953 272 q 1076 458 1051 353 q 1088 472 1078 468 q 1103 472 1096 476 q 1104 392 1117 463 q 1228 358 1158 351 q 1221 388 1228 381 q 1215 404 1213 396 l 1240 504 z "},"ﺱ":{"ha":1378,"x_min":79,"x_max":1290,"o":"m 1240 504 q 1254 518 1244 518 q 1272 507 1267 518 q 1290 413 1290 476 q 1242 232 1290 313 q 1208 206 1228 210 q 1057 246 1143 193 q 878 150 993 133 q 866 40 875 90 q 842 -56 857 -11 q 739 -200 814 -140 q 388 -319 582 -324 q 94 -121 151 -314 q 100 35 79 -65 q 185 254 121 136 q 197 263 189 263 q 210 257 206 263 q 210 242 214 250 q 140 15 122 74 q 401 -172 190 -165 q 813 14 689 -181 q 758 256 821 122 q 754 278 750 269 q 782 334 769 310 q 804 372 794 358 q 817 374 810 381 q 828 360 819 371 q 847 329 836 349 q 881 288 871 289 q 1025 331 953 272 q 1076 458 1051 353 q 1088 472 1078 468 q 1103 472 1096 476 q 1104 392 1117 463 q 1228 358 1158 351 q 1221 388 1228 381 q 1215 404 1213 396 l 1240 504 z "},"ش":{"ha":1378,"x_min":79,"x_max":1290,"o":"m 1240 504 q 1254 518 1244 518 q 1272 507 1267 518 q 1290 413 1290 476 q 1242 232 1290 313 q 1208 206 1228 210 q 1057 246 1143 193 q 878 150 993 133 q 866 40 875 90 q 842 -56 857 -11 q 739 -200 814 -140 q 388 -319 582 -324 q 94 -121 151 -314 q 100 35 79 -65 q 185 254 121 136 q 197 263 189 263 q 210 257 206 263 q 210 242 214 250 q 140 15 122 74 q 401 -172 190 -165 q 813 14 689 -181 q 758 256 821 122 q 754 278 750 269 q 782 334 769 310 q 804 372 794 358 q 817 374 810 381 q 828 360 819 371 q 847 329 836 349 q 881 288 871 289 q 1025 331 953 272 q 1076 458 1051 353 q 1088 472 1078 468 q 1103 472 1096 476 q 1104 392 1117 463 q 1228 358 1158 351 q 1221 388 1228 381 q 1215 404 1213 396 l 1240 504 m 1081 838 q 1092 840 1083 842 q 1144 817 1119 831 q 1190 783 1168 803 q 1192 771 1196 778 l 1125 665 q 1113 668 1122 661 q 1091 682 1108 671 q 1043 711 1074 693 l 994 633 q 981 636 990 628 q 951 656 975 640 q 883 697 928 671 q 882 706 878 701 l 950 806 q 961 808 953 810 q 999 792 981 801 q 1035 771 1018 783 l 1081 838 m 985 982 q 996 985 988 986 q 1048 961 1024 975 q 1094 928 1072 947 q 1097 915 1101 921 l 1031 810 q 1017 813 1026 804 q 988 832 1011 817 q 919 874 964 847 q 917 882 913 878 l 985 982 z "},"ﺵ":{"ha":1378,"x_min":79,"x_max":1290,"o":"m 1240 504 q 1254 518 1244 518 q 1272 507 1267 518 q 1290 413 1290 476 q 1242 232 1290 313 q 1208 206 1228 210 q 1057 246 1143 193 q 878 150 993 133 q 866 40 875 90 q 842 -56 857 -11 q 739 -200 814 -140 q 388 -319 582 -324 q 94 -121 151 -314 q 100 35 79 -65 q 185 254 121 136 q 197 263 189 263 q 210 257 206 263 q 210 242 214 250 q 140 15 122 74 q 401 -172 190 -165 q 813 14 689 -181 q 758 256 821 122 q 754 278 750 269 q 782 334 769 310 q 804 372 794 358 q 817 374 810 381 q 828 360 819 371 q 847 329 836 349 q 881 288 871 289 q 1025 331 953 272 q 1076 458 1051 353 q 1088 472 1078 468 q 1103 472 1096 476 q 1104 392 1117 463 q 1228 358 1158 351 q 1221 388 1228 381 q 1215 404 1213 396 l 1240 504 m 1081 838 q 1092 840 1083 842 q 1144 817 1119 831 q 1190 783 1168 803 q 1192 771 1196 778 l 1125 665 q 1113 668 1122 661 q 1091 682 1108 671 q 1043 711 1074 693 l 994 633 q 981 636 990 628 q 951 656 975 640 q 883 697 928 671 q 882 706 878 701 l 950 806 q 961 808 953 810 q 999 792 981 801 q 1035 771 1018 783 l 1081 838 m 985 982 q 996 985 988 986 q 1048 961 1024 975 q 1094 928 1072 947 q 1097 915 1101 921 l 1031 810 q 1017 813 1026 804 q 988 832 1011 817 q 919 874 964 847 q 917 882 913 878 l 985 982 z "},"ص":{"ha":1683,"x_min":85,"x_max":1604,"o":"m 1443 546 q 1593 424 1547 547 q 1574 326 1604 385 q 1524 246 1543 268 q 1151 113 1424 135 q 869 129 997 100 q 781 -158 843 -94 q 414 -318 639 -304 q 99 -133 165 -335 q 88 -76 90 -107 q 90 -10 85 -44 q 118 109 99 51 q 167 219 138 167 q 191 260 179 242 q 213 292 203 278 q 228 299 219 301 q 239 289 238 296 q 236 272 240 282 q 199 201 215 243 q 168 14 156 96 q 400 -176 199 -169 q 733 -86 576 -181 q 810 4 785 -56 q 811 25 814 11 q 740 228 790 157 q 733 251 729 243 l 776 365 q 800 369 789 388 l 851 282 q 1008 249 899 253 q 1251 458 1129 371 q 1443 546 1375 546 m 1511 340 q 1329 393 1428 418 q 1074 247 1232 368 q 1511 340 1367 231 z "},"ﺹ":{"ha":1683,"x_min":85,"x_max":1604,"o":"m 1443 546 q 1593 424 1547 547 q 1574 326 1604 385 q 1524 246 1543 268 q 1151 113 1424 135 q 869 129 997 100 q 781 -158 843 -94 q 414 -318 639 -304 q 99 -133 165 -335 q 88 -76 90 -107 q 90 -10 85 -44 q 118 109 99 51 q 167 219 138 167 q 191 260 179 242 q 213 292 203 278 q 228 299 219 301 q 239 289 238 296 q 236 272 240 282 q 199 201 215 243 q 168 14 156 96 q 400 -176 199 -169 q 733 -86 576 -181 q 810 4 785 -56 q 811 25 814 11 q 740 228 790 157 q 733 251 729 243 l 776 365 q 800 369 789 388 l 851 282 q 1008 249 899 253 q 1251 458 1129 371 q 1443 546 1375 546 m 1511 340 q 1329 393 1428 418 q 1074 247 1232 368 q 1511 340 1367 231 z "},"ض":{"ha":1683,"x_min":85,"x_max":1604,"o":"m 1443 546 q 1593 424 1547 547 q 1574 326 1604 385 q 1524 246 1543 268 q 1151 113 1424 135 q 869 129 997 100 q 781 -158 843 -94 q 414 -318 639 -304 q 99 -133 165 -335 q 88 -76 90 -107 q 90 -10 85 -44 q 118 109 99 51 q 167 219 138 167 q 191 260 179 242 q 213 292 203 278 q 228 299 219 301 q 239 289 238 296 q 236 272 240 282 q 199 201 215 243 q 168 14 156 96 q 400 -176 199 -169 q 733 -86 576 -181 q 810 4 785 -56 q 811 25 814 11 q 740 228 790 157 q 733 251 729 243 l 776 365 q 800 369 789 388 l 851 282 q 1008 249 899 253 q 1251 458 1129 371 q 1443 546 1375 546 m 1511 340 q 1329 393 1428 418 q 1074 247 1232 368 q 1511 340 1367 231 m 1118 835 q 1129 838 1121 839 q 1228 779 1185 818 q 1229 768 1233 774 l 1164 663 q 1150 664 1160 656 q 1121 683 1144 668 q 1053 725 1097 699 q 1050 733 1046 729 l 1118 835 z "},"ﺽ":{"ha":1683,"x_min":85,"x_max":1604,"o":"m 1443 546 q 1593 424 1547 547 q 1574 326 1604 385 q 1524 246 1543 268 q 1151 113 1424 135 q 869 129 997 100 q 781 -158 843 -94 q 414 -318 639 -304 q 99 -133 165 -335 q 88 -76 90 -107 q 90 -10 85 -44 q 118 109 99 51 q 167 219 138 167 q 191 260 179 242 q 213 292 203 278 q 228 299 219 301 q 239 289 238 296 q 236 272 240 282 q 199 201 215 243 q 168 14 156 96 q 400 -176 199 -169 q 733 -86 576 -181 q 810 4 785 -56 q 811 25 814 11 q 740 228 790 157 q 733 251 729 243 l 776 365 q 800 369 789 388 l 851 282 q 1008 249 899 253 q 1251 458 1129 371 q 1443 546 1375 546 m 1511 340 q 1329 393 1428 418 q 1074 247 1232 368 q 1511 340 1367 231 m 1118 835 q 1129 838 1121 839 q 1228 779 1185 818 q 1229 768 1233 774 l 1164 663 q 1150 664 1160 656 q 1121 683 1144 668 q 1053 725 1097 699 q 1050 733 1046 729 l 1118 835 z "},"ط":{"ha":1100,"x_min":78,"x_max":1017,"o":"m 401 933 q 424 983 415 965 q 433 1004 432 1001 q 446 1011 438 1011 q 456 1003 453 1011 q 481 944 471 965 q 495 922 486 935 q 518 894 504 910 q 518 865 529 879 l 492 831 q 485 807 483 819 q 510 369 517 472 q 503 284 507 318 q 496 232 500 250 q 644 340 582 299 q 742 400 706 382 q 868 442 814 435 q 932 424 897 446 q 1013 333 1008 375 q 981 221 1017 289 q 919 125 944 151 q 694 29 885 88 q 499 -17 600 0 q 294 -39 399 -33 q 224 -19 256 -32 q 167 11 193 -7 q 96 81 115 46 q 101 111 78 114 q 217 103 151 104 q 365 108 283 103 l 457 199 q 459 346 461 271 q 450 500 457 421 q 435 648 443 579 q 419 776 426 717 q 408 869 413 836 q 400 908 403 901 q 401 933 397 919 m 699 283 q 447 118 597 251 q 705 165 590 133 q 904 240 819 196 q 699 283 858 332 z "},"ﻁ":{"ha":1100,"x_min":78,"x_max":1017,"o":"m 401 933 q 424 983 415 965 q 433 1004 432 1001 q 446 1011 438 1011 q 456 1003 453 1011 q 481 944 471 965 q 495 922 486 935 q 518 894 504 910 q 518 865 529 879 l 492 831 q 485 807 483 819 q 510 369 517 472 q 503 284 507 318 q 496 232 500 250 q 644 340 582 299 q 742 400 706 382 q 868 442 814 435 q 932 424 897 446 q 1013 333 1008 375 q 981 221 1017 289 q 919 125 944 151 q 694 29 885 88 q 499 -17 600 0 q 294 -39 399 -33 q 224 -19 256 -32 q 167 11 193 -7 q 96 81 115 46 q 101 111 78 114 q 217 103 151 104 q 365 108 283 103 l 457 199 q 459 346 461 271 q 450 500 457 421 q 435 648 443 579 q 419 776 426 717 q 408 869 413 836 q 400 908 403 901 q 401 933 397 919 m 699 283 q 447 118 597 251 q 705 165 590 133 q 904 240 819 196 q 699 283 858 332 z "},"ظ":{"ha":1100,"x_min":78,"x_max":1017,"o":"m 401 933 q 424 983 415 965 q 433 1004 432 1001 q 446 1011 438 1011 q 456 1003 453 1011 q 481 944 471 965 q 495 922 486 935 q 518 894 504 910 q 518 865 529 879 l 492 831 q 485 807 483 819 q 510 369 517 472 q 503 284 507 318 q 496 232 500 250 q 644 340 582 299 q 742 400 706 382 q 868 442 814 435 q 932 424 897 446 q 1013 333 1008 375 q 981 221 1017 289 q 919 125 944 151 q 694 29 885 88 q 499 -17 600 0 q 294 -39 399 -33 q 224 -19 256 -32 q 167 11 193 -7 q 96 81 115 46 q 101 111 78 114 q 217 103 151 104 q 365 108 283 103 l 457 199 q 459 346 461 271 q 450 500 457 421 q 435 648 443 579 q 419 776 426 717 q 408 869 413 836 q 400 908 403 901 q 401 933 397 919 m 699 283 q 447 118 597 251 q 705 165 590 133 q 904 240 819 196 q 699 283 858 332 m 764 760 q 775 763 767 764 q 874 704 831 743 q 875 693 879 699 l 810 588 q 796 589 806 581 q 767 608 790 593 q 699 650 743 624 q 696 658 692 654 l 764 760 z "},"ﻅ":{"ha":1100,"x_min":78,"x_max":1017,"o":"m 401 933 q 424 983 415 965 q 433 1004 432 1001 q 446 1011 438 1011 q 456 1003 453 1011 q 481 944 471 965 q 495 922 486 935 q 518 894 504 910 q 518 865 529 879 l 492 831 q 485 807 483 819 q 510 369 517 472 q 503 284 507 318 q 496 232 500 250 q 644 340 582 299 q 742 400 706 382 q 868 442 814 435 q 932 424 897 446 q 1013 333 1008 375 q 981 221 1017 289 q 919 125 944 151 q 694 29 885 88 q 499 -17 600 0 q 294 -39 399 -33 q 224 -19 256 -32 q 167 11 193 -7 q 96 81 115 46 q 101 111 78 114 q 217 103 151 104 q 365 108 283 103 l 457 199 q 459 346 461 271 q 450 500 457 421 q 435 648 443 579 q 419 776 426 717 q 408 869 413 836 q 400 908 403 901 q 401 933 397 919 m 699 283 q 447 118 597 251 q 705 165 590 133 q 904 240 819 196 q 699 283 858 332 m 764 760 q 775 763 767 764 q 874 704 831 743 q 875 693 879 699 l 810 588 q 796 589 806 581 q 767 608 790 593 q 699 650 743 624 q 696 658 692 654 l 764 760 z "},"ع":{"ha":750,"x_min":78,"x_max":1014,"o":"m 301 638 q 400 624 343 656 q 449 590 429 607 q 481 556 469 572 q 463 542 494 536 q 167 422 290 576 q 171 404 161 414 q 399 329 268 315 q 464 357 418 331 q 592 435 546 407 q 647 468 638 463 q 660 444 672 481 q 611 347 628 356 q 487 280 556 322 q 336 178 418 238 q 131 -182 156 47 q 189 -393 118 -304 q 704 -524 304 -537 q 830 -512 758 -521 q 989 -489 901 -504 q 1007 -493 1006 -486 q 856 -593 1014 -514 q 719 -642 767 -637 q 383 -633 515 -662 q 89 -257 78 -564 q 275 222 100 51 q 131 314 165 267 q 118 357 117 332 q 153 476 125 424 q 301 638 217 596 z "},"ﻉ":{"ha":750,"x_min":78,"x_max":1014,"o":"m 301 638 q 400 624 343 656 q 449 590 429 607 q 481 556 469 572 q 463 542 494 536 q 167 422 290 576 q 171 404 161 414 q 399 329 268 315 q 464 357 418 331 q 592 435 546 407 q 647 468 638 463 q 660 444 672 481 q 611 347 628 356 q 487 280 556 322 q 336 178 418 238 q 131 -182 156 47 q 189 -393 118 -304 q 704 -524 304 -537 q 830 -512 758 -521 q 989 -489 901 -504 q 1007 -493 1006 -486 q 856 -593 1014 -514 q 719 -642 767 -637 q 383 -633 515 -662 q 89 -257 78 -564 q 275 222 100 51 q 131 314 165 267 q 118 357 117 332 q 153 476 125 424 q 301 638 217 596 z "},"غ":{"ha":750,"x_min":78,"x_max":1014,"o":"m 301 638 q 400 624 343 656 q 449 590 429 607 q 481 556 469 572 q 463 542 494 536 q 167 422 290 576 q 171 404 161 414 q 399 329 268 315 q 464 357 418 331 q 592 435 546 407 q 647 468 638 463 q 660 444 672 481 q 611 347 628 356 q 487 280 556 322 q 336 178 418 238 q 131 -182 156 47 q 189 -393 118 -304 q 704 -524 304 -537 q 830 -512 758 -521 q 989 -489 901 -504 q 1007 -493 1006 -486 q 856 -593 1014 -514 q 719 -642 767 -637 q 383 -633 515 -662 q 89 -257 78 -564 q 275 222 100 51 q 131 314 165 267 q 118 357 117 332 q 153 476 125 424 q 301 638 217 596 m 229 915 q 240 918 232 919 q 339 860 296 899 q 340 849 344 854 l 275 743 q 261 744 271 736 q 232 764 256 749 q 164 806 208 779 q 161 814 157 810 l 229 915 z "},"ﻍ":{"ha":750,"x_min":78,"x_max":1014,"o":"m 301 638 q 400 624 343 656 q 449 590 429 607 q 481 556 469 572 q 463 542 494 536 q 167 422 290 576 q 171 404 161 414 q 399 329 268 315 q 464 357 418 331 q 592 435 546 407 q 647 468 638 463 q 660 444 672 481 q 611 347 628 356 q 487 280 556 322 q 336 178 418 238 q 131 -182 156 47 q 189 -393 118 -304 q 704 -524 304 -537 q 830 -512 758 -521 q 989 -489 901 -504 q 1007 -493 1006 -486 q 856 -593 1014 -514 q 719 -642 767 -637 q 383 -633 515 -662 q 89 -257 78 -564 q 275 222 100 51 q 131 314 165 267 q 118 357 117 332 q 153 476 125 424 q 301 638 217 596 m 229 915 q 240 918 232 919 q 339 860 296 899 q 340 849 344 854 l 275 743 q 261 744 271 736 q 232 764 256 749 q 164 806 208 779 q 161 814 157 810 l 229 915 z "},"ػ":{"ha":1669,"x_min":83,"x_max":1586,"o":"m 800 1079 q 811 1082 803 1083 q 863 1058 839 1072 q 910 1025 888 1044 q 911 1013 915 1019 l 844 907 q 832 910 842 903 q 808 926 828 914 q 753 958 789 938 l 700 876 q 686 878 696 869 q 657 897 681 882 q 589 939 633 913 q 588 947 583 943 l 656 1049 q 667 1051 658 1053 q 711 1033 690 1044 q 750 1006 732 1021 l 800 1079 m 1111 222 q 1114 232 1115 226 q 824 472 1028 369 q 799 558 800 485 q 840 704 794 663 q 1563 1044 1039 882 q 1572 1047 1568 1047 q 1578 1047 1575 1047 q 1586 1039 1586 1047 q 1585 1029 1586 1035 l 1557 931 q 1539 907 1551 911 q 846 597 942 693 q 849 588 840 592 q 1143 239 1142 413 q 1101 86 1143 143 q 783 -51 1043 7 q 616 -81 696 -71 q 463 -92 536 -92 q 89 128 113 -94 q 99 235 85 168 q 158 368 114 306 q 174 376 164 376 q 186 367 183 376 q 183 350 189 357 q 183 119 83 192 q 640 53 328 15 q 1111 222 983 94 z "},"ؼ":{"ha":1669,"x_min":83,"x_max":1586,"o":"m 1111 222 q 1114 232 1115 226 q 824 472 1028 369 q 799 558 800 485 q 840 704 794 663 q 1563 1044 1039 882 q 1572 1047 1568 1047 q 1578 1047 1575 1047 q 1586 1039 1586 1047 q 1585 1029 1586 1035 l 1557 931 q 1539 907 1551 911 q 846 597 942 693 q 849 588 840 592 q 1143 239 1142 413 q 1101 86 1143 143 q 783 -51 1043 7 q 616 -81 696 -71 q 463 -92 536 -92 q 89 128 113 -94 q 99 235 85 168 q 158 368 114 306 q 174 376 164 376 q 186 367 183 376 q 183 350 189 357 q 183 119 83 192 q 640 53 328 15 q 1111 222 983 94 m 592 -337 q 581 -340 589 -342 q 529 -317 554 -331 q 482 -283 504 -303 q 481 -271 476 -278 l 547 -165 q 560 -168 550 -161 q 581 -181 564 -171 q 629 -211 599 -192 l 678 -135 q 692 -136 682 -128 q 722 -156 697 -140 q 789 -197 746 -171 q 790 -206 794 -201 l 722 -307 q 713 -308 719 -311 q 711 -308 711 -308 q 673 -292 692 -301 q 638 -271 654 -283 l 592 -337 m 688 -482 q 676 -485 685 -486 q 625 -461 650 -475 q 578 -428 600 -447 q 576 -415 572 -422 l 642 -310 q 656 -312 646 -304 q 685 -332 661 -317 q 753 -374 710 -347 q 756 -382 760 -378 l 688 -482 z "},"ؽ":{"ha":1061,"x_min":75,"x_max":1006,"o":"m 932 400 q 721 374 847 444 q 606 235 638 325 q 608 199 600 218 q 786 124 638 132 q 942 61 936 115 q 879 -108 956 -46 q 425 -279 679 -268 q 89 -54 121 -292 q 142 201 75 54 q 183 276 161 242 q 229 342 204 311 q 251 344 243 358 q 250 319 258 332 q 161 6 113 126 q 439 -147 224 -151 q 867 -12 703 -143 q 868 7 881 -3 q 711 35 844 26 q 554 104 575 43 q 557 242 532 167 q 753 496 607 392 q 821 538 789 524 q 879 553 853 551 q 968 424 1006 561 q 932 400 957 385 m 436 553 q 426 546 432 546 q 411 553 421 544 q 351 627 378 586 q 304 718 324 668 q 269 635 282 671 q 249 572 256 599 q 225 551 242 547 q 210 567 213 553 q 210 573 210 569 q 213 582 211 576 q 254 695 229 639 q 314 804 279 751 q 324 813 318 813 q 329 811 328 813 l 343 803 q 388 717 360 764 q 456 618 417 671 q 461 607 461 613 q 458 593 461 599 l 436 553 z "},"ؾ":{"ha":1061,"x_min":75,"x_max":1006,"o":"m 932 400 q 721 374 847 444 q 606 235 638 325 q 608 199 600 218 q 786 124 638 132 q 942 61 936 115 q 879 -108 956 -46 q 425 -279 679 -268 q 89 -54 121 -292 q 142 201 75 54 q 183 276 161 242 q 229 342 204 311 q 251 344 243 358 q 250 319 258 332 q 161 6 113 126 q 439 -147 224 -151 q 867 -12 703 -143 q 868 7 881 -3 q 711 35 844 26 q 554 104 575 43 q 557 242 532 167 q 753 496 607 392 q 821 538 789 524 q 879 553 853 551 q 968 424 1006 561 q 932 400 957 385 m 444 674 q 456 676 447 678 q 508 653 483 667 q 554 619 532 639 q 556 607 560 614 l 489 501 q 476 504 486 497 q 453 520 472 508 q 397 553 433 532 l 344 471 q 331 472 340 464 q 301 492 325 476 q 233 533 278 507 q 232 542 228 538 l 300 643 q 311 646 303 647 q 356 627 335 639 q 394 600 376 615 l 444 674 z "},"ؿ":{"ha":1061,"x_min":75,"x_max":1006,"o":"m 932 400 q 721 374 847 444 q 606 235 638 325 q 608 199 600 218 q 786 124 638 132 q 942 61 936 115 q 879 -108 956 -46 q 425 -279 679 -268 q 89 -54 121 -292 q 142 201 75 54 q 183 276 161 242 q 229 342 204 311 q 251 344 243 358 q 250 319 258 332 q 161 6 113 126 q 439 -147 224 -151 q 867 -12 703 -143 q 868 7 881 -3 q 711 35 844 26 q 554 104 575 43 q 557 242 532 167 q 753 496 607 392 q 821 538 789 524 q 879 553 853 551 q 968 424 1006 561 q 932 400 957 385 m 439 674 q 450 676 442 678 q 502 653 478 667 q 549 619 526 639 q 550 607 554 614 l 483 501 q 471 504 481 497 q 449 518 467 507 q 401 547 432 529 l 353 469 q 339 472 349 464 q 310 492 333 476 q 242 533 286 507 q 240 542 236 538 l 308 642 q 319 644 311 646 q 358 628 339 638 q 393 607 376 619 l 439 674 m 343 818 q 354 821 346 822 q 406 797 382 811 q 453 764 431 783 q 456 751 460 757 l 389 646 q 375 649 385 640 q 346 668 369 653 q 278 710 322 683 q 275 718 271 714 l 343 818 z "},"ـ":{"ha":257,"x_min":-47,"x_max":306,"o":"m 0 0 q -18 21 -11 0 l -35 82 q 0 125 -47 128 l 258 125 q 293 82 306 128 l 275 21 q 258 0 269 0 l 0 0 z "},"ف":{"ha":1365,"x_min":83,"x_max":1282,"o":"m 1106 700 q 1215 632 1161 717 q 1278 390 1269 547 q 1265 294 1282 335 q 1093 138 1228 208 q 948 76 1025 103 q 783 29 871 49 q 616 -1 696 10 q 463 -11 536 -11 q 89 207 111 -14 q 99 315 85 249 q 158 449 114 386 q 174 457 164 457 q 186 447 183 457 q 183 431 189 438 q 183 200 83 272 q 640 133 328 96 q 897 189 768 149 q 1153 294 1025 229 q 1239 382 1229 332 q 1203 440 1232 417 q 1194 433 1200 443 q 1100 353 1157 361 q 969 442 989 336 q 1049 654 957 513 q 1106 700 1072 690 m 1121 504 q 1119 529 1135 517 q 1042 521 1069 571 q 1043 501 1036 508 q 1121 504 1082 468 m 860 997 q 871 1000 863 1001 q 969 942 926 981 q 971 931 975 936 l 906 825 q 892 826 901 818 q 863 846 886 831 q 794 888 839 861 q 792 896 788 892 l 860 997 z "},"ﻑ":{"ha":1365,"x_min":83,"x_max":1282,"o":"m 1106 700 q 1215 632 1161 717 q 1278 390 1269 547 q 1265 294 1282 335 q 1093 138 1228 208 q 948 76 1025 103 q 783 29 871 49 q 616 -1 696 10 q 463 -11 536 -11 q 89 207 111 -14 q 99 315 85 249 q 158 449 114 386 q 174 457 164 457 q 186 447 183 457 q 183 431 189 438 q 183 200 83 272 q 640 133 328 96 q 897 189 768 149 q 1153 294 1025 229 q 1239 382 1229 332 q 1203 440 1232 417 q 1194 433 1200 443 q 1100 353 1157 361 q 969 442 989 336 q 1049 654 957 513 q 1106 700 1072 690 m 1121 504 q 1119 529 1135 517 q 1042 521 1069 571 q 1043 501 1036 508 q 1121 504 1082 468 m 860 997 q 871 1000 863 1001 q 969 942 926 981 q 971 931 975 936 l 906 825 q 892 826 901 818 q 863 846 886 831 q 794 888 839 861 q 792 896 788 892 l 860 997 z "},"ق":{"ha":954,"x_min":81,"x_max":874,"o":"m 706 546 q 764 506 731 546 q 861 261 836 419 q 858 101 874 183 q 708 -124 829 -37 q 424 -228 564 -224 q 99 -50 168 -236 q 93 74 81 3 q 138 224 104 149 q 222 376 171 300 q 238 383 229 386 q 250 375 247 381 q 247 357 254 368 q 153 133 154 222 q 219 -22 151 42 q 425 -82 289 -87 q 595 -46 513 -78 q 754 47 678 -14 q 826 151 822 101 q 792 240 831 201 q 615 182 707 151 q 563 382 501 219 q 706 546 624 546 m 713 356 q 660 389 683 389 q 619 360 639 389 q 665 338 638 340 q 713 356 690 336 m 706 858 q 717 861 708 863 q 769 838 744 851 q 815 804 793 824 q 817 792 821 799 l 750 686 q 738 689 747 682 q 714 705 733 693 q 658 738 694 717 l 606 656 q 592 657 601 649 q 563 676 586 661 q 494 718 539 692 q 493 726 489 722 l 561 828 q 572 831 564 832 q 617 812 596 824 q 656 785 638 800 l 706 858 z "},"ﻕ":{"ha":954,"x_min":81,"x_max":874,"o":"m 706 546 q 764 506 731 546 q 861 261 836 419 q 858 101 874 183 q 708 -124 829 -37 q 424 -228 564 -224 q 99 -50 168 -236 q 93 74 81 3 q 138 224 104 149 q 222 376 171 300 q 238 383 229 386 q 250 375 247 381 q 247 357 254 368 q 153 133 154 222 q 219 -22 151 42 q 425 -82 289 -87 q 595 -46 513 -78 q 754 47 678 -14 q 826 151 822 101 q 792 240 831 201 q 615 182 707 151 q 563 382 501 219 q 706 546 624 546 m 713 356 q 660 389 683 389 q 619 360 639 389 q 665 338 638 340 q 713 356 690 336 m 706 858 q 717 861 708 863 q 769 838 744 851 q 815 804 793 824 q 817 792 821 799 l 750 686 q 738 689 747 682 q 714 705 733 693 q 658 738 694 717 l 606 656 q 592 657 601 649 q 563 676 586 661 q 494 718 539 692 q 493 726 489 722 l 561 828 q 572 831 564 832 q 617 812 596 824 q 656 785 638 800 l 706 858 z "},"ك":{"ha":913,"x_min":88,"x_max":825,"o":"m 683 1086 q 717 1031 699 1056 q 757 989 735 1007 q 757 963 768 979 l 732 921 q 726 907 726 911 q 800 522 775 671 q 825 311 825 372 l 825 243 q 814 156 824 200 q 785 68 804 113 q 315 0 751 -8 q 101 17 190 3 q 92 29 92 19 q 88 103 89 74 q 89 149 88 132 q 99 156 89 161 q 285 132 154 133 q 772 183 686 124 q 721 560 781 233 q 650 931 661 888 q 640 969 644 953 q 633 996 636 986 q 636 1039 626 1019 l 663 1092 q 672 1099 667 1100 q 683 1086 679 1096 m 404 797 q 413 792 410 797 q 413 782 414 788 l 383 708 q 368 689 376 692 q 314 660 331 681 q 333 638 306 650 q 366 628 349 632 q 404 621 383 624 q 401 469 499 607 q 343 421 371 429 q 246 419 318 413 q 183 429 211 422 q 135 443 156 436 q 119 461 119 450 q 133 474 119 474 q 226 478 169 476 q 363 493 339 479 q 365 503 368 496 q 354 510 364 507 l 314 519 q 261 547 278 528 q 249 592 242 568 q 404 797 290 767 z "},"ﻙ":{"ha":913,"x_min":88,"x_max":825,"o":"m 683 1086 q 717 1031 699 1056 q 757 989 735 1007 q 757 963 768 979 l 732 921 q 726 907 726 911 q 800 522 775 671 q 825 311 825 372 l 825 243 q 814 156 824 200 q 785 68 804 113 q 315 0 751 -8 q 101 17 190 3 q 92 29 92 19 q 88 103 89 74 q 89 149 88 132 q 99 156 89 161 q 285 132 154 133 q 772 183 686 124 q 721 560 781 233 q 650 931 661 888 q 640 969 644 953 q 633 996 636 986 q 636 1039 626 1019 l 663 1092 q 672 1099 667 1100 q 683 1086 679 1096 m 404 797 q 413 792 410 797 q 413 782 414 788 l 383 708 q 368 689 376 692 q 314 660 331 681 q 333 638 306 650 q 366 628 349 632 q 404 621 383 624 q 401 469 499 607 q 343 421 371 429 q 246 419 318 413 q 183 429 211 422 q 135 443 156 436 q 119 461 119 450 q 133 474 119 474 q 226 478 169 476 q 363 493 339 479 q 365 503 368 496 q 354 510 364 507 l 314 519 q 261 547 278 528 q 249 592 242 568 q 404 797 290 767 z "},"ل":{"ha":838,"x_min":86,"x_max":760,"o":"m 643 1033 q 657 1043 647 1043 q 671 1031 667 1043 q 728 929 696 963 q 726 896 740 917 q 714 878 719 886 q 704 864 708 869 q 696 836 696 854 q 706 727 699 790 q 722 583 713 664 q 740 441 733 503 q 749 335 746 379 q 711 81 760 193 q 565 -40 682 10 q 357 -89 447 -90 q 88 144 89 -85 q 193 435 86 296 q 208 442 200 444 q 219 432 218 439 q 217 414 222 422 q 149 221 143 281 q 403 58 168 50 q 693 179 604 65 q 684 301 692 224 q 661 489 676 378 q 636 704 647 600 q 618 906 625 808 l 613 953 q 617 972 613 964 l 643 1033 z "},"ﻝ":{"ha":838,"x_min":86,"x_max":760,"o":"m 643 1033 q 657 1043 647 1043 q 671 1031 667 1043 q 728 929 696 963 q 726 896 740 917 q 714 878 719 886 q 704 864 708 869 q 696 836 696 854 q 706 727 699 790 q 722 583 713 664 q 740 441 733 503 q 749 335 746 379 q 711 81 760 193 q 565 -40 682 10 q 357 -89 447 -90 q 88 144 89 -85 q 193 435 86 296 q 208 442 200 444 q 219 432 218 439 q 217 414 222 422 q 149 221 143 281 q 403 58 168 50 q 693 179 604 65 q 684 301 692 224 q 661 489 676 378 q 636 704 647 600 q 618 906 625 808 l 613 953 q 617 972 613 964 l 643 1033 z "},"م":{"ha":628,"x_min":78,"x_max":542,"o":"m 144 175 q 163 263 151 219 q 194 347 175 307 q 281 446 235 429 q 439 392 346 471 q 486 347 464 371 q 529 297 508 324 q 540 268 542 282 q 524 173 531 208 q 514 131 517 138 q 490 119 507 115 q 144 36 261 174 q 138 8 133 22 q 229 -389 188 -175 q 240 -717 292 -711 q 219 -681 224 -718 q 199 -536 214 -614 q 161 -371 183 -458 q 90 28 78 -51 q 112 117 97 81 q 144 175 126 154 m 217 226 q 272 245 242 238 q 338 257 303 253 q 261 292 286 300 q 217 226 224 281 z "},"ﻡ":{"ha":628,"x_min":78,"x_max":542,"o":"m 144 175 q 163 263 151 219 q 194 347 175 307 q 281 446 235 429 q 439 392 346 471 q 486 347 464 371 q 529 297 508 324 q 540 268 542 282 q 524 173 531 208 q 514 131 517 138 q 490 119 507 115 q 144 36 261 174 q 138 8 133 22 q 229 -389 188 -175 q 240 -717 292 -711 q 219 -681 224 -718 q 199 -536 214 -614 q 161 -371 183 -458 q 90 28 78 -51 q 112 117 97 81 q 144 175 126 154 m 217 226 q 272 245 242 238 q 338 257 303 253 q 261 292 286 300 q 217 226 224 281 z "},"ن":{"ha":794,"x_min":83,"x_max":710,"o":"m 608 639 q 653 539 632 593 q 689 419 674 485 q 707 294 704 356 q 700 171 710 232 q 658 57 689 104 q 376 -89 578 -69 q 157 -32 233 -103 q 89 163 83 39 q 174 396 96 289 q 194 404 185 411 q 193 376 207 397 q 160 142 107 232 q 369 53 211 53 q 663 174 554 56 q 665 186 665 176 q 625 360 667 250 q 586 453 604 414 q 551 517 568 493 q 546 540 542 531 l 588 643 q 608 639 594 660 m 351 847 q 363 850 354 851 q 461 792 418 831 q 463 781 467 786 l 397 675 q 383 676 393 668 q 354 696 378 681 q 286 738 331 711 q 283 746 279 742 l 351 847 z "},"ﻥ":{"ha":794,"x_min":83,"x_max":710,"o":"m 608 639 q 653 539 632 593 q 689 419 674 485 q 707 294 704 356 q 700 171 710 232 q 658 57 689 104 q 376 -89 578 -69 q 157 -32 233 -103 q 89 163 83 39 q 174 396 96 289 q 194 404 185 411 q 193 376 207 397 q 160 142 107 232 q 369 53 211 53 q 663 174 554 56 q 665 186 665 176 q 625 360 667 250 q 586 453 604 414 q 551 517 568 493 q 546 540 542 531 l 588 643 q 608 639 594 660 m 351 847 q 363 850 354 851 q 461 792 418 831 q 463 781 467 786 l 397 675 q 383 676 393 668 q 354 696 378 681 q 286 738 331 711 q 283 746 279 742 l 351 847 z "},"ه":{"ha":513,"x_min":74,"x_max":440,"o":"m 219 453 q 276 449 242 468 q 403 315 365 397 q 421 147 440 235 q 350 15 403 64 q 229 -33 297 -33 q 104 33 135 -36 q 103 213 74 101 q 210 415 132 325 q 213 433 213 418 q 219 453 213 450 m 351 154 q 344 196 368 167 q 221 274 279 276 q 171 233 192 274 q 156 171 150 193 q 236 119 168 119 q 351 154 307 119 z "},"ﻩ":{"ha":513,"x_min":74,"x_max":440,"o":"m 219 453 q 276 449 242 468 q 403 315 365 397 q 421 147 440 235 q 350 15 403 64 q 229 -33 297 -33 q 104 33 135 -36 q 103 213 74 101 q 210 415 132 325 q 213 433 213 418 q 219 453 213 450 m 351 154 q 344 196 368 167 q 221 274 279 276 q 171 233 192 274 q 156 171 150 193 q 236 119 168 119 q 351 154 307 119 z "},"و":{"ha":556,"x_min":-117,"x_max":478,"o":"m 235 269 q 349 403 283 404 q 424 347 389 403 q 451 289 442 319 q 467 224 461 258 q 446 31 478 154 q 324 -196 414 -93 q 178 -306 232 -300 q 31 -297 122 -311 q -48 -281 -15 -290 q -101 -264 -81 -272 q -115 -247 -117 -257 q -97 -239 -112 -236 q 110 -231 11 -254 q 181 -196 139 -224 q 279 -119 224 -168 q 368 -31 335 -71 q 411 43 401 10 q 394 107 404 101 q 260 67 342 25 q 235 269 178 108 m 361 218 q 275 224 321 283 q 361 218 310 185 z "},"ﻭ":{"ha":556,"x_min":-117,"x_max":478,"o":"m 235 269 q 349 403 283 404 q 424 347 389 403 q 451 289 442 319 q 467 224 461 258 q 446 31 478 154 q 324 -196 414 -93 q 178 -306 232 -300 q 31 -297 122 -311 q -48 -281 -15 -290 q -101 -264 -81 -272 q -115 -247 -117 -257 q -97 -239 -112 -236 q 110 -231 11 -254 q 181 -196 139 -224 q 279 -119 224 -168 q 368 -31 335 -71 q 411 43 401 10 q 394 107 404 101 q 260 67 342 25 q 235 269 178 108 m 361 218 q 275 224 321 283 q 361 218 310 185 z "},"ى":{"ha":1061,"x_min":75,"x_max":1006,"o":"m 932 400 q 721 374 847 444 q 606 235 638 325 q 608 199 600 218 q 786 124 638 132 q 942 61 936 115 q 879 -108 956 -46 q 425 -279 679 -268 q 89 -54 121 -292 q 142 201 75 54 q 183 276 161 242 q 229 342 204 311 q 251 344 243 358 q 250 319 258 332 q 161 6 113 126 q 439 -147 224 -151 q 867 -12 703 -143 q 868 7 881 -3 q 711 35 844 26 q 554 104 575 43 q 557 242 532 167 q 753 496 607 392 q 821 538 789 524 q 879 553 853 551 q 968 424 1006 561 q 932 400 957 385 z "},"ﻯ":{"ha":1061,"x_min":75,"x_max":1006,"o":"m 932 400 q 721 374 847 444 q 606 235 638 325 q 608 199 600 218 q 786 124 638 132 q 942 61 936 115 q 879 -108 956 -46 q 425 -279 679 -268 q 89 -54 121 -292 q 142 201 75 54 q 183 276 161 242 q 229 342 204 311 q 251 344 243 358 q 250 319 258 332 q 161 6 113 126 q 439 -147 224 -151 q 867 -12 703 -143 q 868 7 881 -3 q 711 35 844 26 q 554 104 575 43 q 557 242 532 167 q 753 496 607 392 q 821 538 789 524 q 879 553 853 551 q 968 424 1006 561 q 932 400 957 385 z "},"ي":{"ha":1061,"x_min":75,"x_max":1006,"o":"m 932 400 q 721 374 847 444 q 606 235 638 325 q 608 199 600 218 q 786 124 638 132 q 942 61 936 115 q 879 -108 956 -46 q 425 -279 679 -268 q 89 -54 121 -292 q 142 201 75 54 q 183 276 161 242 q 229 342 204 311 q 251 344 243 358 q 250 319 258 332 q 161 6 113 126 q 439 -147 224 -151 q 867 -12 703 -143 q 868 7 881 -3 q 711 35 844 26 q 554 104 575 43 q 557 242 532 167 q 753 496 607 392 q 821 538 789 524 q 879 553 853 551 q 968 424 1006 561 q 932 400 957 385 m 543 -401 q 554 -399 546 -397 q 606 -422 582 -408 q 653 -456 631 -436 q 654 -468 658 -461 l 588 -574 q 575 -571 585 -578 q 551 -555 571 -567 q 496 -522 532 -543 l 443 -604 q 429 -603 439 -611 q 400 -583 424 -599 q 332 -542 376 -568 q 331 -533 326 -537 l 399 -432 q 410 -429 401 -428 q 454 -448 433 -436 q 493 -475 475 -460 l 543 -401 z "},"ﻱ":{"ha":1061,"x_min":75,"x_max":1006,"o":"m 932 400 q 721 374 847 444 q 606 235 638 325 q 608 199 600 218 q 786 124 638 132 q 942 61 936 115 q 879 -108 956 -46 q 425 -279 679 -268 q 89 -54 121 -292 q 142 201 75 54 q 183 276 161 242 q 229 342 204 311 q 251 344 243 358 q 250 319 258 332 q 161 6 113 126 q 439 -147 224 -151 q 867 -12 703 -143 q 868 7 881 -3 q 711 35 844 26 q 554 104 575 43 q 557 242 532 167 q 753 496 607 392 q 821 538 789 524 q 879 553 853 551 q 968 424 1006 561 q 932 400 957 385 m 543 -401 q 554 -399 546 -397 q 606 -422 582 -408 q 653 -456 631 -436 q 654 -468 658 -461 l 588 -574 q 575 -571 585 -578 q 551 -555 571 -567 q 496 -522 532 -543 l 443 -604 q 429 -603 439 -611 q 400 -583 424 -599 q 332 -542 376 -568 q 331 -533 326 -537 l 399 -432 q 410 -429 401 -428 q 454 -448 433 -436 q 493 -475 475 -460 l 543 -401 z "},"ً":{"ha":0,"x_min":161,"x_max":506,"o":"m 467 1406 q 497 1418 489 1421 q 499 1394 506 1415 l 485 1351 q 461 1319 478 1331 l 218 1171 q 194 1183 190 1156 l 199 1210 q 221 1243 203 1229 l 467 1406 m 463 1544 q 492 1533 501 1569 l 482 1497 q 453 1461 475 1474 l 207 1318 q 178 1332 161 1292 l 190 1358 q 199 1375 194 1368 q 211 1386 204 1382 l 463 1544 z "},"ٌ":{"ha":0,"x_min":181,"x_max":493,"o":"m 414 1536 q 442 1506 433 1533 q 449 1476 446 1492 q 450 1446 451 1461 q 447 1417 449 1432 q 439 1386 444 1401 q 472 1365 463 1372 q 482 1353 483 1358 l 472 1307 q 439 1303 468 1285 q 419 1316 428 1310 q 406 1326 410 1322 q 219 1178 346 1215 q 185 1188 189 1168 q 214 1217 181 1207 q 379 1344 329 1250 q 325 1400 331 1381 q 331 1457 318 1422 q 346 1490 338 1475 q 365 1517 354 1506 q 414 1536 388 1539 m 296 1406 q 300 1406 299 1406 q 300 1389 304 1401 l 289 1353 q 257 1336 281 1331 q 221 1378 233 1344 q 217 1447 208 1411 q 288 1572 232 1513 q 468 1685 414 1711 q 490 1649 489 1674 q 475 1593 493 1621 q 439 1590 460 1569 q 347 1588 401 1628 q 307 1553 324 1571 q 279 1519 290 1536 q 251 1456 253 1479 q 264 1417 250 1431 q 296 1406 278 1403 m 401 1451 q 360 1454 386 1468 q 363 1435 347 1447 q 385 1419 374 1425 q 406 1408 396 1413 q 408 1428 411 1407 q 401 1451 406 1444 z "},"ٍ":{"ha":0,"x_min":161,"x_max":506,"o":"m 467 -640 q 497 -628 489 -625 q 499 -651 506 -631 l 485 -694 q 461 -726 478 -715 l 218 -875 q 194 -862 190 -890 l 199 -836 q 221 -803 203 -817 l 467 -640 m 463 -501 q 492 -512 501 -476 l 482 -549 q 453 -585 475 -572 l 207 -728 q 178 -714 161 -754 l 190 -687 q 199 -671 194 -678 q 211 -660 204 -664 l 463 -501 z "},"َ":{"ha":0,"x_min":178,"x_max":526,"o":"m 492 1418 q 517 1404 526 1439 l 503 1360 q 472 1326 499 1342 l 203 1171 q 183 1167 190 1164 q 178 1183 178 1171 l 178 1207 q 203 1239 178 1218 l 492 1418 z "},"ُ":{"ha":0,"x_min":172,"x_max":521,"o":"m 432 1592 q 471 1569 453 1596 q 471 1425 506 1515 q 490 1415 482 1419 q 503 1407 497 1410 q 511 1379 521 1399 l 496 1350 q 475 1340 488 1336 q 460 1347 469 1343 q 438 1358 450 1351 q 219 1171 342 1231 q 183 1174 193 1157 q 203 1211 172 1194 q 401 1379 326 1283 q 343 1418 360 1401 q 325 1486 310 1449 q 432 1592 364 1581 m 417 1503 q 367 1499 386 1531 q 374 1478 361 1490 q 432 1443 388 1464 q 417 1503 439 1486 z "},"ِ":{"ha":0,"x_min":178,"x_max":526,"o":"m 492 -440 q 517 -454 526 -419 l 503 -499 q 472 -532 499 -517 l 203 -687 q 183 -692 190 -694 q 178 -675 178 -687 l 178 -651 q 203 -619 178 -640 l 492 -440 z "},"ّ":{"ha":0,"x_min":88,"x_max":457,"o":"m 415 1365 q 436 1394 419 1397 q 456 1365 457 1392 q 428 1242 451 1293 q 350 1178 400 1182 q 289 1211 318 1176 q 265 1181 279 1193 q 236 1160 251 1168 q 168 1156 201 1142 q 150 1350 88 1189 q 167 1368 157 1365 q 179 1367 172 1369 q 189 1336 194 1360 q 208 1249 165 1254 q 292 1361 261 1243 q 314 1381 299 1385 q 328 1360 332 1376 q 338 1296 319 1311 q 361 1289 347 1289 q 415 1365 407 1289 z "},"ْ":{"ha":0,"x_min":119,"x_max":371,"o":"m 163 1367 q 306 1401 218 1468 q 367 1297 363 1357 q 321 1186 371 1222 q 231 1165 283 1161 q 140 1304 119 1174 q 149 1338 143 1322 q 163 1367 156 1353 m 310 1263 q 308 1315 350 1274 q 235 1346 278 1346 q 181 1301 183 1347 q 203 1263 181 1271 q 310 1263 251 1246 z "},"ٓ":{"ha":0,"x_min":-321,"x_max":314,"o":"m 272 1267 q 306 1251 297 1272 q 293 1217 314 1231 q -192 1129 143 1119 q -217 1088 -204 1103 q -236 1082 -228 1074 l -301 1149 q -258 1238 -321 1165 q -219 1246 -246 1250 q 272 1267 28 1206 z "},"ٔ":{"ha":0,"x_min":-164,"x_max":154,"o":"m 103 667 q 38 654 65 660 q -4 643 11 649 q -49 626 -19 638 q -121 594 -78 614 q -147 600 -139 586 q -93 668 -164 625 q -151 726 -144 693 q -104 864 -162 785 q 19 938 -46 943 q 57 890 61 933 q 32 818 53 847 q -1 811 13 790 q -43 838 -17 836 q -86 821 -71 840 q -85 785 -103 800 q 51 739 -39 742 q 69 741 58 739 q 93 746 79 743 q 118 751 108 749 q 133 753 128 753 q 150 743 146 753 q 151 728 154 735 q 103 667 124 671 z "},"ٕ":{"ha":0,"x_min":-164,"x_max":154,"o":"m 103 -611 q 38 -624 65 -618 q -4 -635 11 -629 q -49 -652 -19 -640 q -121 -683 -78 -664 q -147 -678 -139 -692 q -93 -610 -164 -653 q -151 -551 -144 -585 q -104 -414 -162 -493 q 19 -340 -46 -335 q 57 -387 61 -344 q 32 -460 53 -431 q -1 -467 13 -487 q -43 -440 -17 -442 q -86 -457 -71 -437 q -85 -493 -103 -478 q 51 -539 -39 -536 q 69 -537 58 -539 q 93 -532 79 -535 q 118 -527 108 -529 q 133 -525 128 -525 q 150 -535 146 -525 q 151 -550 154 -543 q 103 -611 124 -607 z "},"ٖ":{"ha":0,"x_min":133,"x_max":321,"o":"m 164 -508 q 189 -510 171 -487 q 279 -882 321 -657 q 265 -897 278 -894 q 251 -882 254 -899 q 144 -628 232 -736 q 138 -597 133 -615 l 164 -508 z "},"ٗ":{"ha":0,"x_min":175,"x_max":524,"o":"m 264 1165 q 225 1188 243 1161 q 225 1332 190 1242 q 206 1342 214 1338 q 193 1350 199 1347 q 185 1378 175 1358 l 200 1407 q 221 1417 208 1421 q 236 1410 226 1414 q 258 1399 246 1406 q 476 1586 354 1526 q 513 1583 503 1600 q 493 1546 524 1563 q 294 1378 369 1474 q 353 1339 336 1356 q 371 1271 386 1308 q 264 1165 332 1176 m 279 1254 q 329 1258 310 1226 q 322 1279 335 1267 q 264 1314 308 1293 q 279 1254 257 1271 z "},"٘":{"ha":0,"x_min":156,"x_max":376,"o":"m 204 1401 q 224 1417 215 1417 q 231 1397 233 1417 q 300 1274 215 1285 q 347 1301 325 1269 q 369 1318 361 1322 q 371 1293 376 1314 q 254 1171 333 1171 q 160 1256 165 1171 q 204 1401 156 1328 z "},"ٙ":{"ha":0,"x_min":142,"x_max":615,"o":"m 183 1174 q 168 1199 142 1174 l 203 1231 q 246 1244 219 1244 l 571 1244 q 586 1218 615 1244 l 550 1186 q 508 1174 536 1174 l 183 1174 z "},"ٚ":{"ha":0,"x_min":-128,"x_max":126,"o":"m 96 886 l 122 849 q 126 836 126 840 q 122 822 126 829 q 31 628 54 710 l 18 618 q 11 617 17 617 q 0 624 7 617 q -124 832 -81 724 q -128 849 -128 843 q -115 865 -128 861 q -89 847 -97 872 q -61 787 -79 822 q -17 707 -43 751 q 19 803 -1 758 q 71 883 40 847 q 86 893 79 893 q 96 886 92 893 z "},"ٛ":{"ha":0,"x_min":-119,"x_max":132,"o":"m 107 636 q 97 629 103 629 q 82 636 92 628 q 22 710 49 669 q -25 801 -6 751 q -60 718 -47 754 q -81 656 -74 682 q -104 635 -87 631 q -119 650 -117 636 q -119 656 -119 653 q -117 665 -118 660 q -75 778 -100 722 q -15 888 -50 835 q -6 896 -11 896 q 0 894 -1 896 l 14 886 q 59 801 31 847 q 126 701 88 754 q 132 690 132 696 q 129 676 132 682 l 107 636 z "},"ٜ":{"ha":0,"x_min":0,"x_max":306,"o":"m 263 -500 q 306 -606 306 -543 q 261 -714 306 -669 q 153 -758 217 -758 q 44 -714 89 -758 q 0 -606 0 -669 q 44 -499 0 -543 q 153 -454 89 -454 q 263 -500 219 -454 z "},"ٝ":{"ha":0,"x_min":172,"x_max":522,"o":"m 263 1592 q 369 1486 331 1581 q 350 1418 385 1450 q 292 1379 333 1401 q 492 1211 365 1285 q 511 1174 522 1194 q 474 1171 500 1157 q 359 1248 413 1201 q 257 1358 306 1294 q 235 1347 244 1351 q 218 1340 225 1343 q 199 1350 207 1336 l 182 1379 q 190 1407 172 1399 q 204 1415 196 1410 q 224 1425 213 1419 q 222 1569 188 1517 q 263 1592 240 1596 m 276 1503 q 263 1443 256 1486 q 319 1478 306 1464 q 326 1499 332 1490 q 276 1503 307 1531 z "},"ٞ":{"ha":0,"x_min":178,"x_max":526,"o":"m 492 1418 q 517 1404 526 1439 l 503 1360 q 472 1326 499 1342 l 203 1171 q 183 1167 190 1164 q 178 1183 178 1171 l 178 1207 q 203 1239 178 1218 l 492 1418 m 213 1413 q 215 1414 213 1414 q 267 1385 233 1414 q 268 1378 269 1382 l 235 1326 q 229 1326 233 1322 q 220 1333 228 1329 q 201 1344 213 1338 q 178 1360 178 1360 l 178 1361 l 213 1413 m 460 1267 q 463 1268 461 1268 q 481 1263 465 1268 q 506 1246 494 1257 q 510 1242 507 1244 q 515 1232 517 1233 l 482 1181 q 481 1179 482 1179 q 465 1189 479 1179 q 451 1199 458 1194 q 438 1206 444 1203 q 425 1214 425 1211 l 425 1215 l 460 1267 z "},"ٟ":{"ha":0,"x_min":-357,"x_max":154,"o":"m -117 -625 q -93 -608 -101 -618 q -151 -550 -144 -583 q -104 -414 -162 -493 q 19 -340 -46 -335 q 57 -387 61 -344 q 32 -460 53 -431 q -1 -465 13 -487 q -43 -440 -15 -442 q -86 -457 -71 -437 q -85 -492 -101 -476 q 51 -539 -37 -537 q 69 -537 58 -539 q 93 -532 79 -535 q 118 -527 108 -529 q 133 -525 128 -525 q 150 -535 146 -525 q 151 -550 154 -543 q 103 -610 126 -606 q -6 -640 50 -621 q -121 -683 -61 -658 q -229 -668 -156 -697 q -287 -672 -261 -654 q -342 -731 -312 -689 q -351 -731 -346 -736 q -354 -718 -357 -725 q -271 -611 -306 -633 q -206 -603 -237 -589 q -117 -625 -133 -632 z "},"٠":{"ha":813,"x_min":285,"x_max":529,"o":"m 349 433 q 361 449 353 446 q 390 442 372 454 l 506 368 q 519 321 529 351 l 475 183 q 428 171 464 150 l 301 244 q 296 286 285 254 l 349 433 z "},"١":{"ha":813,"x_min":285,"x_max":526,"o":"m 342 728 q 397 703 361 788 q 465 499 438 599 q 507 303 493 399 q 522 65 526 168 q 494 -110 518 -37 q 469 -128 486 -132 q 451 -100 451 -124 q 307 518 456 254 q 294 589 285 560 l 342 728 z "},"٢":{"ha":813,"x_min":150,"x_max":661,"o":"m 190 724 q 207 751 196 750 q 244 711 222 754 q 428 581 314 581 q 610 726 590 581 q 633 751 614 751 q 658 736 651 751 q 659 705 661 729 q 650 642 657 681 q 594 503 638 564 q 360 428 525 400 q 416 130 404 264 q 407 -107 428 -4 q 393 -126 404 -122 q 372 -124 379 -131 q 363 -101 365 -115 q 174 517 340 256 q 156 582 150 556 l 190 724 z "},"٣":{"ha":813,"x_min":88,"x_max":721,"o":"m 676 738 q 699 763 679 763 q 719 722 721 763 q 710 632 718 679 q 689 533 703 585 q 521 439 651 397 q 450 475 481 451 q 303 408 383 403 q 349 -107 390 57 q 333 -125 344 -121 q 314 -124 321 -129 q 304 -100 307 -118 q 117 515 281 272 q 94 583 88 556 l 129 724 q 178 719 142 774 q 276 590 258 601 q 375 574 315 568 q 486 725 457 582 q 507 751 493 753 q 528 732 524 750 q 522 661 532 713 q 588 588 511 608 q 676 738 667 567 z "},"٤":{"ha":813,"x_min":193,"x_max":615,"o":"m 406 753 q 428 761 414 761 q 450 753 443 761 q 456 731 458 743 l 431 625 q 410 607 428 614 q 314 546 331 581 q 328 506 301 522 q 503 426 424 446 q 518 376 536 418 l 493 322 q 456 275 478 289 q 329 167 376 222 q 335 110 300 132 q 453 51 393 74 q 576 21 514 28 q 600 -21 615 17 l 560 -117 q 528 -135 551 -137 q 242 -32 364 -118 q 229 39 215 -12 l 260 154 q 382 300 275 206 q 308 333 344 314 q 232 379 271 353 q 224 474 193 406 l 268 568 q 406 753 310 657 z "},"٥":{"ha":813,"x_min":169,"x_max":669,"o":"m 328 554 q 419 589 369 601 q 578 496 513 565 q 631 203 669 397 q 543 54 613 107 q 369 1 474 1 q 218 44 263 1 q 172 185 172 89 q 328 554 169 378 m 543 304 q 336 410 442 418 q 261 310 271 406 q 282 214 253 247 q 432 185 328 160 q 550 243 506 201 q 543 304 576 265 z "},"٦":{"ha":813,"x_min":128,"x_max":686,"o":"m 154 725 q 204 724 165 782 q 513 674 283 604 q 546 650 550 685 q 667 114 519 381 q 681 42 686 76 l 657 -90 q 613 -99 644 -160 q 507 187 540 39 q 479 490 474 335 q 474 507 479 504 q 471 507 472 507 q 147 567 251 450 q 133 615 128 589 l 154 725 z "},"٧":{"ha":813,"x_min":106,"x_max":706,"o":"m 432 -107 q 419 -126 428 -124 q 401 -125 408 -131 q 392 -106 392 -118 q 308 176 388 -11 q 221 367 269 271 q 113 563 172 464 q 110 596 106 576 l 128 708 q 161 740 139 782 q 299 465 235 611 q 419 153 363 318 q 433 129 426 131 q 444 147 440 128 q 665 710 501 400 q 686 732 676 732 q 697 714 696 732 l 706 579 q 694 540 706 561 q 608 384 647 461 q 538 231 568 307 q 481 70 507 154 q 432 -107 454 -14 z "},"٨":{"ha":813,"x_min":108,"x_max":708,"o":"m 382 732 q 387 745 385 739 q 394 753 389 751 q 413 751 406 757 q 422 731 422 744 q 506 449 426 636 q 594 258 546 356 q 701 63 642 161 q 704 29 708 49 l 686 -83 q 653 -115 675 -157 q 516 160 581 14 q 394 472 451 307 q 381 496 388 494 q 369 478 374 497 q 149 -85 314 226 q 128 -106 139 -106 q 115 -89 117 -106 l 108 46 q 111 65 108 54 q 119 86 114 75 q 206 242 167 165 q 275 394 244 318 q 333 555 306 471 q 382 732 360 639 z "},"٩":{"ha":813,"x_min":167,"x_max":649,"o":"m 306 694 q 483 694 401 811 q 534 578 517 647 q 554 419 551 510 q 628 117 560 240 q 642 49 649 81 l 617 -97 q 601 -130 611 -132 q 575 -92 590 -128 q 483 269 494 97 q 171 418 179 240 q 306 694 167 517 m 447 483 q 361 575 425 556 q 261 514 286 596 q 281 449 246 469 q 431 425 328 419 q 446 431 440 425 q 447 483 460 443 z "},"٪":{"ha":918,"x_min":56,"x_max":863,"o":"m 636 975 q 653 963 649 975 l 315 -228 q 297 -247 314 -235 q 263 -258 282 -258 q 247 -256 256 -258 q 239 -251 242 -253 l 238 -249 l 582 956 q 589 963 582 958 q 608 971 594 967 q 636 975 621 975 m 742 100 l 839 51 q 850 15 863 40 l 804 -78 q 768 -89 793 -101 l 671 -40 q 658 -4 646 -28 l 704 88 q 742 100 717 113 m 151 779 l 249 731 q 260 694 272 719 l 214 601 q 178 590 203 578 l 81 639 q 68 675 56 651 l 114 767 q 151 779 126 792 z "},"٫":{"ha":415,"x_min":4,"x_max":365,"o":"m 201 203 q 275 218 213 254 q 347 40 365 167 q 250 -201 326 -103 q 88 -301 175 -297 q 61 -262 4 -306 q 211 -119 147 -199 q 299 49 269 -46 q 275 74 304 67 l 210 88 q 186 125 179 93 l 201 203 z "},"٬":{"ha":415,"x_min":51,"x_max":413,"o":"m 215 297 q 142 282 204 246 q 69 460 51 333 q 167 701 90 603 q 329 801 242 797 q 356 763 413 806 q 204 619 274 704 q 117 451 144 547 q 142 426 111 433 l 206 413 q 231 375 238 407 l 215 297 z "},"٭":{"ha":756,"x_min":58,"x_max":697,"o":"m 58 515 l 303 515 l 378 746 l 454 515 l 697 515 l 501 371 l 576 140 l 378 283 l 181 140 l 256 371 l 58 515 z "},"ٮ":{"ha":1286,"x_min":58,"x_max":1207,"o":"m 1140 517 q 1173 463 1160 494 q 1193 390 1186 431 q 1190 235 1207 311 q 1135 138 1174 160 q 885 36 1024 74 q 579 -10 746 -1 q 132 115 246 -26 q 110 328 58 207 q 140 380 121 353 q 185 436 158 407 q 203 443 193 446 q 213 432 210 442 q 208 417 215 424 q 168 357 183 389 q 161 300 154 326 q 564 126 210 119 q 887 163 742 129 q 1146 263 1032 197 q 1079 396 1142 317 q 1082 429 1076 400 q 1083 433 1083 432 q 1114 517 1090 467 q 1140 517 1122 536 z "},"ٯ":{"ha":954,"x_min":81,"x_max":874,"o":"m 706 546 q 764 506 731 546 q 861 261 836 419 q 858 101 874 183 q 708 -124 829 -37 q 424 -228 564 -224 q 99 -50 168 -236 q 93 74 81 3 q 138 224 104 149 q 222 376 171 300 q 238 383 229 386 q 250 375 247 381 q 247 357 254 368 q 153 133 154 222 q 219 -22 151 42 q 425 -82 289 -87 q 595 -46 513 -78 q 754 47 678 -14 q 826 151 822 101 q 792 240 831 201 q 615 182 707 151 q 563 382 501 219 q 706 546 624 546 m 713 356 q 660 389 683 389 q 619 360 639 389 q 665 338 638 340 q 713 356 690 336 z "},"ٰ":{"ha":0,"x_min":133,"x_max":321,"o":"m 164 1614 q 189 1613 171 1635 q 279 1240 321 1465 q 265 1225 278 1228 q 251 1240 254 1224 q 144 1494 232 1386 q 138 1525 133 1507 l 164 1614 z "},"ٱ":{"ha":301,"x_min":-44,"x_max":324,"o":"m 124 931 q 161 933 153 999 l 193 593 q 181 10 246 133 q 165 1 171 -7 q 160 25 160 8 q 143 288 163 142 q 114 551 143 293 l 83 803 q 89 850 81 831 l 124 931 m 101 1215 q 144 1274 125 1250 q 176 1310 163 1297 q 251 1344 215 1344 q 315 1299 306 1344 q 294 1213 324 1258 q 114 1113 215 1106 q 69 1123 92 1115 q 24 1144 46 1131 q -7 1140 7 1154 l -19 1131 q -36 1122 -32 1121 q -39 1142 -44 1129 q 67 1229 19 1254 q 83 1222 74 1225 q 101 1215 92 1218 m 154 1243 q 129 1210 140 1226 q 251 1231 189 1200 q 246 1271 257 1258 q 222 1281 239 1279 q 154 1243 190 1281 z "},"ﭐ":{"ha":301,"x_min":-44,"x_max":324,"o":"m 124 931 q 161 933 153 999 l 193 593 q 181 10 246 133 q 165 1 171 -7 q 160 25 160 8 q 143 288 163 142 q 114 551 143 293 l 83 803 q 89 850 81 831 l 124 931 m 101 1215 q 144 1274 125 1250 q 176 1310 163 1297 q 251 1344 215 1344 q 315 1299 306 1344 q 294 1213 324 1258 q 114 1113 215 1106 q 69 1123 92 1115 q 24 1144 46 1131 q -7 1140 7 1154 l -19 1131 q -36 1122 -32 1121 q -39 1142 -44 1129 q 67 1229 19 1254 q 83 1222 74 1225 q 101 1215 92 1218 m 154 1243 q 129 1210 140 1226 q 251 1231 189 1200 q 246 1271 257 1258 q 222 1281 239 1279 q 154 1243 190 1281 z "},"ٲ":{"ha":301,"x_min":-244,"x_max":267,"o":"m 124 931 q 161 933 153 999 l 193 593 q 181 10 246 133 q 165 1 171 -7 q 160 25 160 8 q 143 288 163 142 q 114 551 143 293 l 83 803 q 89 850 81 831 l 124 931 m -4 1114 q 19 1131 11 1121 q -39 1189 -32 1156 q 8 1325 -50 1246 q 132 1399 67 1404 q 169 1351 174 1394 q 144 1279 165 1308 q 111 1274 125 1251 q 69 1299 97 1297 q 26 1282 42 1301 q 28 1247 11 1263 q 164 1200 75 1201 q 181 1202 171 1200 q 206 1207 192 1204 q 231 1212 221 1210 q 246 1214 240 1214 q 263 1204 258 1214 q 264 1189 267 1196 q 215 1129 239 1133 q 107 1099 163 1118 q -8 1056 51 1081 q -117 1071 -43 1042 q -175 1067 -149 1085 q -229 1008 -200 1050 q -239 1008 -233 1003 q -242 1021 -244 1014 q -158 1128 -193 1106 q -93 1136 -125 1150 q -4 1114 -21 1107 z "},"ٳ":{"ha":301,"x_min":-133,"x_max":378,"o":"m 124 931 q 161 933 153 999 l 193 593 q 181 10 246 133 q 165 1 171 -7 q 160 25 160 8 q 143 288 163 142 q 114 551 143 293 l 83 803 q 89 850 81 831 l 124 931 m 107 -340 q 131 -324 122 -333 q 72 -265 79 -299 q 119 -129 61 -208 q 243 -56 178 -50 q 281 -103 285 -60 q 256 -175 276 -146 q 222 -181 236 -203 q 181 -156 208 -157 q 138 -172 153 -153 q 139 -207 122 -192 q 275 -254 186 -253 q 292 -252 282 -254 q 317 -247 303 -250 q 342 -242 332 -244 q 357 -240 351 -240 q 374 -250 369 -240 q 375 -265 378 -258 q 326 -325 350 -321 q 218 -355 274 -336 q 103 -399 163 -374 q -6 -383 68 -412 q -64 -387 -37 -369 q -118 -446 -89 -404 q -128 -446 -122 -451 q -131 -433 -133 -440 q -47 -326 -82 -349 q 18 -318 -14 -304 q 107 -340 90 -347 z "},"ٴ":{"ha":529,"x_min":78,"x_max":450,"o":"m 428 539 q 410 511 421 518 q 294 458 358 493 q 151 371 229 424 q 129 371 138 363 q 126 375 126 374 q 192 467 114 400 q 88 576 78 508 q 174 725 93 632 q 256 779 222 779 q 319 701 326 779 q 301 649 318 676 q 267 642 286 622 q 176 663 204 701 q 226 582 147 619 q 338 571 275 558 q 381 589 357 575 q 404 601 393 596 q 424 607 415 606 q 439 575 450 611 l 428 539 z "},"ٵ":{"ha":831,"x_min":81,"x_max":751,"o":"m 124 931 q 161 933 153 999 l 193 593 q 181 10 246 133 q 165 1 171 -7 q 160 25 160 8 q 143 288 163 142 q 114 551 143 293 l 83 803 q 89 850 81 831 l 124 931 m 729 719 q 711 692 722 699 q 595 639 660 674 q 453 551 531 604 q 431 551 439 543 q 428 556 428 554 q 493 647 415 581 q 389 757 379 689 q 475 906 394 813 q 557 960 524 960 q 621 882 628 960 q 603 829 619 857 q 568 822 588 803 q 478 843 506 882 q 528 763 449 800 q 639 751 576 739 q 682 769 658 756 q 706 781 694 776 q 725 788 717 786 q 740 756 751 792 l 729 719 z "},"ٶ":{"ha":1085,"x_min":-117,"x_max":1006,"o":"m 235 269 q 349 403 283 404 q 424 347 389 403 q 451 289 442 319 q 467 224 461 258 q 446 31 478 154 q 324 -196 414 -93 q 178 -306 232 -300 q 31 -297 122 -311 q -48 -281 -15 -290 q -101 -264 -81 -272 q -115 -247 -117 -257 q -97 -239 -112 -236 q 110 -231 11 -254 q 181 -196 139 -224 q 279 -119 224 -168 q 368 -31 335 -71 q 411 43 401 10 q 394 107 404 101 q 260 67 342 25 q 235 269 178 108 m 361 218 q 275 224 321 283 q 361 218 310 185 m 983 539 q 965 511 976 518 q 849 458 914 493 q 707 371 785 424 q 685 371 693 363 q 682 375 682 374 q 747 467 669 400 q 643 576 633 508 q 729 725 649 632 q 811 779 778 779 q 875 701 882 779 q 857 649 874 676 q 822 642 842 622 q 732 663 760 701 q 782 582 703 619 q 893 571 831 558 q 936 589 913 575 q 960 601 949 596 q 979 607 971 606 q 994 575 1006 611 l 983 539 z "},"ٷ":{"ha":1085,"x_min":-117,"x_max":1006,"o":"m 235 269 q 349 403 283 404 q 424 347 389 403 q 451 289 442 319 q 467 224 461 258 q 446 31 478 154 q 324 -196 414 -93 q 178 -306 232 -300 q 31 -297 122 -311 q -48 -281 -15 -290 q -101 -264 -81 -272 q -115 -247 -117 -257 q -97 -239 -112 -236 q 110 -231 11 -254 q 181 -196 139 -224 q 279 -119 224 -168 q 368 -31 335 -71 q 411 43 401 10 q 394 107 404 101 q 260 67 342 25 q 235 269 178 108 m 361 218 q 275 224 321 283 q 361 218 310 185 m 317 913 q 396 779 396 913 q 289 497 396 674 q 264 485 276 478 q 261 513 251 492 q 324 758 349 689 q 279 790 311 790 q 238 751 254 790 q 224 742 232 738 q 217 763 215 746 q 317 913 226 913 m 983 539 q 965 511 976 518 q 849 458 914 493 q 707 371 785 424 q 685 371 693 363 q 682 375 682 374 q 747 467 669 400 q 643 576 633 508 q 729 725 649 632 q 811 779 778 779 q 875 701 882 779 q 857 649 874 676 q 822 642 842 622 q 732 663 760 701 q 782 582 703 619 q 893 571 831 558 q 936 589 913 575 q 960 601 949 596 q 979 607 971 606 q 994 575 1006 611 l 983 539 z "},"ﯝ":{"ha":1085,"x_min":-117,"x_max":1006,"o":"m 235 269 q 349 403 283 404 q 424 347 389 403 q 451 289 442 319 q 467 224 461 258 q 446 31 478 154 q 324 -196 414 -93 q 178 -306 232 -300 q 31 -297 122 -311 q -48 -281 -15 -290 q -101 -264 -81 -272 q -115 -247 -117 -257 q -97 -239 -112 -236 q 110 -231 11 -254 q 181 -196 139 -224 q 279 -119 224 -168 q 368 -31 335 -71 q 411 43 401 10 q 394 107 404 101 q 260 67 342 25 q 235 269 178 108 m 361 218 q 275 224 321 283 q 361 218 310 185 m 317 913 q 396 779 396 913 q 289 497 396 674 q 264 485 276 478 q 261 513 251 492 q 324 758 349 689 q 279 790 311 790 q 238 751 254 790 q 224 742 232 738 q 217 763 215 746 q 317 913 226 913 m 983 539 q 965 511 976 518 q 849 458 914 493 q 707 371 785 424 q 685 371 693 363 q 682 375 682 374 q 747 467 669 400 q 643 576 633 508 q 729 725 649 632 q 811 779 778 779 q 875 701 882 779 q 857 649 874 676 q 822 642 842 622 q 732 663 760 701 q 782 582 703 619 q 893 571 831 558 q 936 589 913 575 q 960 601 949 596 q 979 607 971 606 q 994 575 1006 611 l 983 539 z "},"ٸ":{"ha":1590,"x_min":75,"x_max":1511,"o":"m 932 400 q 721 374 847 444 q 606 235 638 325 q 608 199 600 218 q 786 124 638 132 q 942 61 936 115 q 879 -108 956 -46 q 425 -279 679 -268 q 89 -54 121 -292 q 142 201 75 54 q 183 276 161 242 q 229 342 204 311 q 251 344 243 358 q 250 319 258 332 q 161 6 113 126 q 439 -147 224 -151 q 867 -12 703 -143 q 868 7 881 -3 q 711 35 844 26 q 554 104 575 43 q 557 242 532 167 q 753 496 607 392 q 821 538 789 524 q 879 553 853 551 q 968 424 1006 561 q 932 400 957 385 m 543 -401 q 554 -399 546 -397 q 606 -422 582 -408 q 653 -456 631 -436 q 654 -468 658 -461 l 588 -574 q 575 -571 585 -578 q 551 -555 571 -567 q 496 -522 532 -543 l 443 -604 q 429 -603 439 -611 q 400 -583 424 -599 q 332 -542 376 -568 q 331 -533 326 -537 l 399 -432 q 410 -429 401 -428 q 454 -448 433 -436 q 493 -475 475 -460 l 543 -401 m 1489 733 q 1471 706 1482 713 q 1355 653 1419 688 q 1213 565 1290 618 q 1190 565 1199 557 q 1188 569 1188 568 q 1253 661 1175 594 q 1149 771 1139 703 q 1235 919 1154 826 q 1317 974 1283 974 q 1381 896 1388 974 q 1363 843 1379 871 q 1328 836 1347 817 q 1238 857 1265 896 q 1288 776 1208 814 q 1399 765 1336 753 q 1442 783 1418 769 q 1465 795 1454 790 q 1485 801 1476 800 q 1500 769 1511 806 l 1489 733 z "},"ٹ":{"ha":1286,"x_min":58,"x_max":1207,"o":"m 1140 517 q 1173 463 1160 494 q 1193 390 1186 431 q 1190 235 1207 311 q 1135 138 1174 160 q 885 36 1024 74 q 579 -10 746 -1 q 132 115 246 -26 q 110 328 58 207 q 140 380 121 353 q 185 436 158 407 q 203 443 193 446 q 213 432 210 442 q 208 417 215 424 q 168 357 183 389 q 161 300 154 326 q 564 126 210 119 q 887 163 742 129 q 1146 263 1032 197 q 1079 396 1142 317 q 1082 429 1076 400 q 1083 433 1083 432 q 1114 517 1090 467 q 1140 517 1122 536 m 594 872 q 608 856 606 879 q 626 685 622 756 q 622 575 629 615 q 665 618 644 599 q 707 653 686 638 q 779 671 747 683 q 826 622 813 657 q 789 519 842 585 q 701 482 779 506 q 540 454 622 458 q 481 481 503 461 q 453 511 456 503 q 456 521 449 522 q 508 518 482 518 q 561 519 535 518 l 597 556 q 594 673 600 604 q 575 828 589 742 q 576 835 575 831 q 582 850 578 840 q 594 872 592 871 m 706 607 q 667 581 693 601 q 600 524 640 561 q 783 581 692 536 q 706 607 761 626 z "},"ﭦ":{"ha":1286,"x_min":58,"x_max":1207,"o":"m 1140 517 q 1173 463 1160 494 q 1193 390 1186 431 q 1190 235 1207 311 q 1135 138 1174 160 q 885 36 1024 74 q 579 -10 746 -1 q 132 115 246 -26 q 110 328 58 207 q 140 380 121 353 q 185 436 158 407 q 203 443 193 446 q 213 432 210 442 q 208 417 215 424 q 168 357 183 389 q 161 300 154 326 q 564 126 210 119 q 887 163 742 129 q 1146 263 1032 197 q 1079 396 1142 317 q 1082 429 1076 400 q 1083 433 1083 432 q 1114 517 1090 467 q 1140 517 1122 536 m 594 872 q 608 856 606 879 q 626 685 622 756 q 622 575 629 615 q 665 618 644 599 q 707 653 686 638 q 779 671 747 683 q 826 622 813 657 q 789 519 842 585 q 701 482 779 506 q 540 454 622 458 q 481 481 503 461 q 453 511 456 503 q 456 521 449 522 q 508 518 482 518 q 561 519 535 518 l 597 556 q 594 673 600 604 q 575 828 589 742 q 576 835 575 831 q 582 850 578 840 q 594 872 592 871 m 706 607 q 667 581 693 601 q 600 524 640 561 q 783 581 692 536 q 706 607 761 626 z "},"ٺ":{"ha":1286,"x_min":58,"x_max":1207,"o":"m 1140 517 q 1173 463 1160 494 q 1193 390 1186 431 q 1190 235 1207 311 q 1135 138 1174 160 q 885 36 1024 74 q 579 -10 746 -1 q 132 115 246 -26 q 110 328 58 207 q 140 380 121 353 q 185 436 158 407 q 203 443 193 446 q 213 432 210 442 q 208 417 215 424 q 168 357 183 389 q 161 300 154 326 q 564 126 210 119 q 887 163 742 129 q 1146 263 1032 197 q 1079 396 1142 317 q 1082 429 1076 400 q 1083 433 1083 432 q 1114 517 1090 467 q 1140 517 1122 536 m 590 800 q 603 803 593 806 q 700 744 656 785 q 703 732 707 738 l 658 663 q 728 615 694 646 q 729 604 733 610 l 664 499 q 650 500 660 492 q 621 519 644 504 q 553 561 597 535 q 550 569 546 565 l 600 644 q 525 690 575 660 q 524 699 519 694 l 590 800 z "},"ﭞ":{"ha":1286,"x_min":58,"x_max":1207,"o":"m 1140 517 q 1173 463 1160 494 q 1193 390 1186 431 q 1190 235 1207 311 q 1135 138 1174 160 q 885 36 1024 74 q 579 -10 746 -1 q 132 115 246 -26 q 110 328 58 207 q 140 380 121 353 q 185 436 158 407 q 203 443 193 446 q 213 432 210 442 q 208 417 215 424 q 168 357 183 389 q 161 300 154 326 q 564 126 210 119 q 887 163 742 129 q 1146 263 1032 197 q 1079 396 1142 317 q 1082 429 1076 400 q 1083 433 1083 432 q 1114 517 1090 467 q 1140 517 1122 536 m 590 800 q 603 803 593 806 q 700 744 656 785 q 703 732 707 738 l 658 663 q 728 615 694 646 q 729 604 733 610 l 664 499 q 650 500 660 492 q 621 519 644 504 q 553 561 597 535 q 550 569 546 565 l 600 644 q 525 690 575 660 q 524 699 519 694 l 590 800 z "},"ٻ":{"ha":1286,"x_min":58,"x_max":1207,"o":"m 1140 517 q 1173 463 1160 494 q 1193 390 1186 431 q 1190 235 1207 311 q 1135 138 1174 160 q 885 36 1024 74 q 579 -10 746 -1 q 132 115 246 -26 q 110 328 58 207 q 140 380 121 353 q 185 436 158 407 q 203 443 193 446 q 213 432 210 442 q 208 417 215 424 q 168 357 183 389 q 161 300 154 326 q 564 126 210 119 q 887 163 742 129 q 1146 263 1032 197 q 1079 396 1142 317 q 1082 429 1076 400 q 1083 433 1083 432 q 1114 517 1090 467 q 1140 517 1122 536 m 656 -190 q 668 -187 658 -185 q 765 -246 721 -206 q 768 -258 772 -253 l 724 -328 q 793 -375 760 -344 q 794 -386 799 -381 l 729 -492 q 715 -490 725 -499 q 686 -471 710 -486 q 618 -429 663 -456 q 615 -421 611 -425 l 665 -346 q 590 -300 640 -331 q 589 -292 585 -296 l 656 -190 z "},"ﭒ":{"ha":1286,"x_min":58,"x_max":1207,"o":"m 1140 517 q 1173 463 1160 494 q 1193 390 1186 431 q 1190 235 1207 311 q 1135 138 1174 160 q 885 36 1024 74 q 579 -10 746 -1 q 132 115 246 -26 q 110 328 58 207 q 140 380 121 353 q 185 436 158 407 q 203 443 193 446 q 213 432 210 442 q 208 417 215 424 q 168 357 183 389 q 161 300 154 326 q 564 126 210 119 q 887 163 742 129 q 1146 263 1032 197 q 1079 396 1142 317 q 1082 429 1076 400 q 1083 433 1083 432 q 1114 517 1090 467 q 1140 517 1122 536 m 656 -190 q 668 -187 658 -185 q 765 -246 721 -206 q 768 -258 772 -253 l 724 -328 q 793 -375 760 -344 q 794 -386 799 -381 l 729 -492 q 715 -490 725 -499 q 686 -471 710 -486 q 618 -429 663 -456 q 615 -421 611 -425 l 665 -346 q 590 -300 640 -331 q 589 -292 585 -296 l 656 -190 z "},"ټ":{"ha":1286,"x_min":58,"x_max":1207,"o":"m 1140 517 q 1173 463 1160 494 q 1193 390 1186 431 q 1190 235 1207 311 q 1135 138 1174 160 q 885 36 1024 74 q 579 -10 746 -1 q 132 115 246 -26 q 110 328 58 207 q 140 380 121 353 q 185 436 158 407 q 203 443 193 446 q 213 432 210 442 q 208 417 215 424 q 168 357 183 389 q 161 300 154 326 q 564 126 210 119 q 887 163 742 129 q 1146 263 1032 197 q 1079 396 1142 317 q 1082 429 1076 400 q 1083 433 1083 432 q 1114 517 1090 467 q 1140 517 1122 536 m 688 701 q 699 704 690 706 q 751 681 726 694 q 797 647 775 667 q 799 635 803 642 l 732 529 q 719 532 729 525 q 696 548 715 536 q 640 581 676 560 l 588 499 q 574 500 583 492 q 544 519 568 504 q 476 561 521 535 q 475 569 471 565 l 543 671 q 554 674 546 675 q 599 655 578 667 q 638 628 619 643 l 688 701 m 756 -51 q 750 -108 756 -90 q 644 -175 732 -179 q 571 -78 563 -174 q 625 50 582 17 q 718 42 671 85 q 756 -51 753 13 m 728 -86 q 658 -1 710 -4 q 613 -22 629 0 q 601 -74 597 -44 q 651 -110 606 -106 q 722 -94 696 -114 q 728 -86 728 -90 z "},"ٽ":{"ha":1286,"x_min":58,"x_max":1207,"o":"m 1140 517 q 1173 463 1160 494 q 1193 390 1186 431 q 1190 235 1207 311 q 1135 138 1174 160 q 885 36 1024 74 q 579 -10 746 -1 q 132 115 246 -26 q 110 328 58 207 q 140 380 121 353 q 185 436 158 407 q 203 443 193 446 q 213 432 210 442 q 208 417 215 424 q 168 357 183 389 q 161 300 154 326 q 564 126 210 119 q 887 163 742 129 q 1146 263 1032 197 q 1079 396 1142 317 q 1082 429 1076 400 q 1083 433 1083 432 q 1114 517 1090 467 q 1140 517 1122 536 m 597 639 q 586 636 594 635 q 535 660 560 646 q 488 693 510 674 q 486 706 482 699 l 553 811 q 565 808 556 815 q 587 795 569 806 q 635 765 604 785 l 683 842 q 697 840 688 849 q 727 821 703 836 q 794 779 751 806 q 796 771 800 775 l 728 669 q 718 668 725 665 q 717 668 717 668 q 678 684 697 675 q 643 706 660 693 l 597 639 m 693 494 q 682 492 690 490 q 631 515 656 501 q 583 549 606 529 q 582 561 578 554 l 647 667 q 661 664 651 672 q 691 644 667 660 q 758 603 715 629 q 761 594 765 599 l 693 494 z "},"پ":{"ha":1286,"x_min":58,"x_max":1207,"o":"m 1140 517 q 1173 463 1160 494 q 1193 390 1186 431 q 1190 235 1207 311 q 1135 138 1174 160 q 885 36 1024 74 q 579 -10 746 -1 q 132 115 246 -26 q 110 328 58 207 q 140 380 121 353 q 185 436 158 407 q 203 443 193 446 q 213 432 210 442 q 208 417 215 424 q 168 357 183 389 q 161 300 154 326 q 564 126 210 119 q 887 163 742 129 q 1146 263 1032 197 q 1079 396 1142 317 q 1082 429 1076 400 q 1083 433 1083 432 q 1114 517 1090 467 q 1140 517 1122 536 m 646 -324 q 635 -326 643 -328 q 583 -303 608 -317 q 536 -269 558 -289 q 535 -257 531 -264 l 601 -151 q 614 -154 604 -147 q 635 -167 618 -157 q 683 -197 653 -178 l 732 -121 q 746 -122 736 -114 q 776 -142 751 -126 q 843 -183 800 -157 q 844 -192 849 -187 l 776 -293 q 767 -294 774 -297 q 765 -294 765 -294 q 727 -278 746 -287 q 692 -257 708 -269 l 646 -324 m 742 -468 q 731 -471 739 -472 q 679 -447 704 -461 q 632 -414 654 -433 q 631 -401 626 -408 l 696 -296 q 710 -299 700 -290 q 740 -318 715 -303 q 807 -360 764 -333 q 810 -368 814 -364 l 742 -468 z "},"ﭖ":{"ha":1286,"x_min":58,"x_max":1207,"o":"m 1140 517 q 1173 463 1160 494 q 1193 390 1186 431 q 1190 235 1207 311 q 1135 138 1174 160 q 885 36 1024 74 q 579 -10 746 -1 q 132 115 246 -26 q 110 328 58 207 q 140 380 121 353 q 185 436 158 407 q 203 443 193 446 q 213 432 210 442 q 208 417 215 424 q 168 357 183 389 q 161 300 154 326 q 564 126 210 119 q 887 163 742 129 q 1146 263 1032 197 q 1079 396 1142 317 q 1082 429 1076 400 q 1083 433 1083 432 q 1114 517 1090 467 q 1140 517 1122 536 m 646 -324 q 635 -326 643 -328 q 583 -303 608 -317 q 536 -269 558 -289 q 535 -257 531 -264 l 601 -151 q 614 -154 604 -147 q 635 -167 618 -157 q 683 -197 653 -178 l 732 -121 q 746 -122 736 -114 q 776 -142 751 -126 q 843 -183 800 -157 q 844 -192 849 -187 l 776 -293 q 767 -294 774 -297 q 765 -294 765 -294 q 727 -278 746 -287 q 692 -257 708 -269 l 646 -324 m 742 -468 q 731 -471 739 -472 q 679 -447 704 -461 q 632 -414 654 -433 q 631 -401 626 -408 l 696 -296 q 710 -299 700 -290 q 740 -318 715 -303 q 807 -360 764 -333 q 810 -368 814 -364 l 742 -468 z "},"ٿ":{"ha":1286,"x_min":58,"x_max":1207,"o":"m 1140 517 q 1173 463 1160 494 q 1193 390 1186 431 q 1190 235 1207 311 q 1135 138 1174 160 q 885 36 1024 74 q 579 -10 746 -1 q 132 115 246 -26 q 110 328 58 207 q 140 380 121 353 q 185 436 158 407 q 203 443 193 446 q 213 432 210 442 q 208 417 215 424 q 168 357 183 389 q 161 300 154 326 q 564 126 210 119 q 887 163 742 129 q 1146 263 1032 197 q 1079 396 1142 317 q 1082 429 1076 400 q 1083 433 1083 432 q 1114 517 1090 467 q 1140 517 1122 536 m 522 833 q 533 836 525 838 q 578 817 557 829 q 617 790 599 806 l 668 865 q 679 868 671 869 q 778 810 735 849 q 779 797 783 804 l 717 697 q 759 676 739 688 q 797 647 779 664 q 799 635 803 642 l 732 529 q 719 532 729 525 q 696 548 715 536 q 640 581 676 560 l 588 499 q 574 500 583 492 q 544 519 568 504 q 476 561 521 535 q 475 569 471 565 l 542 669 q 509 690 531 676 q 456 724 488 704 q 454 732 450 728 l 522 833 m 638 628 l 688 701 l 688 703 q 660 720 678 710 q 619 744 643 731 l 571 667 q 606 649 589 660 q 638 628 622 639 z "},"ﭢ":{"ha":1286,"x_min":58,"x_max":1207,"o":"m 1140 517 q 1173 463 1160 494 q 1193 390 1186 431 q 1190 235 1207 311 q 1135 138 1174 160 q 885 36 1024 74 q 579 -10 746 -1 q 132 115 246 -26 q 110 328 58 207 q 140 380 121 353 q 185 436 158 407 q 203 443 193 446 q 213 432 210 442 q 208 417 215 424 q 168 357 183 389 q 161 300 154 326 q 564 126 210 119 q 887 163 742 129 q 1146 263 1032 197 q 1079 396 1142 317 q 1082 429 1076 400 q 1083 433 1083 432 q 1114 517 1090 467 q 1140 517 1122 536 m 522 833 q 533 836 525 838 q 578 817 557 829 q 617 790 599 806 l 668 865 q 679 868 671 869 q 778 810 735 849 q 779 797 783 804 l 717 697 q 759 676 739 688 q 797 647 779 664 q 799 635 803 642 l 732 529 q 719 532 729 525 q 696 548 715 536 q 640 581 676 560 l 588 499 q 574 500 583 492 q 544 519 568 504 q 476 561 521 535 q 475 569 471 565 l 542 669 q 509 690 531 676 q 456 724 488 704 q 454 732 450 728 l 522 833 m 638 628 l 688 701 l 688 703 q 660 720 678 710 q 619 744 643 731 l 571 667 q 606 649 589 660 q 638 628 622 639 z "},"ڀ":{"ha":1286,"x_min":58,"x_max":1207,"o":"m 1140 517 q 1173 463 1160 494 q 1193 390 1186 431 q 1190 235 1207 311 q 1135 138 1174 160 q 885 36 1024 74 q 579 -10 746 -1 q 132 115 246 -26 q 110 328 58 207 q 140 380 121 353 q 185 436 158 407 q 203 443 193 446 q 213 432 210 442 q 208 417 215 424 q 168 357 183 389 q 161 300 154 326 q 564 126 210 119 q 887 163 742 129 q 1146 263 1032 197 q 1079 396 1142 317 q 1082 429 1076 400 q 1083 433 1083 432 q 1114 517 1090 467 q 1140 517 1122 536 m 588 -122 q 599 -119 590 -118 q 643 -138 622 -126 q 682 -165 664 -150 l 733 -90 q 744 -87 736 -86 q 843 -146 800 -107 q 844 -158 849 -151 l 782 -258 q 824 -280 804 -268 q 863 -308 844 -292 q 864 -321 868 -314 l 797 -426 q 785 -424 794 -431 q 761 -408 781 -419 q 706 -375 742 -396 l 653 -457 q 639 -456 649 -464 q 610 -436 633 -451 q 542 -394 586 -421 q 540 -386 536 -390 l 607 -286 q 574 -265 596 -279 q 521 -232 553 -251 q 519 -224 515 -228 l 588 -122 m 703 -328 l 753 -254 l 753 -253 q 726 -235 743 -246 q 685 -211 708 -225 l 636 -289 q 671 -306 654 -296 q 703 -328 688 -317 z "},"ﭚ":{"ha":1286,"x_min":58,"x_max":1207,"o":"m 1140 517 q 1173 463 1160 494 q 1193 390 1186 431 q 1190 235 1207 311 q 1135 138 1174 160 q 885 36 1024 74 q 579 -10 746 -1 q 132 115 246 -26 q 110 328 58 207 q 140 380 121 353 q 185 436 158 407 q 203 443 193 446 q 213 432 210 442 q 208 417 215 424 q 168 357 183 389 q 161 300 154 326 q 564 126 210 119 q 887 163 742 129 q 1146 263 1032 197 q 1079 396 1142 317 q 1082 429 1076 400 q 1083 433 1083 432 q 1114 517 1090 467 q 1140 517 1122 536 m 588 -122 q 599 -119 590 -118 q 643 -138 622 -126 q 682 -165 664 -150 l 733 -90 q 744 -87 736 -86 q 843 -146 800 -107 q 844 -158 849 -151 l 782 -258 q 824 -280 804 -268 q 863 -308 844 -292 q 864 -321 868 -314 l 797 -426 q 785 -424 794 -431 q 761 -408 781 -419 q 706 -375 742 -396 l 653 -457 q 639 -456 649 -464 q 610 -436 633 -451 q 542 -394 586 -421 q 540 -386 536 -390 l 607 -286 q 574 -265 596 -279 q 521 -232 553 -251 q 519 -224 515 -228 l 588 -122 m 703 -328 l 753 -254 l 753 -253 q 726 -235 743 -246 q 685 -211 708 -225 l 636 -289 q 671 -306 654 -296 q 703 -328 688 -317 z "},"ځ":{"ha":918,"x_min":39,"x_max":1054,"o":"m 879 314 l 846 239 q 831 226 840 228 q 365 96 497 183 q 161 -317 106 -75 q 361 -525 193 -450 q 651 -578 454 -565 q 843 -582 750 -583 q 1021 -574 936 -581 q 1049 -579 1043 -571 q 1049 -597 1054 -587 q 1041 -605 1046 -603 q 1031 -610 1036 -607 q 899 -664 946 -635 q 841 -696 864 -686 q 810 -707 818 -706 q 221 -611 401 -742 q 104 -197 39 -479 q 440 215 169 88 q 160 206 256 261 q 143 203 150 201 q 136 213 136 204 q 150 281 139 247 q 283 360 175 354 q 454 339 338 363 q 653 318 571 315 q 743 324 693 319 q 853 339 793 329 q 879 314 893 344 m 578 633 q 513 621 540 626 q 471 610 486 615 q 426 592 456 604 q 354 561 397 581 q 328 567 336 553 q 382 635 311 592 q 324 693 331 660 q 371 831 313 751 q 494 904 429 910 q 532 857 536 900 q 507 785 528 814 q 474 778 488 757 q 432 804 458 803 q 389 788 404 807 q 390 751 372 767 q 526 706 436 708 q 544 708 533 706 q 568 713 554 710 q 593 717 583 715 q 608 719 603 719 q 625 710 621 719 q 626 694 629 701 q 578 633 599 638 z "},"ڂ":{"ha":918,"x_min":39,"x_max":1054,"o":"m 879 314 l 846 239 q 831 226 840 228 q 365 96 497 183 q 161 -317 106 -75 q 361 -525 193 -450 q 651 -578 454 -565 q 843 -582 750 -583 q 1021 -574 936 -581 q 1049 -579 1043 -571 q 1049 -597 1054 -587 q 1041 -605 1046 -603 q 1031 -610 1036 -607 q 899 -664 946 -635 q 841 -696 864 -686 q 810 -707 818 -706 q 221 -611 401 -742 q 104 -197 39 -479 q 440 215 169 88 q 160 206 256 261 q 143 203 150 201 q 136 213 136 204 q 150 281 139 247 q 283 360 175 354 q 454 339 338 363 q 653 318 571 315 q 743 324 693 319 q 853 339 793 329 q 879 314 893 344 m 425 821 q 438 824 428 826 q 535 765 490 806 q 538 753 542 758 l 493 683 q 563 636 529 667 q 564 625 568 631 l 499 519 q 485 521 494 513 q 456 540 479 525 q 388 582 432 556 q 385 590 381 586 l 435 665 q 360 711 410 681 q 358 719 354 715 l 425 821 z "},"ڃ":{"ha":918,"x_min":39,"x_max":1054,"o":"m 879 314 l 846 239 q 831 226 840 228 q 365 96 497 183 q 161 -317 106 -75 q 361 -525 193 -450 q 651 -578 454 -565 q 843 -582 750 -583 q 1021 -574 936 -581 q 1049 -579 1043 -571 q 1049 -597 1054 -587 q 1041 -605 1046 -603 q 1031 -610 1036 -607 q 899 -664 946 -635 q 841 -696 864 -686 q 810 -707 818 -706 q 221 -611 401 -742 q 104 -197 39 -479 q 440 215 169 88 q 160 206 256 261 q 143 203 150 201 q 136 213 136 204 q 150 281 139 247 q 283 360 175 354 q 454 339 338 363 q 653 318 571 315 q 743 324 693 319 q 853 339 793 329 q 879 314 893 344 m 626 -96 q 638 -93 629 -92 q 690 -117 665 -103 q 736 -150 714 -131 q 738 -162 742 -156 l 671 -268 q 658 -265 668 -272 q 635 -249 654 -261 q 579 -217 615 -237 l 526 -299 q 513 -297 522 -306 q 483 -278 507 -293 q 415 -236 460 -262 q 414 -228 410 -232 l 482 -126 q 493 -124 485 -122 q 538 -142 517 -131 q 576 -169 558 -154 l 626 -96 z "},"ﭶ":{"ha":918,"x_min":39,"x_max":1054,"o":"m 879 314 l 846 239 q 831 226 840 228 q 365 96 497 183 q 161 -317 106 -75 q 361 -525 193 -450 q 651 -578 454 -565 q 843 -582 750 -583 q 1021 -574 936 -581 q 1049 -579 1043 -571 q 1049 -597 1054 -587 q 1041 -605 1046 -603 q 1031 -610 1036 -607 q 899 -664 946 -635 q 841 -696 864 -686 q 810 -707 818 -706 q 221 -611 401 -742 q 104 -197 39 -479 q 440 215 169 88 q 160 206 256 261 q 143 203 150 201 q 136 213 136 204 q 150 281 139 247 q 283 360 175 354 q 454 339 338 363 q 653 318 571 315 q 743 324 693 319 q 853 339 793 329 q 879 314 893 344 m 626 -96 q 638 -93 629 -92 q 690 -117 665 -103 q 736 -150 714 -131 q 738 -162 742 -156 l 671 -268 q 658 -265 668 -272 q 635 -249 654 -261 q 579 -217 615 -237 l 526 -299 q 513 -297 522 -306 q 483 -278 507 -293 q 415 -236 460 -262 q 414 -228 410 -232 l 482 -126 q 493 -124 485 -122 q 538 -142 517 -131 q 576 -169 558 -154 l 626 -96 z "},"ڄ":{"ha":918,"x_min":39,"x_max":1054,"o":"m 879 314 l 846 239 q 831 226 840 228 q 365 96 497 183 q 161 -317 106 -75 q 361 -525 193 -450 q 651 -578 454 -565 q 843 -582 750 -583 q 1021 -574 936 -581 q 1049 -579 1043 -571 q 1049 -597 1054 -587 q 1041 -605 1046 -603 q 1031 -610 1036 -607 q 899 -664 946 -635 q 841 -696 864 -686 q 810 -707 818 -706 q 221 -611 401 -742 q 104 -197 39 -479 q 440 215 169 88 q 160 206 256 261 q 143 203 150 201 q 136 213 136 204 q 150 281 139 247 q 283 360 175 354 q 454 339 338 363 q 653 318 571 315 q 743 324 693 319 q 853 339 793 329 q 879 314 893 344 m 521 -68 q 533 -65 524 -62 q 631 -124 586 -83 q 633 -136 638 -131 l 589 -206 q 658 -253 625 -222 q 660 -264 664 -258 l 594 -369 q 581 -368 590 -376 q 551 -349 575 -364 q 483 -307 528 -333 q 481 -299 476 -303 l 531 -224 q 456 -178 506 -208 q 454 -169 450 -174 l 521 -68 z "},"ﭲ":{"ha":918,"x_min":39,"x_max":1054,"o":"m 879 314 l 846 239 q 831 226 840 228 q 365 96 497 183 q 161 -317 106 -75 q 361 -525 193 -450 q 651 -578 454 -565 q 843 -582 750 -583 q 1021 -574 936 -581 q 1049 -579 1043 -571 q 1049 -597 1054 -587 q 1041 -605 1046 -603 q 1031 -610 1036 -607 q 899 -664 946 -635 q 841 -696 864 -686 q 810 -707 818 -706 q 221 -611 401 -742 q 104 -197 39 -479 q 440 215 169 88 q 160 206 256 261 q 143 203 150 201 q 136 213 136 204 q 150 281 139 247 q 283 360 175 354 q 454 339 338 363 q 653 318 571 315 q 743 324 693 319 q 853 339 793 329 q 879 314 893 344 m 521 -68 q 533 -65 524 -62 q 631 -124 586 -83 q 633 -136 638 -131 l 589 -206 q 658 -253 625 -222 q 660 -264 664 -258 l 594 -369 q 581 -368 590 -376 q 551 -349 575 -364 q 483 -307 528 -333 q 481 -299 476 -303 l 531 -224 q 456 -178 506 -208 q 454 -169 450 -174 l 521 -68 z "},"څ":{"ha":918,"x_min":39,"x_max":1054,"o":"m 879 314 l 846 239 q 831 226 840 228 q 365 96 497 183 q 161 -317 106 -75 q 361 -525 193 -450 q 651 -578 454 -565 q 843 -582 750 -583 q 1021 -574 936 -581 q 1049 -579 1043 -571 q 1049 -597 1054 -587 q 1041 -605 1046 -603 q 1031 -610 1036 -607 q 899 -664 946 -635 q 841 -696 864 -686 q 810 -707 818 -706 q 221 -611 401 -742 q 104 -197 39 -479 q 440 215 169 88 q 160 206 256 261 q 143 203 150 201 q 136 213 136 204 q 150 281 139 247 q 283 360 175 354 q 454 339 338 363 q 653 318 571 315 q 743 324 693 319 q 853 339 793 329 q 879 314 893 344 m 517 722 q 528 725 519 726 q 580 701 556 715 q 626 668 604 688 q 628 656 632 663 l 561 550 q 549 553 558 546 q 527 567 544 556 q 479 596 510 578 l 431 518 q 417 521 426 513 q 388 540 411 525 q 319 582 364 556 q 318 590 314 586 l 386 690 q 397 693 389 694 q 435 677 417 686 q 471 656 454 668 l 517 722 m 421 867 q 432 869 424 871 q 484 846 460 860 q 531 813 508 832 q 533 800 538 806 l 467 694 q 453 697 463 689 q 424 717 447 701 q 356 758 400 732 q 353 767 349 763 l 421 867 z "},"چ":{"ha":918,"x_min":39,"x_max":1054,"o":"m 879 314 l 846 239 q 831 226 840 228 q 365 96 497 183 q 161 -317 106 -75 q 361 -525 193 -450 q 651 -578 454 -565 q 843 -582 750 -583 q 1021 -574 936 -581 q 1049 -579 1043 -571 q 1049 -597 1054 -587 q 1041 -605 1046 -603 q 1031 -610 1036 -607 q 899 -664 946 -635 q 841 -696 864 -686 q 810 -707 818 -706 q 221 -611 401 -742 q 104 -197 39 -479 q 440 215 169 88 q 160 206 256 261 q 143 203 150 201 q 136 213 136 204 q 150 281 139 247 q 283 360 175 354 q 454 339 338 363 q 653 318 571 315 q 743 324 693 319 q 853 339 793 329 q 879 314 893 344 m 503 -229 q 492 -232 500 -233 q 440 -208 465 -222 q 393 -175 415 -194 q 392 -162 388 -169 l 458 -57 q 471 -60 461 -53 q 492 -73 475 -62 q 540 -103 510 -83 l 589 -26 q 603 -28 593 -19 q 633 -47 608 -32 q 700 -89 657 -62 q 701 -97 706 -93 l 633 -199 q 624 -200 631 -203 q 622 -200 622 -200 q 584 -184 603 -193 q 549 -162 565 -175 l 503 -229 m 599 -374 q 588 -376 596 -378 q 536 -353 561 -367 q 489 -319 511 -339 q 488 -307 483 -314 l 553 -201 q 567 -204 557 -196 q 597 -224 572 -208 q 664 -265 621 -239 q 667 -274 671 -269 l 599 -374 z "},"ﭺ":{"ha":918,"x_min":39,"x_max":1054,"o":"m 879 314 l 846 239 q 831 226 840 228 q 365 96 497 183 q 161 -317 106 -75 q 361 -525 193 -450 q 651 -578 454 -565 q 843 -582 750 -583 q 1021 -574 936 -581 q 1049 -579 1043 -571 q 1049 -597 1054 -587 q 1041 -605 1046 -603 q 1031 -610 1036 -607 q 899 -664 946 -635 q 841 -696 864 -686 q 810 -707 818 -706 q 221 -611 401 -742 q 104 -197 39 -479 q 440 215 169 88 q 160 206 256 261 q 143 203 150 201 q 136 213 136 204 q 150 281 139 247 q 283 360 175 354 q 454 339 338 363 q 653 318 571 315 q 743 324 693 319 q 853 339 793 329 q 879 314 893 344 m 503 -229 q 492 -232 500 -233 q 440 -208 465 -222 q 393 -175 415 -194 q 392 -162 388 -169 l 458 -57 q 471 -60 461 -53 q 492 -73 475 -62 q 540 -103 510 -83 l 589 -26 q 603 -28 593 -19 q 633 -47 608 -32 q 700 -89 657 -62 q 701 -97 706 -93 l 633 -199 q 624 -200 631 -203 q 622 -200 622 -200 q 584 -184 603 -193 q 549 -162 565 -175 l 503 -229 m 599 -374 q 588 -376 596 -378 q 536 -353 561 -367 q 489 -319 511 -339 q 488 -307 483 -314 l 553 -201 q 567 -204 557 -196 q 597 -224 572 -208 q 664 -265 621 -239 q 667 -274 671 -269 l 599 -374 z "},"ڇ":{"ha":918,"x_min":39,"x_max":1054,"o":"m 879 314 l 846 239 q 831 226 840 228 q 365 96 497 183 q 161 -317 106 -75 q 361 -525 193 -450 q 651 -578 454 -565 q 843 -582 750 -583 q 1021 -574 936 -581 q 1049 -579 1043 -571 q 1049 -597 1054 -587 q 1041 -605 1046 -603 q 1031 -610 1036 -607 q 899 -664 946 -635 q 841 -696 864 -686 q 810 -707 818 -706 q 221 -611 401 -742 q 104 -197 39 -479 q 440 215 169 88 q 160 206 256 261 q 143 203 150 201 q 136 213 136 204 q 150 281 139 247 q 283 360 175 354 q 454 339 338 363 q 653 318 571 315 q 743 324 693 319 q 853 339 793 329 q 879 314 893 344 m 444 -54 q 456 -51 447 -50 q 500 -70 479 -58 q 539 -97 521 -82 l 590 -22 q 601 -19 593 -18 q 700 -78 657 -39 q 701 -90 706 -83 l 639 -190 q 681 -212 661 -200 q 719 -240 701 -224 q 721 -253 725 -246 l 654 -358 q 642 -356 651 -362 q 618 -340 638 -351 q 563 -307 599 -328 l 510 -389 q 496 -387 506 -396 q 467 -368 490 -383 q 399 -326 443 -353 q 397 -318 393 -322 l 464 -218 q 431 -197 453 -211 q 378 -164 410 -183 q 376 -156 372 -160 l 444 -54 m 560 -260 l 610 -186 l 610 -185 q 583 -167 600 -178 q 542 -143 565 -157 l 493 -221 q 528 -238 511 -228 q 560 -260 544 -249 z "},"ﭾ":{"ha":918,"x_min":39,"x_max":1054,"o":"m 879 314 l 846 239 q 831 226 840 228 q 365 96 497 183 q 161 -317 106 -75 q 361 -525 193 -450 q 651 -578 454 -565 q 843 -582 750 -583 q 1021 -574 936 -581 q 1049 -579 1043 -571 q 1049 -597 1054 -587 q 1041 -605 1046 -603 q 1031 -610 1036 -607 q 899 -664 946 -635 q 841 -696 864 -686 q 810 -707 818 -706 q 221 -611 401 -742 q 104 -197 39 -479 q 440 215 169 88 q 160 206 256 261 q 143 203 150 201 q 136 213 136 204 q 150 281 139 247 q 283 360 175 354 q 454 339 338 363 q 653 318 571 315 q 743 324 693 319 q 853 339 793 329 q 879 314 893 344 m 444 -54 q 456 -51 447 -50 q 500 -70 479 -58 q 539 -97 521 -82 l 590 -22 q 601 -19 593 -18 q 700 -78 657 -39 q 701 -90 706 -83 l 639 -190 q 681 -212 661 -200 q 719 -240 701 -224 q 721 -253 725 -246 l 654 -358 q 642 -356 651 -362 q 618 -340 638 -351 q 563 -307 599 -328 l 510 -389 q 496 -387 506 -396 q 467 -368 490 -383 q 399 -326 443 -353 q 397 -318 393 -322 l 464 -218 q 431 -197 453 -211 q 378 -164 410 -183 q 376 -156 372 -160 l 444 -54 m 560 -260 l 610 -186 l 610 -185 q 583 -167 600 -178 q 542 -143 565 -157 l 493 -221 q 528 -238 511 -228 q 560 -260 544 -249 z "},"ڈ":{"ha":625,"x_min":85,"x_max":532,"o":"m 236 447 q 258 503 247 482 q 276 535 268 525 q 308 538 289 549 q 524 264 492 436 q 531 174 532 217 q 517 94 529 131 q 488 61 508 74 q 349 10 422 26 q 196 -8 275 -7 q 118 133 85 -11 q 135 151 122 149 q 156 142 144 151 q 260 129 183 119 q 481 182 426 150 q 483 199 485 185 q 257 415 458 338 q 236 447 229 426 m 239 1164 q 253 1147 250 1171 q 270 977 267 1047 q 267 867 274 907 q 310 910 289 890 q 351 944 331 929 q 424 963 392 975 q 471 914 457 949 q 433 811 486 876 q 346 774 424 797 q 185 746 267 750 q 125 772 147 753 q 97 803 100 794 q 100 813 93 814 q 153 810 126 810 q 206 811 179 810 l 242 847 q 239 965 244 896 q 219 1119 233 1033 q 221 1127 219 1122 q 226 1142 222 1132 q 239 1164 236 1163 m 350 899 q 311 873 338 893 q 244 815 285 853 q 428 872 336 828 q 350 899 406 918 z "},"ﮈ":{"ha":625,"x_min":85,"x_max":532,"o":"m 236 447 q 258 503 247 482 q 276 535 268 525 q 308 538 289 549 q 524 264 492 436 q 531 174 532 217 q 517 94 529 131 q 488 61 508 74 q 349 10 422 26 q 196 -8 275 -7 q 118 133 85 -11 q 135 151 122 149 q 156 142 144 151 q 260 129 183 119 q 481 182 426 150 q 483 199 485 185 q 257 415 458 338 q 236 447 229 426 m 239 1164 q 253 1147 250 1171 q 270 977 267 1047 q 267 867 274 907 q 310 910 289 890 q 351 944 331 929 q 424 963 392 975 q 471 914 457 949 q 433 811 486 876 q 346 774 424 797 q 185 746 267 750 q 125 772 147 753 q 97 803 100 794 q 100 813 93 814 q 153 810 126 810 q 206 811 179 810 l 242 847 q 239 965 244 896 q 219 1119 233 1033 q 221 1127 219 1122 q 226 1142 222 1132 q 239 1164 236 1163 m 350 899 q 311 873 338 893 q 244 815 285 853 q 428 872 336 828 q 350 899 406 918 z "},"ډ":{"ha":625,"x_min":85,"x_max":532,"o":"m 236 447 q 258 503 247 482 q 276 535 268 525 q 308 538 289 549 q 524 264 492 436 q 531 174 532 217 q 517 94 529 131 q 488 61 508 74 q 349 10 422 26 q 196 -8 275 -7 q 118 133 85 -11 q 135 151 122 149 q 156 142 144 151 q 260 129 183 119 q 481 182 426 150 q 483 199 485 185 q 257 415 458 338 q 236 447 229 426 m 429 -37 q 424 -94 429 -76 q 318 -161 406 -165 q 244 -64 236 -160 q 299 64 256 31 q 392 56 344 99 q 429 -37 426 26 m 401 -72 q 332 13 383 10 q 286 -8 303 14 q 275 -60 271 -31 q 325 -96 279 -92 q 396 -81 369 -100 q 401 -72 401 -76 z "},"ڊ":{"ha":625,"x_min":85,"x_max":532,"o":"m 236 447 q 258 503 247 482 q 276 535 268 525 q 308 538 289 549 q 524 264 492 436 q 531 174 532 217 q 517 94 529 131 q 488 61 508 74 q 349 10 422 26 q 196 -8 275 -7 q 118 133 85 -11 q 135 151 122 149 q 156 142 144 151 q 260 129 183 119 q 481 182 426 150 q 483 199 485 185 q 257 415 458 338 q 236 447 229 426 m 317 -122 q 328 -119 319 -118 q 426 -178 383 -139 q 428 -189 432 -183 l 363 -294 q 349 -293 358 -301 q 319 -274 343 -289 q 251 -232 296 -258 q 249 -224 244 -228 l 317 -122 z "},"ڋ":{"ha":625,"x_min":85,"x_max":532,"o":"m 236 447 q 258 503 247 482 q 276 535 268 525 q 308 538 289 549 q 524 264 492 436 q 531 174 532 217 q 517 94 529 131 q 488 61 508 74 q 349 10 422 26 q 196 -8 275 -7 q 118 133 85 -11 q 135 151 122 149 q 156 142 144 151 q 260 129 183 119 q 481 182 426 150 q 483 199 485 185 q 257 415 458 338 q 236 447 229 426 m 239 1164 q 253 1147 250 1171 q 270 977 267 1047 q 267 867 274 907 q 310 910 289 890 q 351 944 331 929 q 424 963 392 975 q 471 914 457 949 q 433 811 486 876 q 346 774 424 797 q 185 746 267 750 q 125 772 147 753 q 97 803 100 794 q 100 813 93 814 q 153 810 126 810 q 206 811 179 810 l 242 847 q 239 965 244 896 q 219 1119 233 1033 q 221 1127 219 1122 q 226 1142 222 1132 q 239 1164 236 1163 m 350 899 q 311 873 338 893 q 244 815 285 853 q 428 872 336 828 q 350 899 406 918 m 317 -122 q 328 -119 319 -118 q 426 -178 383 -139 q 428 -189 432 -183 l 363 -294 q 349 -293 358 -301 q 319 -274 343 -289 q 251 -232 296 -258 q 249 -224 244 -228 l 317 -122 z "},"ڌ":{"ha":625,"x_min":85,"x_max":532,"o":"m 236 447 q 258 503 247 482 q 276 535 268 525 q 308 538 289 549 q 524 264 492 436 q 531 174 532 217 q 517 94 529 131 q 488 61 508 74 q 349 10 422 26 q 196 -8 275 -7 q 118 133 85 -11 q 135 151 122 149 q 156 142 144 151 q 260 129 183 119 q 481 182 426 150 q 483 199 485 185 q 257 415 458 338 q 236 447 229 426 m 332 926 q 343 929 335 931 q 395 906 371 919 q 442 872 419 892 q 443 860 447 867 l 376 754 q 364 757 374 750 q 340 773 360 761 q 285 806 321 785 l 232 724 q 218 725 228 717 q 189 744 213 729 q 121 786 165 760 q 119 794 115 790 l 188 896 q 199 899 190 900 q 243 880 222 892 q 282 853 264 868 l 332 926 z "},"ﮄ":{"ha":625,"x_min":85,"x_max":532,"o":"m 236 447 q 258 503 247 482 q 276 535 268 525 q 308 538 289 549 q 524 264 492 436 q 531 174 532 217 q 517 94 529 131 q 488 61 508 74 q 349 10 422 26 q 196 -8 275 -7 q 118 133 85 -11 q 135 151 122 149 q 156 142 144 151 q 260 129 183 119 q 481 182 426 150 q 483 199 485 185 q 257 415 458 338 q 236 447 229 426 m 332 926 q 343 929 335 931 q 395 906 371 919 q 442 872 419 892 q 443 860 447 867 l 376 754 q 364 757 374 750 q 340 773 360 761 q 285 806 321 785 l 232 724 q 218 725 228 717 q 189 744 213 729 q 121 786 165 760 q 119 794 115 790 l 188 896 q 199 899 190 900 q 243 880 222 892 q 282 853 264 868 l 332 926 z "},"ڍ":{"ha":625,"x_min":85,"x_max":532,"o":"m 236 447 q 258 503 247 482 q 276 535 268 525 q 308 538 289 549 q 524 264 492 436 q 531 174 532 217 q 517 94 529 131 q 488 61 508 74 q 349 10 422 26 q 196 -8 275 -7 q 118 133 85 -11 q 135 151 122 149 q 156 142 144 151 q 260 129 183 119 q 481 182 426 150 q 483 199 485 185 q 257 415 458 338 q 236 447 229 426 m 389 -124 q 400 -121 392 -119 q 452 -144 428 -131 q 499 -178 476 -158 q 500 -190 504 -183 l 433 -296 q 421 -293 431 -300 q 397 -277 417 -289 q 342 -244 378 -265 l 289 -326 q 275 -325 285 -333 q 246 -306 269 -321 q 178 -264 222 -290 q 176 -256 172 -260 l 244 -154 q 256 -151 247 -150 q 300 -170 279 -158 q 339 -197 321 -182 l 389 -124 z "},"ﮂ":{"ha":625,"x_min":85,"x_max":532,"o":"m 236 447 q 258 503 247 482 q 276 535 268 525 q 308 538 289 549 q 524 264 492 436 q 531 174 532 217 q 517 94 529 131 q 488 61 508 74 q 349 10 422 26 q 196 -8 275 -7 q 118 133 85 -11 q 135 151 122 149 q 156 142 144 151 q 260 129 183 119 q 481 182 426 150 q 483 199 485 185 q 257 415 458 338 q 236 447 229 426 m 389 -124 q 400 -121 392 -119 q 452 -144 428 -131 q 499 -178 476 -158 q 500 -190 504 -183 l 433 -296 q 421 -293 431 -300 q 397 -277 417 -289 q 342 -244 378 -265 l 289 -326 q 275 -325 285 -333 q 246 -306 269 -321 q 178 -264 222 -290 q 176 -256 172 -260 l 244 -154 q 256 -151 247 -150 q 300 -170 279 -158 q 339 -197 321 -182 l 389 -124 z "},"ڎ":{"ha":625,"x_min":85,"x_max":532,"o":"m 236 447 q 258 503 247 482 q 276 535 268 525 q 308 538 289 549 q 524 264 492 436 q 531 174 532 217 q 517 94 529 131 q 488 61 508 74 q 349 10 422 26 q 196 -8 275 -7 q 118 133 85 -11 q 135 151 122 149 q 156 142 144 151 q 260 129 183 119 q 481 182 426 150 q 483 199 485 185 q 257 415 458 338 q 236 447 229 426 m 326 926 q 338 929 329 931 q 390 906 365 919 q 436 872 414 892 q 438 860 442 867 l 371 754 q 358 757 368 750 q 337 771 354 760 q 289 800 319 782 l 240 722 q 226 725 236 717 q 197 744 221 729 q 129 786 174 760 q 128 794 124 790 l 196 894 q 207 897 199 899 q 245 881 226 890 q 281 860 264 872 l 326 926 m 231 1071 q 242 1074 233 1075 q 294 1050 269 1064 q 340 1017 318 1036 q 343 1004 347 1010 l 276 899 q 263 901 272 893 q 233 921 257 906 q 165 963 210 936 q 163 971 158 967 l 231 1071 z "},"ﮆ":{"ha":625,"x_min":85,"x_max":532,"o":"m 236 447 q 258 503 247 482 q 276 535 268 525 q 308 538 289 549 q 524 264 492 436 q 531 174 532 217 q 517 94 529 131 q 488 61 508 74 q 349 10 422 26 q 196 -8 275 -7 q 118 133 85 -11 q 135 151 122 149 q 156 142 144 151 q 260 129 183 119 q 481 182 426 150 q 483 199 485 185 q 257 415 458 338 q 236 447 229 426 m 326 926 q 338 929 329 931 q 390 906 365 919 q 436 872 414 892 q 438 860 442 867 l 371 754 q 358 757 368 750 q 337 771 354 760 q 289 800 319 782 l 240 722 q 226 725 236 717 q 197 744 221 729 q 129 786 174 760 q 128 794 124 790 l 196 894 q 207 897 199 899 q 245 881 226 890 q 281 860 264 872 l 326 926 m 231 1071 q 242 1074 233 1075 q 294 1050 269 1064 q 340 1017 318 1036 q 343 1004 347 1010 l 276 899 q 263 901 272 893 q 233 921 257 906 q 165 963 210 936 q 163 971 158 967 l 231 1071 z "},"ڏ":{"ha":625,"x_min":85,"x_max":532,"o":"m 236 447 q 258 503 247 482 q 276 535 268 525 q 308 538 289 549 q 524 264 492 436 q 531 174 532 217 q 517 94 529 131 q 488 61 508 74 q 349 10 422 26 q 196 -8 275 -7 q 118 133 85 -11 q 135 151 122 149 q 156 142 144 151 q 260 129 183 119 q 481 182 426 150 q 483 199 485 185 q 257 415 458 338 q 236 447 229 426 m 242 864 q 231 861 239 860 q 179 885 204 871 q 132 918 154 899 q 131 931 126 924 l 197 1036 q 210 1033 200 1040 q 231 1020 214 1031 q 279 990 249 1010 l 328 1067 q 342 1065 332 1074 q 372 1046 347 1061 q 439 1004 396 1031 q 440 996 444 1000 l 372 894 q 363 893 369 890 q 361 893 361 893 q 323 909 342 900 q 288 931 304 918 l 242 864 m 338 719 q 326 717 335 715 q 275 740 300 726 q 228 774 250 754 q 226 786 222 779 l 292 892 q 306 889 296 897 q 335 869 311 885 q 403 828 360 854 q 406 819 410 824 l 338 719 z "},"ڐ":{"ha":625,"x_min":85,"x_max":532,"o":"m 236 447 q 258 503 247 482 q 276 535 268 525 q 308 538 289 549 q 524 264 492 436 q 531 174 532 217 q 517 94 529 131 q 488 61 508 74 q 349 10 422 26 q 196 -8 275 -7 q 118 133 85 -11 q 135 151 122 149 q 156 142 144 151 q 260 129 183 119 q 481 182 426 150 q 483 199 485 185 q 257 415 458 338 q 236 447 229 426 m 167 1058 q 178 1061 169 1063 q 222 1042 201 1054 q 261 1015 243 1031 l 313 1090 q 324 1093 315 1094 q 422 1035 379 1074 q 424 1022 428 1029 l 361 922 q 403 901 383 913 q 442 872 424 889 q 443 860 447 867 l 376 754 q 364 757 374 750 q 340 773 360 761 q 285 806 321 785 l 232 724 q 218 725 228 717 q 189 744 213 729 q 121 786 165 760 q 119 794 115 790 l 186 894 q 153 915 175 901 q 100 949 132 929 q 99 957 94 953 l 167 1058 m 282 853 l 332 926 l 332 928 q 305 945 322 935 q 264 969 288 956 l 215 892 q 250 874 233 885 q 282 853 267 864 z "},"ڑ":{"ha":554,"x_min":-115,"x_max":475,"o":"m 342 388 q 346 394 343 393 q 367 383 353 397 q 447 235 421 328 q 467 49 475 139 q 369 -176 450 -74 q 158 -314 289 -281 q 92 -312 125 -324 q -40 -265 11 -285 q -110 -232 -90 -244 q -115 -224 -115 -228 q -111 -214 -115 -218 q -99 -212 -107 -210 q -10 -231 -50 -226 q 65 -232 31 -236 q 140 -212 100 -228 q 224 -167 179 -196 q 417 33 356 -82 q 419 56 422 42 q 311 238 399 129 q 308 249 307 244 l 342 388 m 176 1021 q 190 1004 188 1028 q 208 834 204 904 q 204 724 211 764 q 247 767 226 747 q 289 801 268 786 q 361 819 329 832 q 408 771 394 806 q 371 668 424 733 q 283 631 361 654 q 122 603 204 607 q 63 629 85 610 q 35 660 38 651 q 38 669 31 671 q 90 667 64 667 q 143 668 117 667 l 179 704 q 176 822 182 753 q 157 976 171 890 q 158 984 157 979 q 164 999 160 989 q 176 1021 174 1019 m 288 756 q 249 730 275 750 q 182 672 222 710 q 365 729 274 685 q 288 756 343 775 z "},"ﮌ":{"ha":554,"x_min":-115,"x_max":475,"o":"m 342 388 q 346 394 343 393 q 367 383 353 397 q 447 235 421 328 q 467 49 475 139 q 369 -176 450 -74 q 158 -314 289 -281 q 92 -312 125 -324 q -40 -265 11 -285 q -110 -232 -90 -244 q -115 -224 -115 -228 q -111 -214 -115 -218 q -99 -212 -107 -210 q -10 -231 -50 -226 q 65 -232 31 -236 q 140 -212 100 -228 q 224 -167 179 -196 q 417 33 356 -82 q 419 56 422 42 q 311 238 399 129 q 308 249 307 244 l 342 388 m 176 1021 q 190 1004 188 1028 q 208 834 204 904 q 204 724 211 764 q 247 767 226 747 q 289 801 268 786 q 361 819 329 832 q 408 771 394 806 q 371 668 424 733 q 283 631 361 654 q 122 603 204 607 q 63 629 85 610 q 35 660 38 651 q 38 669 31 671 q 90 667 64 667 q 143 668 117 667 l 179 704 q 176 822 182 753 q 157 976 171 890 q 158 984 157 979 q 164 999 160 989 q 176 1021 174 1019 m 288 756 q 249 730 275 750 q 182 672 222 710 q 365 729 274 685 q 288 756 343 775 z "},"ڒ":{"ha":554,"x_min":-115,"x_max":475,"o":"m 342 388 q 346 394 343 393 q 367 383 353 397 q 447 235 421 328 q 467 49 475 139 q 369 -176 450 -74 q 158 -314 289 -281 q 92 -312 125 -324 q -40 -265 11 -285 q -110 -232 -90 -244 q -115 -224 -115 -228 q -111 -214 -115 -218 q -99 -212 -107 -210 q -10 -231 -50 -226 q 65 -232 31 -236 q 140 -212 100 -228 q 224 -167 179 -196 q 417 33 356 -82 q 419 56 422 42 q 311 238 399 129 q 308 249 307 244 l 342 388 m 353 878 l 379 840 q 383 828 383 832 q 379 814 383 821 q 288 619 311 701 l 275 610 q 268 608 274 608 q 257 615 264 608 q 133 824 176 715 q 129 840 129 835 q 142 857 129 853 q 168 839 160 864 q 196 778 178 814 q 240 699 214 743 q 276 794 256 750 q 328 875 297 839 q 343 885 336 885 q 353 878 349 885 z "},"ړ":{"ha":554,"x_min":-115,"x_max":475,"o":"m 342 388 q 346 394 343 393 q 367 383 353 397 q 447 235 421 328 q 467 49 475 139 q 369 -176 450 -74 q 158 -314 289 -281 q 92 -312 125 -324 q -40 -265 11 -285 q -110 -232 -90 -244 q -115 -224 -115 -228 q -111 -214 -115 -218 q -99 -212 -107 -210 q -10 -231 -50 -226 q 65 -232 31 -236 q 140 -212 100 -228 q 224 -167 179 -196 q 417 33 356 -82 q 419 56 422 42 q 311 238 399 129 q 308 249 307 244 l 342 388 m 229 -353 q 224 -410 229 -392 q 118 -476 206 -481 q 44 -379 36 -475 q 99 -251 56 -285 q 192 -260 144 -217 q 229 -353 226 -289 m 201 -387 q 132 -303 183 -306 q 86 -324 103 -301 q 75 -375 71 -346 q 125 -411 79 -407 q 196 -396 169 -415 q 201 -387 201 -392 z "},"ڔ":{"ha":554,"x_min":-115,"x_max":475,"o":"m 342 388 q 346 394 343 393 q 367 383 353 397 q 447 235 421 328 q 467 49 475 139 q 369 -176 450 -74 q 158 -314 289 -281 q 92 -312 125 -324 q -40 -265 11 -285 q -110 -232 -90 -244 q -115 -224 -115 -228 q -111 -214 -115 -218 q -99 -212 -107 -210 q -10 -231 -50 -226 q 65 -232 31 -236 q 140 -212 100 -228 q 224 -167 179 -196 q 417 33 356 -82 q 419 56 422 42 q 311 238 399 129 q 308 249 307 244 l 342 388 m 357 -286 q 368 -283 360 -282 q 467 -342 424 -303 q 468 -353 472 -347 l 403 -458 q 389 -457 399 -465 q 360 -437 383 -453 q 292 -396 336 -422 q 289 -387 285 -392 l 357 -286 z "},"ڕ":{"ha":554,"x_min":-115,"x_max":479,"o":"m 342 388 q 346 394 343 393 q 367 383 353 397 q 447 235 421 328 q 467 49 475 139 q 369 -176 450 -74 q 158 -314 289 -281 q 92 -312 125 -324 q -40 -265 11 -285 q -110 -232 -90 -244 q -115 -224 -115 -228 q -111 -214 -115 -218 q -99 -212 -107 -210 q -10 -231 -50 -226 q 65 -232 31 -236 q 140 -212 100 -228 q 224 -167 179 -196 q 417 33 356 -82 q 419 56 422 42 q 311 238 399 129 q 308 249 307 244 l 342 388 m 449 -369 l 475 -407 q 479 -419 479 -415 q 475 -433 479 -426 q 383 -628 407 -546 l 371 -637 q 364 -639 369 -639 q 353 -632 360 -639 q 229 -424 272 -532 q 225 -407 225 -412 q 238 -390 225 -394 q 264 -408 256 -383 q 292 -469 274 -433 q 336 -549 310 -504 q 372 -453 351 -497 q 424 -372 393 -408 q 439 -362 432 -362 q 449 -369 444 -362 z "},"ږ":{"ha":554,"x_min":-115,"x_max":475,"o":"m 342 388 q 346 394 343 393 q 367 383 353 397 q 447 235 421 328 q 467 49 475 139 q 369 -176 450 -74 q 158 -314 289 -281 q 92 -312 125 -324 q -40 -265 11 -285 q -110 -232 -90 -244 q -115 -224 -115 -228 q -111 -214 -115 -218 q -99 -212 -107 -210 q -10 -231 -50 -226 q 65 -232 31 -236 q 140 -212 100 -228 q 224 -167 179 -196 q 417 33 356 -82 q 419 56 422 42 q 311 238 399 129 q 308 249 307 244 l 342 388 m 357 -286 q 368 -283 360 -282 q 467 -342 424 -303 q 468 -353 472 -347 l 403 -458 q 389 -457 399 -465 q 360 -437 383 -453 q 292 -396 336 -422 q 289 -387 285 -392 l 357 -286 m 74 35 q 85 38 76 39 q 183 -21 140 18 q 185 -32 189 -26 l 119 -137 q 106 -136 115 -144 q 76 -117 100 -132 q 8 -75 53 -101 q 6 -67 1 -71 l 74 35 z "},"ڗ":{"ha":554,"x_min":-115,"x_max":475,"o":"m 342 388 q 346 394 343 393 q 367 383 353 397 q 447 235 421 328 q 467 49 475 139 q 369 -176 450 -74 q 158 -314 289 -281 q 92 -312 125 -324 q -40 -265 11 -285 q -110 -232 -90 -244 q -115 -224 -115 -228 q -111 -214 -115 -218 q -99 -212 -107 -210 q -10 -231 -50 -226 q 65 -232 31 -236 q 140 -212 100 -228 q 224 -167 179 -196 q 417 33 356 -82 q 419 56 422 42 q 311 238 399 129 q 308 249 307 244 l 342 388 m 303 749 q 314 751 306 753 q 366 728 342 742 q 413 694 390 714 q 414 682 418 689 l 347 576 q 335 579 344 572 q 311 595 331 583 q 256 628 292 607 l 203 546 q 189 547 199 539 q 160 567 183 551 q 92 608 136 582 q 90 617 86 613 l 158 718 q 169 721 161 722 q 214 702 193 714 q 253 675 235 690 l 303 749 z "},"ژ":{"ha":554,"x_min":-115,"x_max":475,"o":"m 342 388 q 346 394 343 393 q 367 383 353 397 q 447 235 421 328 q 467 49 475 139 q 369 -176 450 -74 q 158 -314 289 -281 q 92 -312 125 -324 q -40 -265 11 -285 q -110 -232 -90 -244 q -115 -224 -115 -228 q -111 -214 -115 -218 q -99 -212 -107 -210 q -10 -231 -50 -226 q 65 -232 31 -236 q 140 -212 100 -228 q 224 -167 179 -196 q 417 33 356 -82 q 419 56 422 42 q 311 238 399 129 q 308 249 307 244 l 342 388 m 297 749 q 308 751 300 753 q 360 728 336 742 q 407 694 385 714 q 408 682 413 689 l 342 576 q 329 579 339 572 q 308 593 325 582 q 260 622 290 604 l 211 544 q 197 547 207 539 q 168 567 192 551 q 100 608 144 582 q 99 617 94 613 l 167 717 q 178 719 169 721 q 216 703 197 713 q 251 682 235 694 l 297 749 m 201 893 q 213 896 204 897 q 265 872 240 886 q 311 839 289 858 q 314 826 318 832 l 247 721 q 233 724 243 715 q 204 743 228 728 q 136 785 181 758 q 133 793 129 789 l 201 893 z "},"ﮊ":{"ha":554,"x_min":-115,"x_max":475,"o":"m 342 388 q 346 394 343 393 q 367 383 353 397 q 447 235 421 328 q 467 49 475 139 q 369 -176 450 -74 q 158 -314 289 -281 q 92 -312 125 -324 q -40 -265 11 -285 q -110 -232 -90 -244 q -115 -224 -115 -228 q -111 -214 -115 -218 q -99 -212 -107 -210 q -10 -231 -50 -226 q 65 -232 31 -236 q 140 -212 100 -228 q 224 -167 179 -196 q 417 33 356 -82 q 419 56 422 42 q 311 238 399 129 q 308 249 307 244 l 342 388 m 297 749 q 308 751 300 753 q 360 728 336 742 q 407 694 385 714 q 408 682 413 689 l 342 576 q 329 579 339 572 q 308 593 325 582 q 260 622 290 604 l 211 544 q 197 547 207 539 q 168 567 192 551 q 100 608 144 582 q 99 617 94 613 l 167 717 q 178 719 169 721 q 216 703 197 713 q 251 682 235 694 l 297 749 m 201 893 q 213 896 204 897 q 265 872 240 886 q 311 839 289 858 q 314 826 318 832 l 247 721 q 233 724 243 715 q 204 743 228 728 q 136 785 181 758 q 133 793 129 789 l 201 893 z "},"ڙ":{"ha":554,"x_min":-115,"x_max":475,"o":"m 342 388 q 346 394 343 393 q 367 383 353 397 q 447 235 421 328 q 467 49 475 139 q 369 -176 450 -74 q 158 -314 289 -281 q 92 -312 125 -324 q -40 -265 11 -285 q -110 -232 -90 -244 q -115 -224 -115 -228 q -111 -214 -115 -218 q -99 -212 -107 -210 q -10 -231 -50 -226 q 65 -232 31 -236 q 140 -212 100 -228 q 224 -167 179 -196 q 417 33 356 -82 q 419 56 422 42 q 311 238 399 129 q 308 249 307 244 l 342 388 m 138 881 q 149 883 140 885 q 193 865 172 876 q 232 838 214 853 l 283 913 q 294 915 286 917 q 393 857 350 896 q 394 844 399 851 l 332 744 q 374 723 354 735 q 413 694 394 711 q 414 682 418 689 l 347 576 q 335 579 344 572 q 311 595 331 583 q 256 628 292 607 l 203 546 q 189 547 199 539 q 160 567 183 551 q 92 608 136 582 q 90 617 86 613 l 157 717 q 124 738 146 724 q 71 771 103 751 q 69 779 65 775 l 138 881 m 253 675 l 303 749 l 303 750 q 276 767 293 757 q 235 792 258 778 l 186 714 q 221 697 204 707 q 253 675 238 686 z "},"ښ":{"ha":1378,"x_min":79,"x_max":1290,"o":"m 1240 504 q 1254 518 1244 518 q 1272 507 1267 518 q 1290 413 1290 476 q 1242 232 1290 313 q 1208 206 1228 210 q 1057 246 1143 193 q 878 150 993 133 q 866 40 875 90 q 842 -56 857 -11 q 739 -200 814 -140 q 388 -319 582 -324 q 94 -121 151 -314 q 100 35 79 -65 q 185 254 121 136 q 197 263 189 263 q 210 257 206 263 q 210 242 214 250 q 140 15 122 74 q 401 -172 190 -165 q 813 14 689 -181 q 758 256 821 122 q 754 278 750 269 q 782 334 769 310 q 804 372 794 358 q 817 374 810 381 q 828 360 819 371 q 847 329 836 349 q 881 288 871 289 q 1025 331 953 272 q 1076 458 1051 353 q 1088 472 1078 468 q 1103 472 1096 476 q 1104 392 1117 463 q 1228 358 1158 351 q 1221 388 1228 381 q 1215 404 1213 396 l 1240 504 m 1017 807 q 1028 810 1019 811 q 1126 751 1083 790 q 1128 740 1132 746 l 1063 635 q 1049 636 1058 628 q 1019 656 1043 640 q 951 697 996 671 q 949 706 944 701 l 1017 807 m 1063 -54 q 1074 -51 1065 -50 q 1172 -110 1129 -71 q 1174 -121 1178 -115 l 1108 -226 q 1094 -225 1104 -233 q 1065 -206 1089 -221 q 997 -164 1042 -190 q 994 -156 990 -160 l 1063 -54 z "},"ڛ":{"ha":1378,"x_min":79,"x_max":1290,"o":"m 1240 504 q 1254 518 1244 518 q 1272 507 1267 518 q 1290 413 1290 476 q 1242 232 1290 313 q 1208 206 1228 210 q 1057 246 1143 193 q 878 150 993 133 q 866 40 875 90 q 842 -56 857 -11 q 739 -200 814 -140 q 388 -319 582 -324 q 94 -121 151 -314 q 100 35 79 -65 q 185 254 121 136 q 197 263 189 263 q 210 257 206 263 q 210 242 214 250 q 140 15 122 74 q 401 -172 190 -165 q 813 14 689 -181 q 758 256 821 122 q 754 278 750 269 q 782 334 769 310 q 804 372 794 358 q 817 374 810 381 q 828 360 819 371 q 847 329 836 349 q 881 288 871 289 q 1025 331 953 272 q 1076 458 1051 353 q 1088 472 1078 468 q 1103 472 1096 476 q 1104 392 1117 463 q 1228 358 1158 351 q 1221 388 1228 381 q 1215 404 1213 396 l 1240 504 m 1053 -256 q 1042 -258 1050 -260 q 990 -235 1015 -249 q 943 -201 965 -221 q 942 -189 938 -196 l 1008 -83 q 1021 -86 1011 -79 q 1042 -99 1025 -89 q 1090 -129 1060 -110 l 1139 -53 q 1153 -54 1143 -46 q 1183 -74 1158 -58 q 1250 -115 1207 -89 q 1251 -124 1256 -119 l 1183 -225 q 1174 -226 1181 -229 q 1172 -226 1172 -226 q 1134 -210 1153 -219 q 1099 -189 1115 -201 l 1053 -256 m 1149 -400 q 1138 -403 1146 -404 q 1086 -379 1111 -393 q 1039 -346 1061 -365 q 1038 -333 1033 -340 l 1103 -228 q 1117 -231 1107 -222 q 1147 -250 1122 -235 q 1214 -292 1171 -265 q 1217 -300 1221 -296 l 1149 -400 z "},"ڜ":{"ha":1378,"x_min":79,"x_max":1290,"o":"m 1240 504 q 1254 518 1244 518 q 1272 507 1267 518 q 1290 413 1290 476 q 1242 232 1290 313 q 1208 206 1228 210 q 1057 246 1143 193 q 878 150 993 133 q 866 40 875 90 q 842 -56 857 -11 q 739 -200 814 -140 q 388 -319 582 -324 q 94 -121 151 -314 q 100 35 79 -65 q 185 254 121 136 q 197 263 189 263 q 210 257 206 263 q 210 242 214 250 q 140 15 122 74 q 401 -172 190 -165 q 813 14 689 -181 q 758 256 821 122 q 754 278 750 269 q 782 334 769 310 q 804 372 794 358 q 817 374 810 381 q 828 360 819 371 q 847 329 836 349 q 881 288 871 289 q 1025 331 953 272 q 1076 458 1051 353 q 1088 472 1078 468 q 1103 472 1096 476 q 1104 392 1117 463 q 1228 358 1158 351 q 1221 388 1228 381 q 1215 404 1213 396 l 1240 504 m 1081 838 q 1092 840 1083 842 q 1144 817 1119 831 q 1190 783 1168 803 q 1192 771 1196 778 l 1125 665 q 1113 668 1122 661 q 1091 682 1108 671 q 1043 711 1074 693 l 994 633 q 981 636 990 628 q 951 656 975 640 q 883 697 928 671 q 882 706 878 701 l 950 806 q 961 808 953 810 q 999 792 981 801 q 1035 771 1018 783 l 1081 838 m 985 982 q 996 985 988 986 q 1048 961 1024 975 q 1094 928 1072 947 q 1097 915 1101 921 l 1031 810 q 1017 813 1026 804 q 988 832 1011 817 q 919 874 964 847 q 917 882 913 878 l 985 982 m 1053 -256 q 1042 -258 1050 -260 q 990 -235 1015 -249 q 943 -201 965 -221 q 942 -189 938 -196 l 1008 -83 q 1021 -86 1011 -79 q 1042 -99 1025 -89 q 1090 -129 1060 -110 l 1139 -53 q 1153 -54 1143 -46 q 1183 -74 1158 -58 q 1250 -115 1207 -89 q 1251 -124 1256 -119 l 1183 -225 q 1174 -226 1181 -229 q 1172 -226 1172 -226 q 1134 -210 1153 -219 q 1099 -189 1115 -201 l 1053 -256 m 1149 -400 q 1138 -403 1146 -404 q 1086 -379 1111 -393 q 1039 -346 1061 -365 q 1038 -333 1033 -340 l 1103 -228 q 1117 -231 1107 -222 q 1147 -250 1122 -235 q 1214 -292 1171 -265 q 1217 -300 1221 -296 l 1149 -400 z "},"ڝ":{"ha":1683,"x_min":85,"x_max":1604,"o":"m 1443 546 q 1593 424 1547 547 q 1574 326 1604 385 q 1524 246 1543 268 q 1151 113 1424 135 q 869 129 997 100 q 781 -158 843 -94 q 414 -318 639 -304 q 99 -133 165 -335 q 88 -76 90 -107 q 90 -10 85 -44 q 118 109 99 51 q 167 219 138 167 q 191 260 179 242 q 213 292 203 278 q 228 299 219 301 q 239 289 238 296 q 236 272 240 282 q 199 201 215 243 q 168 14 156 96 q 400 -176 199 -169 q 733 -86 576 -181 q 810 4 785 -56 q 811 25 814 11 q 740 228 790 157 q 733 251 729 243 l 776 365 q 800 369 789 388 l 851 282 q 1008 249 899 253 q 1251 458 1129 371 q 1443 546 1375 546 m 1511 340 q 1329 393 1428 418 q 1074 247 1232 368 q 1511 340 1367 231 m 1278 -56 q 1289 -53 1281 -51 q 1341 -76 1317 -62 q 1388 -110 1365 -90 q 1389 -122 1393 -115 l 1322 -228 q 1310 -225 1319 -232 q 1286 -209 1306 -221 q 1231 -176 1267 -197 l 1178 -258 q 1164 -257 1174 -265 q 1135 -237 1158 -253 q 1067 -196 1111 -222 q 1065 -187 1061 -192 l 1133 -86 q 1144 -83 1136 -82 q 1189 -102 1168 -90 q 1228 -129 1210 -114 l 1278 -56 z "},"ڞ":{"ha":1683,"x_min":85,"x_max":1604,"o":"m 1443 546 q 1593 424 1547 547 q 1574 326 1604 385 q 1524 246 1543 268 q 1151 113 1424 135 q 869 129 997 100 q 781 -158 843 -94 q 414 -318 639 -304 q 99 -133 165 -335 q 88 -76 90 -107 q 90 -10 85 -44 q 118 109 99 51 q 167 219 138 167 q 191 260 179 242 q 213 292 203 278 q 228 299 219 301 q 239 289 238 296 q 236 272 240 282 q 199 201 215 243 q 168 14 156 96 q 400 -176 199 -169 q 733 -86 576 -181 q 810 4 785 -56 q 811 25 814 11 q 740 228 790 157 q 733 251 729 243 l 776 365 q 800 369 789 388 l 851 282 q 1008 249 899 253 q 1251 458 1129 371 q 1443 546 1375 546 m 1511 340 q 1329 393 1428 418 q 1074 247 1232 368 q 1511 340 1367 231 m 1182 865 q 1193 868 1185 869 q 1245 844 1221 858 q 1292 811 1269 831 q 1293 799 1297 806 l 1226 693 q 1214 696 1224 689 q 1192 710 1210 699 q 1144 739 1175 721 l 1096 661 q 1082 664 1092 656 q 1053 683 1076 668 q 985 725 1029 699 q 983 733 979 729 l 1051 833 q 1063 836 1054 838 q 1101 820 1082 829 q 1136 799 1119 811 l 1182 865 m 1086 1010 q 1097 1013 1089 1014 q 1149 989 1125 1003 q 1196 956 1174 975 q 1199 943 1203 949 l 1132 838 q 1118 840 1128 832 q 1089 860 1113 844 q 1021 901 1065 875 q 1018 910 1014 906 l 1086 1010 z "},"ڟ":{"ha":1100,"x_min":78,"x_max":1017,"o":"m 401 933 q 424 983 415 965 q 433 1004 432 1001 q 446 1011 438 1011 q 456 1003 453 1011 q 481 944 471 965 q 495 922 486 935 q 518 894 504 910 q 518 865 529 879 l 492 831 q 485 807 483 819 q 510 369 517 472 q 503 284 507 318 q 496 232 500 250 q 644 340 582 299 q 742 400 706 382 q 868 442 814 435 q 932 424 897 446 q 1013 333 1008 375 q 981 221 1017 289 q 919 125 944 151 q 694 29 885 88 q 499 -17 600 0 q 294 -39 399 -33 q 224 -19 256 -32 q 167 11 193 -7 q 96 81 115 46 q 101 111 78 114 q 217 103 151 104 q 365 108 283 103 l 457 199 q 459 346 461 271 q 450 500 457 421 q 435 648 443 579 q 419 776 426 717 q 408 869 413 836 q 400 908 403 901 q 401 933 397 919 m 699 283 q 447 118 597 251 q 705 165 590 133 q 904 240 819 196 q 699 283 858 332 m 829 790 q 840 793 832 794 q 892 769 868 783 q 939 736 917 756 q 940 724 944 731 l 874 618 q 861 621 871 614 q 840 635 857 624 q 792 664 822 646 l 743 586 q 729 589 739 581 q 700 608 724 593 q 632 650 676 624 q 631 658 626 654 l 699 758 q 710 761 701 763 q 748 745 729 754 q 783 724 767 736 l 829 790 m 733 935 q 744 938 736 939 q 797 914 772 928 q 843 881 821 900 q 846 868 850 874 l 779 763 q 765 765 775 757 q 736 785 760 769 q 668 826 713 800 q 665 835 661 831 l 733 935 z "},"ڠ":{"ha":750,"x_min":78,"x_max":1014,"o":"m 301 638 q 400 624 343 656 q 449 590 429 607 q 481 556 469 572 q 463 542 494 536 q 167 422 290 576 q 171 404 161 414 q 399 329 268 315 q 464 357 418 331 q 592 435 546 407 q 647 468 638 463 q 660 444 672 481 q 611 347 628 356 q 487 280 556 322 q 336 178 418 238 q 131 -182 156 47 q 189 -393 118 -304 q 704 -524 304 -537 q 830 -512 758 -521 q 989 -489 901 -504 q 1007 -493 1006 -486 q 856 -593 1014 -514 q 719 -642 767 -637 q 383 -633 515 -662 q 89 -257 78 -564 q 275 222 100 51 q 131 314 165 267 q 118 357 117 332 q 153 476 125 424 q 301 638 217 596 m 293 946 q 304 949 296 950 q 356 925 332 939 q 403 892 381 911 q 404 879 408 886 l 338 774 q 325 776 335 769 q 303 790 321 779 q 256 819 286 801 l 207 742 q 193 744 203 736 q 164 764 188 749 q 96 806 140 779 q 94 814 90 810 l 163 914 q 174 917 165 918 q 212 901 193 910 q 247 879 231 892 l 293 946 m 197 1090 q 208 1093 200 1094 q 260 1069 236 1083 q 307 1036 285 1056 q 310 1024 314 1029 l 243 918 q 229 921 239 913 q 200 940 224 925 q 132 982 176 956 q 129 990 125 986 l 197 1090 z "},"ڡ":{"ha":1365,"x_min":83,"x_max":1282,"o":"m 1106 700 q 1215 632 1161 717 q 1278 390 1269 547 q 1265 294 1282 335 q 1093 138 1228 208 q 948 76 1025 103 q 783 29 871 49 q 616 -1 696 10 q 463 -11 536 -11 q 89 207 111 -14 q 99 315 85 249 q 158 449 114 386 q 174 457 164 457 q 186 447 183 457 q 183 431 189 438 q 183 200 83 272 q 640 133 328 96 q 897 189 768 149 q 1153 294 1025 229 q 1239 382 1229 332 q 1203 440 1232 417 q 1194 433 1200 443 q 1100 353 1157 361 q 969 442 989 336 q 1049 654 957 513 q 1106 700 1072 690 m 1121 504 q 1119 529 1135 517 q 1042 521 1069 571 q 1043 501 1036 508 q 1121 504 1082 468 z "},"ڢ":{"ha":1365,"x_min":83,"x_max":1282,"o":"m 1106 700 q 1215 632 1161 717 q 1278 390 1269 547 q 1265 294 1282 335 q 1093 138 1228 208 q 948 76 1025 103 q 783 29 871 49 q 616 -1 696 10 q 463 -11 536 -11 q 89 207 111 -14 q 99 315 85 249 q 158 449 114 386 q 174 457 164 457 q 186 447 183 457 q 183 431 189 438 q 183 200 83 272 q 640 133 328 96 q 897 189 768 149 q 1153 294 1025 229 q 1239 382 1229 332 q 1203 440 1232 417 q 1194 433 1200 443 q 1100 353 1157 361 q 969 442 989 336 q 1049 654 957 513 q 1106 700 1072 690 m 1121 504 q 1119 529 1135 517 q 1042 521 1069 571 q 1043 501 1036 508 q 1121 504 1082 468 m 1131 14 q 1142 17 1133 18 q 1240 -42 1197 -3 q 1242 -53 1246 -47 l 1176 -158 q 1163 -157 1172 -165 q 1133 -137 1157 -153 q 1065 -96 1110 -122 q 1063 -87 1058 -92 l 1131 14 z "},"ڣ":{"ha":1365,"x_min":83,"x_max":1282,"o":"m 860 997 q 871 1000 863 1001 q 969 942 926 981 q 971 931 975 936 l 906 825 q 892 826 901 818 q 863 846 886 831 q 794 888 839 861 q 792 896 788 892 l 860 997 m 1106 700 q 1215 632 1161 717 q 1278 390 1269 547 q 1265 294 1282 335 q 1093 138 1228 208 q 948 76 1025 103 q 783 29 871 49 q 616 -1 696 10 q 463 -11 536 -11 q 89 207 111 -14 q 99 315 85 249 q 158 449 114 386 q 174 457 164 457 q 186 447 183 457 q 183 431 189 438 q 183 200 83 272 q 640 133 328 96 q 897 189 768 149 q 1153 294 1025 229 q 1239 382 1229 332 q 1203 440 1232 417 q 1194 433 1200 443 q 1100 353 1157 361 q 969 442 989 336 q 1049 654 957 513 q 1106 700 1072 690 m 1121 504 q 1119 529 1135 517 q 1042 521 1069 571 q 1043 501 1036 508 q 1121 504 1082 468 m 1131 14 q 1142 17 1133 18 q 1240 -42 1197 -3 q 1242 -53 1246 -47 l 1176 -158 q 1163 -157 1172 -165 q 1133 -137 1157 -153 q 1065 -96 1110 -122 q 1063 -87 1058 -92 l 1131 14 z "},"ڤ":{"ha":1365,"x_min":83,"x_max":1282,"o":"m 1106 700 q 1215 632 1161 717 q 1278 390 1269 547 q 1265 294 1282 335 q 1093 138 1228 208 q 948 76 1025 103 q 783 29 871 49 q 616 -1 696 10 q 463 -11 536 -11 q 89 207 111 -14 q 99 315 85 249 q 158 449 114 386 q 174 457 164 457 q 186 447 183 457 q 183 431 189 438 q 183 200 83 272 q 640 133 328 96 q 897 189 768 149 q 1153 294 1025 229 q 1239 382 1229 332 q 1203 440 1232 417 q 1194 433 1200 443 q 1100 353 1157 361 q 969 442 989 336 q 1049 654 957 513 q 1106 700 1072 690 m 1121 504 q 1119 529 1135 517 q 1042 521 1069 571 q 1043 501 1036 508 q 1121 504 1082 468 m 924 1028 q 935 1031 926 1032 q 987 1007 963 1021 q 1033 974 1011 993 q 1035 961 1039 968 l 968 856 q 956 858 965 851 q 934 872 951 861 q 886 901 917 883 l 838 824 q 824 826 833 818 q 794 846 818 831 q 726 888 771 861 q 725 896 721 892 l 793 996 q 804 999 796 1000 q 842 983 824 992 q 878 961 861 974 l 924 1028 m 828 1172 q 839 1175 831 1176 q 891 1151 867 1165 q 938 1118 915 1138 q 940 1106 944 1111 l 874 1000 q 860 1003 869 994 q 831 1022 854 1007 q 763 1064 807 1038 q 760 1072 756 1068 l 828 1172 z "},"ﭪ":{"ha":1365,"x_min":83,"x_max":1282,"o":"m 1106 700 q 1215 632 1161 717 q 1278 390 1269 547 q 1265 294 1282 335 q 1093 138 1228 208 q 948 76 1025 103 q 783 29 871 49 q 616 -1 696 10 q 463 -11 536 -11 q 89 207 111 -14 q 99 315 85 249 q 158 449 114 386 q 174 457 164 457 q 186 447 183 457 q 183 431 189 438 q 183 200 83 272 q 640 133 328 96 q 897 189 768 149 q 1153 294 1025 229 q 1239 382 1229 332 q 1203 440 1232 417 q 1194 433 1200 443 q 1100 353 1157 361 q 969 442 989 336 q 1049 654 957 513 q 1106 700 1072 690 m 1121 504 q 1119 529 1135 517 q 1042 521 1069 571 q 1043 501 1036 508 q 1121 504 1082 468 m 924 1028 q 935 1031 926 1032 q 987 1007 963 1021 q 1033 974 1011 993 q 1035 961 1039 968 l 968 856 q 956 858 965 851 q 934 872 951 861 q 886 901 917 883 l 838 824 q 824 826 833 818 q 794 846 818 831 q 726 888 771 861 q 725 896 721 892 l 793 996 q 804 999 796 1000 q 842 983 824 992 q 878 961 861 974 l 924 1028 m 828 1172 q 839 1175 831 1176 q 891 1151 867 1165 q 938 1118 915 1138 q 940 1106 944 1111 l 874 1000 q 860 1003 869 994 q 831 1022 854 1007 q 763 1064 807 1038 q 760 1072 756 1068 l 828 1172 z "},"ڥ":{"ha":1365,"x_min":83,"x_max":1322,"o":"m 1106 700 q 1215 632 1161 717 q 1278 390 1269 547 q 1265 294 1282 335 q 1093 138 1228 208 q 948 76 1025 103 q 783 29 871 49 q 616 -1 696 10 q 463 -11 536 -11 q 89 207 111 -14 q 99 315 85 249 q 158 449 114 386 q 174 457 164 457 q 186 447 183 457 q 183 431 189 438 q 183 200 83 272 q 640 133 328 96 q 897 189 768 149 q 1153 294 1025 229 q 1239 382 1229 332 q 1203 440 1232 417 q 1194 433 1200 443 q 1100 353 1157 361 q 969 442 989 336 q 1049 654 957 513 q 1106 700 1072 690 m 1121 504 q 1119 529 1135 517 q 1042 521 1069 571 q 1043 501 1036 508 q 1121 504 1082 468 m 1119 -187 q 1108 -190 1117 -192 q 1057 -167 1082 -181 q 1010 -133 1032 -153 q 1008 -121 1004 -128 l 1075 -15 q 1088 -18 1078 -11 q 1109 -31 1092 -21 q 1157 -61 1126 -42 l 1206 15 q 1219 14 1210 22 q 1249 -6 1225 10 q 1317 -47 1274 -21 q 1318 -56 1322 -51 l 1250 -157 q 1240 -158 1247 -161 q 1239 -158 1239 -158 q 1201 -142 1219 -151 q 1165 -121 1182 -133 l 1119 -187 m 1215 -332 q 1204 -335 1213 -336 q 1153 -311 1178 -325 q 1106 -278 1128 -297 q 1104 -265 1100 -272 l 1169 -160 q 1183 -162 1174 -154 q 1213 -182 1189 -167 q 1281 -224 1238 -197 q 1283 -232 1288 -228 l 1215 -332 z "},"ڦ":{"ha":1365,"x_min":83,"x_max":1282,"o":"m 1106 700 q 1215 632 1161 717 q 1278 390 1269 547 q 1265 294 1282 335 q 1093 138 1228 208 q 948 76 1025 103 q 783 29 871 49 q 616 -1 696 10 q 463 -11 536 -11 q 89 207 111 -14 q 99 315 85 249 q 158 449 114 386 q 174 457 164 457 q 186 447 183 457 q 183 431 189 438 q 183 200 83 272 q 640 133 328 96 q 897 189 768 149 q 1153 294 1025 229 q 1239 382 1229 332 q 1203 440 1232 417 q 1194 433 1200 443 q 1100 353 1157 361 q 969 442 989 336 q 1049 654 957 513 q 1106 700 1072 690 m 1121 504 q 1119 529 1135 517 q 1042 521 1069 571 q 1043 501 1036 508 q 1121 504 1082 468 m 764 1160 q 775 1163 767 1164 q 819 1144 799 1156 q 858 1117 840 1132 l 910 1192 q 921 1194 913 1196 q 1019 1136 976 1175 q 1021 1124 1025 1131 l 958 1024 q 1001 1002 981 1014 q 1039 974 1021 990 q 1040 961 1044 968 l 974 856 q 961 858 971 851 q 938 874 957 863 q 882 907 918 886 l 829 825 q 815 826 825 818 q 786 846 810 831 q 718 888 763 861 q 717 896 713 892 l 783 996 q 751 1017 772 1003 q 697 1050 729 1031 q 696 1058 692 1054 l 764 1160 m 879 954 l 929 1028 l 929 1029 q 902 1047 919 1036 q 861 1071 885 1057 l 813 993 q 847 976 831 986 q 879 954 864 965 z "},"ﭮ":{"ha":1365,"x_min":83,"x_max":1282,"o":"m 1106 700 q 1215 632 1161 717 q 1278 390 1269 547 q 1265 294 1282 335 q 1093 138 1228 208 q 948 76 1025 103 q 783 29 871 49 q 616 -1 696 10 q 463 -11 536 -11 q 89 207 111 -14 q 99 315 85 249 q 158 449 114 386 q 174 457 164 457 q 186 447 183 457 q 183 431 189 438 q 183 200 83 272 q 640 133 328 96 q 897 189 768 149 q 1153 294 1025 229 q 1239 382 1229 332 q 1203 440 1232 417 q 1194 433 1200 443 q 1100 353 1157 361 q 969 442 989 336 q 1049 654 957 513 q 1106 700 1072 690 m 1121 504 q 1119 529 1135 517 q 1042 521 1069 571 q 1043 501 1036 508 q 1121 504 1082 468 m 764 1160 q 775 1163 767 1164 q 819 1144 799 1156 q 858 1117 840 1132 l 910 1192 q 921 1194 913 1196 q 1019 1136 976 1175 q 1021 1124 1025 1131 l 958 1024 q 1001 1002 981 1014 q 1039 974 1021 990 q 1040 961 1044 968 l 974 856 q 961 858 971 851 q 938 874 957 863 q 882 907 918 886 l 829 825 q 815 826 825 818 q 786 846 810 831 q 718 888 763 861 q 717 896 713 892 l 783 996 q 751 1017 772 1003 q 697 1050 729 1031 q 696 1058 692 1054 l 764 1160 m 879 954 l 929 1028 l 929 1029 q 902 1047 919 1036 q 861 1071 885 1057 l 813 993 q 847 976 831 986 q 879 954 864 965 z "},"ڧ":{"ha":954,"x_min":81,"x_max":874,"o":"m 706 546 q 764 506 731 546 q 861 261 836 419 q 858 101 874 183 q 708 -124 829 -37 q 424 -228 564 -224 q 99 -50 168 -236 q 93 74 81 3 q 138 224 104 149 q 222 376 171 300 q 238 383 229 386 q 250 375 247 381 q 247 357 254 368 q 153 133 154 222 q 219 -22 151 42 q 425 -82 289 -87 q 595 -46 513 -78 q 754 47 678 -14 q 826 151 822 101 q 792 240 831 201 q 615 182 707 151 q 563 382 501 219 q 706 546 624 546 m 713 356 q 660 389 683 389 q 619 360 639 389 q 665 338 638 340 q 713 356 690 336 m 636 828 q 647 831 639 832 q 746 772 703 811 q 747 761 751 767 l 682 656 q 668 657 678 649 q 639 676 663 661 q 571 718 615 692 q 568 726 564 722 l 636 828 z "},"ڨ":{"ha":954,"x_min":81,"x_max":874,"o":"m 706 546 q 764 506 731 546 q 861 261 836 419 q 858 101 874 183 q 708 -124 829 -37 q 424 -228 564 -224 q 99 -50 168 -236 q 93 74 81 3 q 138 224 104 149 q 222 376 171 300 q 238 383 229 386 q 250 375 247 381 q 247 357 254 368 q 153 133 154 222 q 219 -22 151 42 q 425 -82 289 -87 q 595 -46 513 -78 q 754 47 678 -14 q 826 151 822 101 q 792 240 831 201 q 615 182 707 151 q 563 382 501 219 q 706 546 624 546 m 713 356 q 660 389 683 389 q 619 360 639 389 q 665 338 638 340 q 713 356 690 336 m 700 858 q 711 861 703 863 q 763 838 739 851 q 810 804 788 824 q 811 792 815 799 l 744 686 q 732 689 742 682 q 710 703 728 692 q 663 732 693 714 l 614 654 q 600 657 610 649 q 571 676 594 661 q 503 718 547 692 q 501 726 497 722 l 569 826 q 581 829 572 831 q 619 813 600 822 q 654 792 638 804 l 700 858 m 604 1003 q 615 1006 607 1007 q 667 982 643 996 q 714 949 692 968 q 717 936 721 942 l 650 831 q 636 833 646 825 q 607 853 631 838 q 539 894 583 868 q 536 903 532 899 l 604 1003 z "},"ک":{"ha":1669,"x_min":83,"x_max":1586,"o":"m 1111 222 q 1114 232 1115 226 q 824 472 1028 369 q 799 558 800 485 q 840 704 794 663 q 1563 1044 1039 882 q 1572 1047 1568 1047 q 1578 1047 1575 1047 q 1586 1039 1586 1047 q 1585 1029 1586 1035 l 1557 931 q 1539 907 1551 911 q 846 597 942 693 q 849 588 840 592 q 1143 239 1142 413 q 1101 86 1143 143 q 783 -51 1043 7 q 616 -81 696 -71 q 463 -92 536 -92 q 89 128 113 -94 q 99 235 85 168 q 158 368 114 306 q 174 376 164 376 q 186 367 183 376 q 183 350 189 357 q 183 119 83 192 q 640 53 328 15 q 1111 222 983 94 z "},"ﮎ":{"ha":1669,"x_min":83,"x_max":1586,"o":"m 1111 222 q 1114 232 1115 226 q 824 472 1028 369 q 799 558 800 485 q 840 704 794 663 q 1563 1044 1039 882 q 1572 1047 1568 1047 q 1578 1047 1575 1047 q 1586 1039 1586 1047 q 1585 1029 1586 1035 l 1557 931 q 1539 907 1551 911 q 846 597 942 693 q 849 588 840 592 q 1143 239 1142 413 q 1101 86 1143 143 q 783 -51 1043 7 q 616 -81 696 -71 q 463 -92 536 -92 q 89 128 113 -94 q 99 235 85 168 q 158 368 114 306 q 174 376 164 376 q 186 367 183 376 q 183 350 189 357 q 183 119 83 192 q 640 53 328 15 q 1111 222 983 94 z "},"ڪ":{"ha":2638,"x_min":79,"x_max":2553,"o":"m 364 126 q 833 110 579 108 q 1376 132 1086 111 q 2449 236 1653 153 q 2454 253 2463 238 q 2322 354 2404 346 q 2163 357 2263 361 q 1921 339 2063 353 q 1622 313 1779 325 q 1294 288 1465 300 q 665 288 953 263 q 485 357 511 300 q 486 399 475 376 q 525 469 506 438 q 567 522 544 500 q 1207 872 796 754 q 1226 861 1231 879 l 1207 761 q 1188 744 1203 749 q 1006 685 1094 718 q 836 613 918 653 q 582 450 672 533 q 579 438 574 442 q 1068 389 653 388 q 1383 400 1210 390 q 1760 431 1557 410 q 2106 461 1963 451 q 2331 469 2249 471 q 2485 414 2425 467 q 2550 275 2543 361 q 2506 179 2553 249 q 2424 108 2460 111 q 2231 92 2374 104 q 1854 58 2089 79 q 1488 25 1619 36 q 1329 11 1357 14 q 225 19 500 -43 q 149 65 190 28 q 92 149 108 101 q 103 174 79 181 q 228 144 163 156 q 364 126 293 133 z "},"ګ":{"ha":1669,"x_min":83,"x_max":1586,"o":"m 1111 222 q 1114 232 1115 226 q 824 472 1028 369 q 799 558 800 485 q 840 704 794 663 q 1563 1044 1039 882 q 1572 1047 1568 1047 q 1578 1047 1575 1047 q 1586 1039 1586 1047 q 1585 1029 1586 1035 l 1557 931 q 1539 907 1551 911 q 846 597 942 693 q 849 588 840 592 q 1143 239 1142 413 q 1101 86 1143 143 q 783 -51 1043 7 q 616 -81 696 -71 q 463 -92 536 -92 q 89 128 113 -94 q 99 235 85 168 q 158 368 114 306 q 174 376 164 376 q 186 367 183 376 q 183 350 189 357 q 183 119 83 192 q 640 53 328 15 q 1111 222 983 94 m 1272 726 q 1267 669 1272 688 q 1161 603 1249 599 q 1088 700 1079 604 q 1142 828 1099 794 q 1235 819 1188 863 q 1272 726 1269 790 m 1244 692 q 1175 776 1226 774 q 1129 756 1146 778 q 1118 704 1114 733 q 1168 668 1122 672 q 1239 683 1213 664 q 1244 692 1244 688 z "},"ڬ":{"ha":913,"x_min":88,"x_max":825,"o":"m 683 1086 q 717 1031 699 1056 q 757 989 735 1007 q 757 963 768 979 l 732 921 q 726 907 726 911 q 800 522 775 671 q 825 311 825 372 l 825 243 q 814 156 824 200 q 785 68 804 113 q 315 0 751 -8 q 101 17 190 3 q 92 29 92 19 q 88 103 89 74 q 89 149 88 132 q 99 156 89 161 q 285 132 154 133 q 772 183 686 124 q 721 560 781 233 q 650 931 661 888 q 640 969 644 953 q 633 996 636 986 q 636 1039 626 1019 l 663 1092 q 672 1099 667 1100 q 683 1086 679 1096 m 404 797 q 413 792 410 797 q 413 782 414 788 l 383 708 q 368 689 376 692 q 314 660 331 681 q 333 638 306 650 q 366 628 349 632 q 404 621 383 624 q 401 469 499 607 q 343 421 371 429 q 246 419 318 413 q 183 429 211 422 q 135 443 156 436 q 119 461 119 450 q 133 474 119 474 q 226 478 169 476 q 363 493 339 479 q 365 503 368 496 q 354 510 364 507 l 314 519 q 261 547 278 528 q 249 592 242 568 q 404 797 290 767 m 331 1058 q 342 1061 333 1063 q 440 1003 397 1042 q 442 992 446 997 l 376 886 q 363 888 372 879 q 333 907 357 892 q 265 949 310 922 q 263 957 258 953 l 331 1058 z "},"ڭ":{"ha":913,"x_min":88,"x_max":825,"o":"m 683 1086 q 717 1031 699 1056 q 757 989 735 1007 q 757 963 768 979 l 732 921 q 726 907 726 911 q 800 522 775 671 q 825 311 825 372 l 825 243 q 814 156 824 200 q 785 68 804 113 q 315 0 751 -8 q 101 17 190 3 q 92 29 92 19 q 88 103 89 74 q 89 149 88 132 q 99 156 89 161 q 285 132 154 133 q 772 183 686 124 q 721 560 781 233 q 650 931 661 888 q 640 969 644 953 q 633 996 636 986 q 636 1039 626 1019 l 663 1092 q 672 1099 667 1100 q 683 1086 679 1096 m 404 797 q 413 792 410 797 q 413 782 414 788 l 383 708 q 368 689 376 692 q 314 660 331 681 q 333 638 306 650 q 366 628 349 632 q 404 621 383 624 q 401 469 499 607 q 343 421 371 429 q 246 419 318 413 q 183 429 211 422 q 135 443 156 436 q 119 461 119 450 q 133 474 119 474 q 226 478 169 476 q 363 493 339 479 q 365 503 368 496 q 354 510 364 507 l 314 519 q 261 547 278 528 q 249 592 242 568 q 404 797 290 767 m 394 1089 q 406 1092 397 1093 q 458 1068 433 1082 q 504 1035 482 1054 q 506 1022 510 1029 l 439 917 q 426 919 436 913 q 405 933 422 922 q 357 963 388 944 l 308 885 q 294 888 304 879 q 265 907 289 892 q 197 949 242 922 q 196 957 192 953 l 264 1057 q 275 1060 267 1061 q 313 1044 294 1053 q 349 1022 332 1035 l 394 1089 m 299 1233 q 310 1236 301 1238 q 362 1213 338 1226 q 408 1179 386 1199 q 411 1167 415 1172 l 344 1061 q 331 1064 340 1056 q 301 1083 325 1068 q 233 1125 278 1099 q 231 1133 226 1129 l 299 1233 z "},"ﯓ":{"ha":913,"x_min":88,"x_max":825,"o":"m 683 1086 q 717 1031 699 1056 q 757 989 735 1007 q 757 963 768 979 l 732 921 q 726 907 726 911 q 800 522 775 671 q 825 311 825 372 l 825 243 q 814 156 824 200 q 785 68 804 113 q 315 0 751 -8 q 101 17 190 3 q 92 29 92 19 q 88 103 89 74 q 89 149 88 132 q 99 156 89 161 q 285 132 154 133 q 772 183 686 124 q 721 560 781 233 q 650 931 661 888 q 640 969 644 953 q 633 996 636 986 q 636 1039 626 1019 l 663 1092 q 672 1099 667 1100 q 683 1086 679 1096 m 404 797 q 413 792 410 797 q 413 782 414 788 l 383 708 q 368 689 376 692 q 314 660 331 681 q 333 638 306 650 q 366 628 349 632 q 404 621 383 624 q 401 469 499 607 q 343 421 371 429 q 246 419 318 413 q 183 429 211 422 q 135 443 156 436 q 119 461 119 450 q 133 474 119 474 q 226 478 169 476 q 363 493 339 479 q 365 503 368 496 q 354 510 364 507 l 314 519 q 261 547 278 528 q 249 592 242 568 q 404 797 290 767 m 394 1089 q 406 1092 397 1093 q 458 1068 433 1082 q 504 1035 482 1054 q 506 1022 510 1029 l 439 917 q 426 919 436 913 q 405 933 422 922 q 357 963 388 944 l 308 885 q 294 888 304 879 q 265 907 289 892 q 197 949 242 922 q 196 957 192 953 l 264 1057 q 275 1060 267 1061 q 313 1044 294 1053 q 349 1022 332 1035 l 394 1089 m 299 1233 q 310 1236 301 1238 q 362 1213 338 1226 q 408 1179 386 1199 q 411 1167 415 1172 l 344 1061 q 331 1064 340 1056 q 301 1083 325 1068 q 233 1125 278 1099 q 231 1133 226 1129 l 299 1233 z "},"ڮ":{"ha":913,"x_min":88,"x_max":825,"o":"m 683 1086 q 717 1031 699 1056 q 757 989 735 1007 q 757 963 768 979 l 732 921 q 726 907 726 911 q 800 522 775 671 q 825 311 825 372 l 825 243 q 814 156 824 200 q 785 68 804 113 q 315 0 751 -8 q 101 17 190 3 q 92 29 92 19 q 88 103 89 74 q 89 149 88 132 q 99 156 89 161 q 285 132 154 133 q 772 183 686 124 q 721 560 781 233 q 650 931 661 888 q 640 969 644 953 q 633 996 636 986 q 636 1039 626 1019 l 663 1092 q 672 1099 667 1100 q 683 1086 679 1096 m 404 797 q 413 792 410 797 q 413 782 414 788 l 383 708 q 368 689 376 692 q 314 660 331 681 q 333 638 306 650 q 366 628 349 632 q 404 621 383 624 q 401 469 499 607 q 343 421 371 429 q 246 419 318 413 q 183 429 211 422 q 135 443 156 436 q 119 461 119 450 q 133 474 119 474 q 226 478 169 476 q 363 493 339 479 q 365 503 368 496 q 354 510 364 507 l 314 519 q 261 547 278 528 q 249 592 242 568 q 404 797 290 767 m 367 -256 q 356 -258 364 -260 q 304 -235 329 -249 q 257 -201 279 -221 q 256 -189 251 -196 l 322 -83 q 335 -86 325 -79 q 356 -99 339 -89 q 404 -129 374 -110 l 453 -53 q 467 -54 457 -46 q 497 -74 472 -58 q 564 -115 521 -89 q 565 -124 569 -119 l 497 -225 q 488 -226 494 -229 q 486 -226 486 -226 q 448 -210 467 -219 q 413 -189 429 -201 l 367 -256 m 463 -400 q 451 -403 460 -404 q 400 -379 425 -393 q 353 -346 375 -365 q 351 -333 347 -340 l 417 -228 q 431 -231 421 -222 q 460 -250 436 -235 q 528 -292 485 -265 q 531 -300 535 -296 l 463 -400 z "},"گ":{"ha":1669,"x_min":83,"x_max":1589,"o":"m 1111 222 q 1114 232 1115 226 q 824 472 1028 369 q 799 558 800 485 q 840 704 794 663 q 1563 1044 1039 882 q 1572 1047 1568 1047 q 1578 1047 1575 1047 q 1586 1039 1586 1047 q 1585 1029 1586 1035 l 1557 931 q 1539 907 1551 911 q 846 597 942 693 q 849 588 840 592 q 1143 239 1142 413 q 1101 86 1143 143 q 783 -51 1043 7 q 616 -81 696 -71 q 463 -92 536 -92 q 89 128 113 -94 q 99 235 85 168 q 158 368 114 306 q 174 376 164 376 q 186 367 183 376 q 183 350 189 357 q 183 119 83 192 q 640 53 328 15 q 1111 222 983 94 m 904 890 q 899 906 885 883 q 915 928 906 918 q 935 949 925 939 q 965 974 954 968 q 1236 1085 1082 1029 q 1582 1196 1390 1140 q 1589 1192 1589 1197 q 1560 1150 1589 1183 q 1508 1110 1529 1115 q 1233 1022 1383 1076 q 904 890 1082 967 z "},"ﮒ":{"ha":1669,"x_min":83,"x_max":1589,"o":"m 1111 222 q 1114 232 1115 226 q 824 472 1028 369 q 799 558 800 485 q 840 704 794 663 q 1563 1044 1039 882 q 1572 1047 1568 1047 q 1578 1047 1575 1047 q 1586 1039 1586 1047 q 1585 1029 1586 1035 l 1557 931 q 1539 907 1551 911 q 846 597 942 693 q 849 588 840 592 q 1143 239 1142 413 q 1101 86 1143 143 q 783 -51 1043 7 q 616 -81 696 -71 q 463 -92 536 -92 q 89 128 113 -94 q 99 235 85 168 q 158 368 114 306 q 174 376 164 376 q 186 367 183 376 q 183 350 189 357 q 183 119 83 192 q 640 53 328 15 q 1111 222 983 94 m 904 890 q 899 906 885 883 q 915 928 906 918 q 935 949 925 939 q 965 974 954 968 q 1236 1085 1082 1029 q 1582 1196 1390 1140 q 1589 1192 1589 1197 q 1560 1150 1589 1183 q 1508 1110 1529 1115 q 1233 1022 1383 1076 q 904 890 1082 967 z "},"ڰ":{"ha":1669,"x_min":83,"x_max":1589,"o":"m 1272 726 q 1267 669 1272 688 q 1161 603 1249 599 q 1088 700 1079 604 q 1142 828 1099 794 q 1235 819 1188 863 q 1272 726 1269 790 m 1244 692 q 1175 776 1226 774 q 1129 756 1146 778 q 1118 704 1114 733 q 1168 668 1122 672 q 1239 683 1213 664 q 1244 692 1244 688 m 1111 222 q 1114 232 1115 226 q 824 472 1028 369 q 799 558 800 485 q 840 704 794 663 q 1563 1044 1039 882 q 1572 1047 1568 1047 q 1578 1047 1575 1047 q 1586 1039 1586 1047 q 1585 1029 1586 1035 l 1557 931 q 1539 907 1551 911 q 846 597 942 693 q 849 588 840 592 q 1143 239 1142 413 q 1101 86 1143 143 q 783 -51 1043 7 q 616 -81 696 -71 q 463 -92 536 -92 q 89 128 113 -94 q 99 235 85 168 q 158 368 114 306 q 174 376 164 376 q 186 367 183 376 q 183 350 189 357 q 183 119 83 192 q 640 53 328 15 q 1111 222 983 94 m 904 890 q 899 906 885 883 q 915 928 906 918 q 935 949 925 939 q 965 974 954 968 q 1236 1085 1082 1029 q 1582 1196 1390 1140 q 1589 1192 1589 1197 q 1560 1150 1589 1183 q 1508 1110 1529 1115 q 1233 1022 1383 1076 q 904 890 1082 967 z "},"ڱ":{"ha":1669,"x_min":83,"x_max":1589,"o":"m 800 1079 q 811 1082 803 1083 q 863 1058 839 1072 q 910 1025 888 1044 q 911 1013 915 1019 l 844 907 q 832 910 842 903 q 808 926 828 914 q 753 958 789 938 l 700 876 q 686 878 696 869 q 657 897 681 882 q 589 939 633 913 q 588 947 583 943 l 656 1049 q 667 1051 658 1053 q 711 1033 690 1044 q 750 1006 732 1021 l 800 1079 m 1111 222 q 1114 232 1115 226 q 824 472 1028 369 q 799 558 800 485 q 840 704 794 663 q 1563 1044 1039 882 q 1572 1047 1568 1047 q 1578 1047 1575 1047 q 1586 1039 1586 1047 q 1585 1029 1586 1035 l 1557 931 q 1539 907 1551 911 q 846 597 942 693 q 849 588 840 592 q 1143 239 1142 413 q 1101 86 1143 143 q 783 -51 1043 7 q 616 -81 696 -71 q 463 -92 536 -92 q 89 128 113 -94 q 99 235 85 168 q 158 368 114 306 q 174 376 164 376 q 186 367 183 376 q 183 350 189 357 q 183 119 83 192 q 640 53 328 15 q 1111 222 983 94 m 904 890 q 899 906 885 883 q 915 928 906 918 q 935 949 925 939 q 965 974 954 968 q 1236 1085 1082 1029 q 1582 1196 1390 1140 q 1589 1192 1589 1197 q 1560 1150 1589 1183 q 1508 1110 1529 1115 q 1233 1022 1383 1076 q 904 890 1082 967 z "},"ﮚ":{"ha":1669,"x_min":83,"x_max":1589,"o":"m 800 1079 q 811 1082 803 1083 q 863 1058 839 1072 q 910 1025 888 1044 q 911 1013 915 1019 l 844 907 q 832 910 842 903 q 808 926 828 914 q 753 958 789 938 l 700 876 q 686 878 696 869 q 657 897 681 882 q 589 939 633 913 q 588 947 583 943 l 656 1049 q 667 1051 658 1053 q 711 1033 690 1044 q 750 1006 732 1021 l 800 1079 m 1111 222 q 1114 232 1115 226 q 824 472 1028 369 q 799 558 800 485 q 840 704 794 663 q 1563 1044 1039 882 q 1572 1047 1568 1047 q 1578 1047 1575 1047 q 1586 1039 1586 1047 q 1585 1029 1586 1035 l 1557 931 q 1539 907 1551 911 q 846 597 942 693 q 849 588 840 592 q 1143 239 1142 413 q 1101 86 1143 143 q 783 -51 1043 7 q 616 -81 696 -71 q 463 -92 536 -92 q 89 128 113 -94 q 99 235 85 168 q 158 368 114 306 q 174 376 164 376 q 186 367 183 376 q 183 350 189 357 q 183 119 83 192 q 640 53 328 15 q 1111 222 983 94 m 904 890 q 899 906 885 883 q 915 928 906 918 q 935 949 925 939 q 965 974 954 968 q 1236 1085 1082 1029 q 1582 1196 1390 1140 q 1589 1192 1589 1197 q 1560 1150 1589 1183 q 1508 1110 1529 1115 q 1233 1022 1383 1076 q 904 890 1082 967 z "},"ڲ":{"ha":1669,"x_min":83,"x_max":1589,"o":"m 690 -133 q 701 -131 693 -129 q 753 -154 729 -140 q 800 -187 778 -168 q 801 -200 806 -193 l 735 -306 q 722 -303 732 -310 q 699 -287 718 -299 q 643 -254 679 -275 l 590 -336 q 576 -335 586 -343 q 547 -315 571 -331 q 479 -274 524 -300 q 478 -265 474 -269 l 546 -164 q 557 -161 549 -160 q 601 -180 581 -168 q 640 -207 622 -192 l 690 -133 m 1111 222 q 1114 232 1115 226 q 824 472 1028 369 q 799 558 800 485 q 840 704 794 663 q 1563 1044 1039 882 q 1572 1047 1568 1047 q 1578 1047 1575 1047 q 1586 1039 1586 1047 q 1585 1029 1586 1035 l 1557 931 q 1539 907 1551 911 q 846 597 942 693 q 849 588 840 592 q 1143 239 1142 413 q 1101 86 1143 143 q 783 -51 1043 7 q 616 -81 696 -71 q 463 -92 536 -92 q 89 128 113 -94 q 99 235 85 168 q 158 368 114 306 q 174 376 164 376 q 186 367 183 376 q 183 350 189 357 q 183 119 83 192 q 640 53 328 15 q 1111 222 983 94 m 904 890 q 899 906 885 883 q 915 928 906 918 q 935 949 925 939 q 965 974 954 968 q 1236 1085 1082 1029 q 1582 1196 1390 1140 q 1589 1192 1589 1197 q 1560 1150 1589 1183 q 1508 1110 1529 1115 q 1233 1022 1383 1076 q 904 890 1082 967 z "},"ڳ":{"ha":1669,"x_min":83,"x_max":1589,"o":"m 608 -104 q 621 -101 611 -99 q 718 -160 674 -119 q 721 -172 725 -167 l 676 -242 q 746 -289 713 -258 q 747 -300 751 -294 l 682 -406 q 668 -404 678 -412 q 639 -385 663 -400 q 571 -343 615 -369 q 568 -335 564 -339 l 618 -260 q 543 -214 593 -244 q 542 -206 538 -210 l 608 -104 m 1111 222 q 1114 232 1115 226 q 824 472 1028 369 q 799 558 800 485 q 840 704 794 663 q 1563 1044 1039 882 q 1572 1047 1568 1047 q 1578 1047 1575 1047 q 1586 1039 1586 1047 q 1585 1029 1586 1035 l 1557 931 q 1539 907 1551 911 q 846 597 942 693 q 849 588 840 592 q 1143 239 1142 413 q 1101 86 1143 143 q 783 -51 1043 7 q 616 -81 696 -71 q 463 -92 536 -92 q 89 128 113 -94 q 99 235 85 168 q 158 368 114 306 q 174 376 164 376 q 186 367 183 376 q 183 350 189 357 q 183 119 83 192 q 640 53 328 15 q 1111 222 983 94 m 904 890 q 899 906 885 883 q 915 928 906 918 q 935 949 925 939 q 965 974 954 968 q 1236 1085 1082 1029 q 1582 1196 1390 1140 q 1589 1192 1589 1197 q 1560 1150 1589 1183 q 1508 1110 1529 1115 q 1233 1022 1383 1076 q 904 890 1082 967 z "},"ﮖ":{"ha":1669,"x_min":83,"x_max":1589,"o":"m 608 -104 q 621 -101 611 -99 q 718 -160 674 -119 q 721 -172 725 -167 l 676 -242 q 746 -289 713 -258 q 747 -300 751 -294 l 682 -406 q 668 -404 678 -412 q 639 -385 663 -400 q 571 -343 615 -369 q 568 -335 564 -339 l 618 -260 q 543 -214 593 -244 q 542 -206 538 -210 l 608 -104 m 1111 222 q 1114 232 1115 226 q 824 472 1028 369 q 799 558 800 485 q 840 704 794 663 q 1563 1044 1039 882 q 1572 1047 1568 1047 q 1578 1047 1575 1047 q 1586 1039 1586 1047 q 1585 1029 1586 1035 l 1557 931 q 1539 907 1551 911 q 846 597 942 693 q 849 588 840 592 q 1143 239 1142 413 q 1101 86 1143 143 q 783 -51 1043 7 q 616 -81 696 -71 q 463 -92 536 -92 q 89 128 113 -94 q 99 235 85 168 q 158 368 114 306 q 174 376 164 376 q 186 367 183 376 q 183 350 189 357 q 183 119 83 192 q 640 53 328 15 q 1111 222 983 94 m 904 890 q 899 906 885 883 q 915 928 906 918 q 935 949 925 939 q 965 974 954 968 q 1236 1085 1082 1029 q 1582 1196 1390 1140 q 1589 1192 1589 1197 q 1560 1150 1589 1183 q 1508 1110 1529 1115 q 1233 1022 1383 1076 q 904 890 1082 967 z "},"ڴ":{"ha":1669,"x_min":83,"x_max":1589,"o":"m 797 1079 q 808 1082 800 1083 q 860 1058 836 1072 q 907 1025 885 1044 q 908 1013 913 1019 l 842 907 q 829 910 839 903 q 808 924 825 913 q 760 953 790 935 l 711 875 q 697 878 707 869 q 668 897 692 882 q 600 939 644 913 q 599 947 594 943 l 667 1047 q 678 1050 669 1051 q 716 1034 697 1043 q 751 1013 735 1025 l 797 1079 m 701 1224 q 713 1226 704 1228 q 765 1203 740 1217 q 811 1169 789 1189 q 814 1157 818 1163 l 747 1051 q 733 1054 743 1046 q 704 1074 728 1058 q 636 1115 681 1089 q 633 1124 629 1119 l 701 1224 m 1111 222 q 1114 232 1115 226 q 824 472 1028 369 q 799 558 800 485 q 840 704 794 663 q 1563 1044 1039 882 q 1572 1047 1568 1047 q 1578 1047 1575 1047 q 1586 1039 1586 1047 q 1585 1029 1586 1035 l 1557 931 q 1539 907 1551 911 q 846 597 942 693 q 849 588 840 592 q 1143 239 1142 413 q 1101 86 1143 143 q 783 -51 1043 7 q 616 -81 696 -71 q 463 -92 536 -92 q 89 128 113 -94 q 99 235 85 168 q 158 368 114 306 q 174 376 164 376 q 186 367 183 376 q 183 350 189 357 q 183 119 83 192 q 640 53 328 15 q 1111 222 983 94 m 904 890 q 899 906 885 883 q 915 928 906 918 q 935 949 925 939 q 965 974 954 968 q 1236 1085 1082 1029 q 1582 1196 1390 1140 q 1589 1192 1589 1197 q 1560 1150 1589 1183 q 1508 1110 1529 1115 q 1233 1022 1383 1076 q 904 890 1082 967 z "},"ڵ":{"ha":838,"x_min":86,"x_max":760,"o":"m 643 1033 q 657 1043 647 1043 q 671 1031 667 1043 q 728 929 696 963 q 726 896 740 917 q 714 878 719 886 q 704 864 708 869 q 696 836 696 854 q 706 727 699 790 q 722 583 713 664 q 740 441 733 503 q 749 335 746 379 q 711 81 760 193 q 565 -40 682 10 q 357 -89 447 -90 q 88 144 89 -85 q 193 435 86 296 q 208 442 200 444 q 219 432 218 439 q 217 414 222 422 q 149 221 143 281 q 403 58 168 50 q 693 179 604 65 q 684 301 692 224 q 661 489 676 378 q 636 704 647 600 q 618 906 625 808 l 613 953 q 617 972 613 964 l 643 1033 m 544 1210 l 571 1172 q 575 1160 575 1164 q 571 1146 575 1153 q 479 951 503 1033 l 467 942 q 460 940 465 940 q 449 947 456 940 q 325 1156 368 1047 q 321 1172 321 1167 q 333 1189 321 1185 q 360 1171 351 1196 q 388 1110 369 1146 q 432 1031 406 1075 q 468 1126 447 1082 q 519 1207 489 1171 q 535 1217 528 1217 q 544 1210 540 1217 z "},"ڶ":{"ha":838,"x_min":86,"x_max":760,"o":"m 643 1033 q 657 1043 647 1043 q 671 1031 667 1043 q 728 929 696 963 q 726 896 740 917 q 714 878 719 886 q 704 864 708 869 q 696 836 696 854 q 706 727 699 790 q 722 583 713 664 q 740 441 733 503 q 749 335 746 379 q 711 81 760 193 q 565 -40 682 10 q 357 -89 447 -90 q 88 144 89 -85 q 193 435 86 296 q 208 442 200 444 q 219 432 218 439 q 217 414 222 422 q 149 221 143 281 q 403 58 168 50 q 693 179 604 65 q 684 301 692 224 q 661 489 676 378 q 636 704 647 600 q 618 906 625 808 l 613 953 q 617 972 613 964 l 643 1033 m 418 1031 q 429 1033 421 1035 q 528 975 485 1014 q 529 964 533 969 l 464 858 q 450 860 460 851 q 421 879 444 864 q 353 921 397 894 q 350 929 346 925 l 418 1031 z "},"ڷ":{"ha":838,"x_min":86,"x_max":760,"o":"m 643 1033 q 657 1043 647 1043 q 671 1031 667 1043 q 728 929 696 963 q 726 896 740 917 q 714 878 719 886 q 704 864 708 869 q 696 836 696 854 q 706 727 699 790 q 722 583 713 664 q 740 441 733 503 q 749 335 746 379 q 711 81 760 193 q 565 -40 682 10 q 357 -89 447 -90 q 88 144 89 -85 q 193 435 86 296 q 208 442 200 444 q 219 432 218 439 q 217 414 222 422 q 149 221 143 281 q 403 58 168 50 q 693 179 604 65 q 684 301 692 224 q 661 489 676 378 q 636 704 647 600 q 618 906 625 808 l 613 953 q 617 972 613 964 l 643 1033 m 422 926 q 433 929 425 931 q 485 906 461 919 q 532 872 510 892 q 533 860 538 867 l 467 754 q 454 757 464 750 q 433 771 450 760 q 385 800 415 782 l 336 722 q 322 725 332 717 q 293 744 317 729 q 225 786 269 760 q 224 794 219 790 l 292 894 q 303 897 294 899 q 341 881 322 890 q 376 860 360 872 l 422 926 m 326 1071 q 338 1074 329 1075 q 390 1050 365 1064 q 436 1017 414 1036 q 439 1004 443 1010 l 372 899 q 358 901 368 893 q 329 921 353 906 q 261 963 306 936 q 258 971 254 967 l 326 1071 z "},"ڸ":{"ha":838,"x_min":86,"x_max":760,"o":"m 643 1033 q 657 1043 647 1043 q 671 1031 667 1043 q 728 929 696 963 q 726 896 740 917 q 714 878 719 886 q 704 864 708 869 q 696 836 696 854 q 706 727 699 790 q 722 583 713 664 q 740 441 733 503 q 749 335 746 379 q 711 81 760 193 q 565 -40 682 10 q 357 -89 447 -90 q 88 144 89 -85 q 193 435 86 296 q 208 442 200 444 q 219 432 218 439 q 217 414 222 422 q 149 221 143 281 q 403 58 168 50 q 693 179 604 65 q 684 301 692 224 q 661 489 676 378 q 636 704 647 600 q 618 906 625 808 l 613 953 q 617 972 613 964 l 643 1033 m 432 -344 q 421 -347 429 -349 q 369 -324 394 -337 q 322 -290 344 -310 q 321 -278 317 -285 l 388 -172 q 400 -175 390 -168 q 422 -188 404 -178 q 469 -218 439 -199 l 518 -142 q 532 -143 522 -135 q 562 -162 538 -147 q 629 -204 586 -178 q 631 -212 635 -208 l 563 -314 q 553 -315 560 -318 q 551 -315 551 -315 q 513 -299 532 -308 q 478 -278 494 -290 l 432 -344 m 528 -489 q 517 -492 525 -493 q 465 -468 490 -482 q 418 -435 440 -454 q 417 -422 413 -429 l 482 -317 q 496 -319 486 -311 q 526 -339 501 -324 q 593 -381 550 -354 q 596 -389 600 -385 l 528 -489 z "},"ڹ":{"ha":794,"x_min":83,"x_max":710,"o":"m 608 639 q 653 539 632 593 q 689 419 674 485 q 707 294 704 356 q 700 171 710 232 q 658 57 689 104 q 376 -89 578 -69 q 157 -32 233 -103 q 89 163 83 39 q 174 396 96 289 q 194 404 185 411 q 193 376 207 397 q 160 142 107 232 q 369 53 211 53 q 663 174 554 56 q 665 186 665 176 q 625 360 667 250 q 586 453 604 414 q 551 517 568 493 q 546 540 542 531 l 588 643 q 608 639 594 660 m 351 847 q 363 850 354 851 q 461 792 418 831 q 463 781 467 786 l 397 675 q 383 676 393 668 q 354 696 378 681 q 286 738 331 711 q 283 746 279 742 l 351 847 m 367 -215 q 378 -212 369 -211 q 476 -271 433 -232 q 478 -282 482 -276 l 413 -387 q 399 -386 408 -394 q 369 -367 393 -382 q 301 -325 346 -351 q 299 -317 294 -321 l 367 -215 z "},"ں":{"ha":794,"x_min":83,"x_max":710,"o":"m 608 639 q 653 539 632 593 q 689 419 674 485 q 707 294 704 356 q 700 171 710 232 q 658 57 689 104 q 376 -89 578 -69 q 157 -32 233 -103 q 89 163 83 39 q 174 396 96 289 q 194 404 185 411 q 193 376 207 397 q 160 142 107 232 q 369 53 211 53 q 663 174 554 56 q 665 186 665 176 q 625 360 667 250 q 586 453 604 414 q 551 517 568 493 q 546 540 542 531 l 588 643 q 608 639 594 660 z "},"ﮞ":{"ha":794,"x_min":83,"x_max":710,"o":"m 608 639 q 653 539 632 593 q 689 419 674 485 q 707 294 704 356 q 700 171 710 232 q 658 57 689 104 q 376 -89 578 -69 q 157 -32 233 -103 q 89 163 83 39 q 174 396 96 289 q 194 404 185 411 q 193 376 207 397 q 160 142 107 232 q 369 53 211 53 q 663 174 554 56 q 665 186 665 176 q 625 360 667 250 q 586 453 604 414 q 551 517 568 493 q 546 540 542 531 l 588 643 q 608 639 594 660 z "},"ڻ":{"ha":794,"x_min":83,"x_max":710,"o":"m 608 639 q 653 539 632 593 q 689 419 674 485 q 707 294 704 356 q 700 171 710 232 q 658 57 689 104 q 376 -89 578 -69 q 157 -32 233 -103 q 89 163 83 39 q 174 396 96 289 q 194 404 185 411 q 193 376 207 397 q 160 142 107 232 q 369 53 211 53 q 663 174 554 56 q 665 186 665 176 q 625 360 667 250 q 586 453 604 414 q 551 517 568 493 q 546 540 542 531 l 588 643 q 608 639 594 660 m 328 1096 q 342 1079 339 1103 q 359 909 356 979 q 356 799 363 839 q 399 842 378 822 q 440 876 419 861 q 513 894 481 907 q 560 846 546 881 q 522 743 575 808 q 435 706 513 729 q 274 678 356 682 q 214 704 236 685 q 186 735 189 726 q 189 744 182 746 q 242 742 215 742 q 294 743 268 742 l 331 779 q 328 897 333 828 q 308 1051 322 965 q 310 1059 308 1054 q 315 1074 311 1064 q 328 1096 325 1094 m 439 831 q 400 805 426 825 q 333 747 374 785 q 517 804 425 760 q 439 831 494 850 z "},"ﮠ":{"ha":794,"x_min":83,"x_max":710,"o":"m 608 639 q 653 539 632 593 q 689 419 674 485 q 707 294 704 356 q 700 171 710 232 q 658 57 689 104 q 376 -89 578 -69 q 157 -32 233 -103 q 89 163 83 39 q 174 396 96 289 q 194 404 185 411 q 193 376 207 397 q 160 142 107 232 q 369 53 211 53 q 663 174 554 56 q 665 186 665 176 q 625 360 667 250 q 586 453 604 414 q 551 517 568 493 q 546 540 542 531 l 588 643 q 608 639 594 660 m 328 1096 q 342 1079 339 1103 q 359 909 356 979 q 356 799 363 839 q 399 842 378 822 q 440 876 419 861 q 513 894 481 907 q 560 846 546 881 q 522 743 575 808 q 435 706 513 729 q 274 678 356 682 q 214 704 236 685 q 186 735 189 726 q 189 744 182 746 q 242 742 215 742 q 294 743 268 742 l 331 779 q 328 897 333 828 q 308 1051 322 965 q 310 1059 308 1054 q 315 1074 311 1064 q 328 1096 325 1094 m 439 831 q 400 805 426 825 q 333 747 374 785 q 517 804 425 760 q 439 831 494 850 z "},"ڼ":{"ha":794,"x_min":83,"x_max":710,"o":"m 608 639 q 653 539 632 593 q 689 419 674 485 q 707 294 704 356 q 700 171 710 232 q 658 57 689 104 q 376 -89 578 -69 q 157 -32 233 -103 q 89 163 83 39 q 174 396 96 289 q 194 404 185 411 q 193 376 207 397 q 160 142 107 232 q 369 53 211 53 q 663 174 554 56 q 665 186 665 176 q 625 360 667 250 q 586 453 604 414 q 551 517 568 493 q 546 540 542 531 l 588 643 q 608 639 594 660 m 351 847 q 363 850 354 851 q 461 792 418 831 q 463 781 467 786 l 397 675 q 383 676 393 668 q 354 696 378 681 q 286 738 331 711 q 283 746 279 742 l 351 847 m 486 -137 q 481 -194 486 -176 q 375 -261 463 -265 q 301 -164 293 -260 q 356 -36 313 -69 q 449 -44 401 -1 q 486 -137 483 -74 m 458 -172 q 389 -87 440 -90 q 343 -108 360 -86 q 332 -160 328 -131 q 382 -196 336 -192 q 453 -181 426 -200 q 458 -172 458 -176 z "},"ڽ":{"ha":794,"x_min":83,"x_max":710,"o":"m 608 639 q 653 539 632 593 q 689 419 674 485 q 707 294 704 356 q 700 171 710 232 q 658 57 689 104 q 376 -89 578 -69 q 157 -32 233 -103 q 89 163 83 39 q 174 396 96 289 q 194 404 185 411 q 193 376 207 397 q 160 142 107 232 q 369 53 211 53 q 663 174 554 56 q 665 186 665 176 q 625 360 667 250 q 586 453 604 414 q 551 517 568 493 q 546 540 542 531 l 588 643 q 608 639 594 660 m 415 878 q 426 881 418 882 q 478 857 454 871 q 525 824 503 843 q 526 811 531 818 l 460 706 q 447 708 457 701 q 426 722 443 711 q 378 751 408 733 l 329 674 q 315 676 325 668 q 286 696 310 681 q 218 738 263 711 q 217 746 213 742 l 285 846 q 296 849 288 850 q 334 833 315 842 q 369 811 353 824 l 415 878 m 319 1022 q 331 1025 322 1026 q 383 1001 358 1015 q 429 968 407 988 q 432 956 436 961 l 365 850 q 351 853 361 844 q 322 872 346 857 q 254 914 299 888 q 251 922 247 918 l 319 1022 z "},"ھ":{"ha":844,"x_min":36,"x_max":764,"o":"m 285 81 q 279 96 282 88 q 286 207 271 146 q 365 338 301 267 q 478 433 431 408 q 549 368 525 458 q 568 346 553 354 q 744 233 696 283 q 756 213 751 226 q 761 181 760 200 q 762 141 764 163 q 753 94 760 119 q 710 17 739 46 q 539 -7 682 -14 q 445 3 488 -4 q 368 22 403 11 q 203 -42 300 -21 q 158 -42 174 -50 l 88 -7 q 111 36 36 21 q 204 58 161 47 q 285 81 247 69 m 433 314 q 374 281 414 314 q 339 243 354 264 q 311 199 324 222 q 310 189 310 196 q 397 131 321 147 q 451 158 431 144 q 479 182 471 171 q 479 260 494 203 q 433 314 465 314 m 535 246 q 475 115 524 172 q 563 106 514 108 q 672 104 613 103 q 696 117 690 104 q 694 136 701 128 q 634 189 674 161 q 535 246 594 217 z "},"ﮪ":{"ha":844,"x_min":36,"x_max":764,"o":"m 285 81 q 279 96 282 88 q 286 207 271 146 q 365 338 301 267 q 478 433 431 408 q 549 368 525 458 q 568 346 553 354 q 744 233 696 283 q 756 213 751 226 q 761 181 760 200 q 762 141 764 163 q 753 94 760 119 q 710 17 739 46 q 539 -7 682 -14 q 445 3 488 -4 q 368 22 403 11 q 203 -42 300 -21 q 158 -42 174 -50 l 88 -7 q 111 36 36 21 q 204 58 161 47 q 285 81 247 69 m 433 314 q 374 281 414 314 q 339 243 354 264 q 311 199 324 222 q 310 189 310 196 q 397 131 321 147 q 451 158 431 144 q 479 182 471 171 q 479 260 494 203 q 433 314 465 314 m 535 246 q 475 115 524 172 q 563 106 514 108 q 672 104 613 103 q 696 117 690 104 q 694 136 701 128 q 634 189 674 161 q 535 246 594 217 z "},"ڿ":{"ha":918,"x_min":39,"x_max":1054,"o":"m 879 314 l 846 239 q 831 226 840 228 q 365 96 497 183 q 161 -317 106 -75 q 361 -525 193 -450 q 651 -578 454 -565 q 843 -582 750 -583 q 1021 -574 936 -581 q 1049 -579 1043 -571 q 1049 -597 1054 -587 q 1041 -605 1046 -603 q 1031 -610 1036 -607 q 899 -664 946 -635 q 841 -696 864 -686 q 810 -707 818 -706 q 221 -611 401 -742 q 104 -197 39 -479 q 440 215 169 88 q 160 206 256 261 q 143 203 150 201 q 136 213 136 204 q 150 281 139 247 q 283 360 175 354 q 454 339 338 363 q 653 318 571 315 q 743 324 693 319 q 853 339 793 329 q 879 314 893 344 m 453 692 q 464 694 456 696 q 563 636 519 675 q 564 625 568 631 l 499 519 q 485 521 494 513 q 456 540 479 525 q 388 582 432 556 q 385 590 381 586 l 453 692 m 503 -229 q 492 -232 500 -233 q 440 -208 465 -222 q 393 -175 415 -194 q 392 -162 388 -169 l 458 -57 q 471 -60 461 -53 q 492 -73 475 -62 q 540 -103 510 -83 l 589 -26 q 603 -28 593 -19 q 633 -47 608 -32 q 700 -89 657 -62 q 701 -97 706 -93 l 633 -199 q 624 -200 631 -203 q 622 -200 622 -200 q 584 -184 603 -193 q 549 -162 565 -175 l 503 -229 m 599 -374 q 588 -376 596 -378 q 536 -353 561 -367 q 489 -319 511 -339 q 488 -307 483 -314 l 553 -201 q 567 -204 557 -196 q 597 -224 572 -208 q 664 -265 621 -239 q 667 -274 671 -269 l 599 -374 z "},"ۀ":{"ha":513,"x_min":74,"x_max":440,"o":"m 219 453 q 276 449 242 468 q 403 315 365 397 q 421 147 440 235 q 350 15 403 64 q 229 -33 297 -33 q 104 33 135 -36 q 103 213 74 101 q 210 415 132 325 q 213 433 213 418 q 219 453 213 450 m 351 154 q 344 196 368 167 q 221 274 279 276 q 171 233 192 274 q 156 171 150 193 q 236 119 168 119 q 351 154 307 119 m 353 761 q 288 749 315 754 q 246 738 261 743 q 201 720 231 732 q 129 689 172 708 q 103 694 111 681 q 157 763 86 719 q 99 821 106 788 q 146 958 88 879 q 269 1032 204 1038 q 307 985 311 1028 q 282 913 303 942 q 249 906 263 885 q 207 932 233 931 q 164 915 179 935 q 165 879 147 894 q 301 833 211 836 q 319 835 308 833 q 343 840 329 838 q 368 845 358 843 q 383 847 378 847 q 400 838 396 847 q 401 822 404 829 q 353 761 374 765 z "},"ﮤ":{"ha":513,"x_min":74,"x_max":440,"o":"m 219 453 q 276 449 242 468 q 403 315 365 397 q 421 147 440 235 q 350 15 403 64 q 229 -33 297 -33 q 104 33 135 -36 q 103 213 74 101 q 210 415 132 325 q 213 433 213 418 q 219 453 213 450 m 351 154 q 344 196 368 167 q 221 274 279 276 q 171 233 192 274 q 156 171 150 193 q 236 119 168 119 q 351 154 307 119 m 353 761 q 288 749 315 754 q 246 738 261 743 q 201 720 231 732 q 129 689 172 708 q 103 694 111 681 q 157 763 86 719 q 99 821 106 788 q 146 958 88 879 q 269 1032 204 1038 q 307 985 311 1028 q 282 913 303 942 q 249 906 263 885 q 207 932 233 931 q 164 915 179 935 q 165 879 147 894 q 301 833 211 836 q 319 835 308 833 q 343 840 329 838 q 368 845 358 843 q 383 847 378 847 q 400 838 396 847 q 401 822 404 829 q 353 761 374 765 z "},"ہ":{"ha":513,"x_min":74,"x_max":440,"o":"m 219 453 q 276 449 242 468 q 403 315 365 397 q 421 147 440 235 q 350 15 403 64 q 229 -33 297 -33 q 104 33 135 -36 q 103 213 74 101 q 210 415 132 325 q 213 433 213 418 q 219 453 213 450 m 351 154 q 344 196 368 167 q 221 274 279 276 q 171 233 192 274 q 156 171 150 193 q 236 119 168 119 q 351 154 307 119 z "},"ﮦ":{"ha":513,"x_min":74,"x_max":440,"o":"m 219 453 q 276 449 242 468 q 403 315 365 397 q 421 147 440 235 q 350 15 403 64 q 229 -33 297 -33 q 104 33 135 -36 q 103 213 74 101 q 210 415 132 325 q 213 433 213 418 q 219 453 213 450 m 351 154 q 344 196 368 167 q 221 274 279 276 q 171 233 192 274 q 156 171 150 193 q 236 119 168 119 q 351 154 307 119 z "}}}
